<svg width="1224" height="1068" viewBox="0 0 1224 1068" fill="none" xmlns="http://www.w3.org/2000/svg">
<path d="M115.66 477.77H114.66V478.77H115.66V477.77ZM211.42 477.77V478.77H212.42V477.77H211.42ZM211.42 133.79V132.79H210.42V133.79H211.42ZM327.34 133.79V134.79H328.34V133.79H327.34ZM327.34 53.15H328.34V52.15H327.34V53.15ZM1 53.15V52.15H0V53.15H1ZM1 133.79H0V134.79H1V133.79ZM115.66 133.79H116.66V132.79H115.66V133.79ZM115.66 478.77H211.42V476.77H115.66V478.77ZM212.42 477.77V133.79H210.42V477.77H212.42ZM211.42 134.79H327.34V132.79H211.42V134.79ZM328.34 133.79V53.15H326.34V133.79H328.34ZM327.34 52.15H1V54.15H327.34V52.15ZM0 53.15V133.79H2V53.15H0ZM1 134.79H115.66V132.79H1V134.79ZM114.66 133.79V477.77H116.66V133.79H114.66ZM616.249 368.78L617.207 368.492L616.993 367.78H616.249V368.78ZM649.009 477.77L648.051 478.058L648.266 478.77H649.009V477.77ZM752.959 477.77V478.77H754.318L753.914 477.473L752.959 477.77ZM620.659 53.15L621.614 52.8525L621.395 52.15H620.659V53.15ZM494.659 53.15V52.15H493.918L493.702 52.859L494.659 53.15ZM365.509 477.77L364.552 477.479L364.16 478.77H365.509V477.77ZM464.419 477.77V478.77H465.179L465.383 478.037L464.419 477.77ZM494.659 368.78V367.78H493.899L493.696 368.513L494.659 368.78ZM508.519 296.96L507.556 296.691L507.201 297.96H508.519V296.96ZM533.719 206.87L532.757 206.599L532.756 206.601L533.719 206.87ZM553.249 124.97V123.97H552.468L552.279 124.728L553.249 124.97ZM554.509 124.97L555.479 124.728L555.29 123.97H554.509V124.97ZM575.929 206.87L576.889 206.588L576.887 206.583L575.929 206.87ZM602.389 296.96V297.96H603.725L603.349 296.678L602.389 296.96ZM615.291 369.068L648.051 478.058L649.967 477.482L617.207 368.492L615.291 369.068ZM649.009 478.77H752.959V476.77H649.009V478.77ZM753.914 477.473L621.614 52.8525L619.704 53.4475L752.004 478.067L753.914 477.473ZM620.659 52.15H494.659V54.15H620.659V52.15ZM493.702 52.859L364.552 477.479L366.466 478.061L495.616 53.441L493.702 52.859ZM365.509 478.77H464.419V476.77H365.509V478.77ZM465.383 478.037L495.623 369.047L493.696 368.513L463.456 477.503L465.383 478.037ZM494.659 369.78H616.249V367.78H494.659V369.78ZM509.482 297.229L534.682 207.139L532.756 206.601L507.556 296.691L509.482 297.229ZM534.682 207.141C541.611 182.573 547.944 150.314 554.219 125.213L552.279 124.728C545.954 150.026 539.687 182.027 532.757 206.599L534.682 207.141ZM553.249 125.97H554.509V123.97H553.249V125.97ZM553.539 125.213C559.835 150.395 567.403 181.928 574.971 207.157L576.887 206.583C569.336 181.412 561.784 149.945 555.479 124.728L553.539 125.213ZM574.97 207.152L601.43 297.242L603.349 296.678L576.889 206.588L574.97 207.152ZM602.389 295.96H508.519V297.96H602.389V295.96ZM872.187 477.77H871.187V478.77H872.187V477.77ZM967.317 477.77V478.77H968.317V477.77H967.317ZM967.317 310.82V309.82H966.317V310.82H967.317ZM995.67 310.82L995.68 309.82H995.67V310.82ZM1065.6 378.86L1064.62 379.078V379.083L1065.6 378.86ZM1094.58 477.77L1093.68 478.217L1093.96 478.77H1094.58V477.77ZM1192.86 477.77V478.77H1194.47L1193.75 477.323L1192.86 477.77ZM1158.84 357.44L1159.8 357.177V357.176L1158.84 357.44ZM1102.14 278.69H1101.14V279.364L1101.76 279.617L1102.14 278.69ZM1102.14 276.8L1101.8 275.86L1101.14 276.099V276.8H1102.14ZM1137.42 83.39L1136.8 84.174V84.1783L1137.42 83.39ZM872.187 58.82L872.026 57.8331L871.187 57.97V58.82H872.187ZM967.317 124.97L967.054 124.005L966.317 124.206V124.97H967.317ZM967.317 241.52H966.317V242.52H967.317V241.52ZM872.187 478.77H967.317V476.77H872.187V478.77ZM968.317 477.77V310.82H966.317V477.77H968.317ZM967.317 311.82H995.67V309.82H967.317V311.82ZM995.65 311.82C1015.4 312.133 1029.59 315.738 1040.35 325.728C1051.14 335.751 1058.65 352.352 1064.62 379.078L1066.57 378.642C1060.58 351.818 1052.96 334.714 1041.71 324.262C1030.42 313.777 1015.63 310.137 995.68 309.82L995.65 311.82ZM1064.62 379.083C1076.59 431.364 1087.32 465.496 1093.68 478.217L1095.47 477.323C1089.23 464.844 1078.54 430.936 1066.57 378.637L1064.62 379.083ZM1094.58 478.77H1192.86V476.77H1094.58V478.77ZM1193.75 477.323C1189.71 469.246 1184.54 451.41 1178.7 429.397C1172.88 407.455 1166.42 381.428 1159.8 357.177L1157.87 357.703C1164.49 381.962 1170.93 407.909 1176.77 429.91C1182.59 451.84 1187.81 469.914 1191.96 478.217L1193.75 477.323ZM1159.8 357.176C1149.06 318.017 1132.56 289.911 1102.51 277.763L1101.76 279.617C1130.93 291.409 1147.19 318.743 1157.87 357.704L1159.8 357.176ZM1103.14 278.69V276.8H1101.14V278.69H1103.14ZM1102.48 277.74C1139.31 264.405 1178.11 226.922 1178.11 172.85H1176.11C1176.11 225.878 1138.04 262.735 1101.8 275.86L1102.48 277.74ZM1178.11 172.85C1178.11 133.533 1164.14 102.981 1138.03 82.6017L1136.8 84.1783C1162.35 104.119 1176.11 134.047 1176.11 172.85H1178.11ZM1138.04 82.6059C1107.52 58.4494 1063.14 49 1000.08 49V51C1063.02 51 1106.83 60.4506 1136.8 84.174L1138.04 82.6059ZM1000.08 49C948.374 49 902.959 52.7827 872.026 57.8331L872.348 59.8069C903.154 54.7773 948.459 51 1000.08 51V49ZM871.187 58.82V477.77H873.187V58.82H871.187ZM967.58 125.935C974.367 124.084 987.475 122.82 1010.79 122.82V120.82C987.478 120.82 974.126 122.076 967.054 124.005L967.58 125.935ZM1010.79 122.82C1032.7 122.82 1050.09 127.831 1061.97 137.48C1073.83 147.103 1080.35 161.443 1080.35 180.41H1082.35C1082.35 160.947 1075.63 145.992 1063.23 135.927C1050.87 125.889 1032.97 120.82 1010.79 120.82V122.82ZM1080.35 180.41C1080.35 198.718 1073.38 213.701 1060.56 224.128C1047.71 234.573 1028.9 240.52 1005.12 240.52V242.52C1029.21 242.52 1048.52 236.497 1061.82 225.68C1075.14 214.844 1082.35 199.271 1082.35 180.41H1080.35ZM1005.12 240.52H967.317V242.52H1005.12V240.52ZM968.317 241.52V124.97H966.317V241.52H968.317ZM387.82 764.59H388.82V763.59H387.82V764.59ZM229.69 764.59V763.59H228.69V764.59H229.69ZM229.69 839.56H228.69V840.56H229.69V839.56ZM295.21 839.56H296.21V838.56H295.21V839.56ZM295.21 929.02L295.595 929.943L296.21 929.687V929.02H295.21ZM353.8 676.39L353.383 677.299L354.467 677.797L354.768 676.642L353.8 676.39ZM373.96 598.9L374.928 599.152L375.14 598.338L374.374 597.99L373.96 598.9ZM13.6 800.5L12.6 800.496V800.5H13.6ZM73.45 955.48L72.7548 956.199L72.7606 956.204L73.45 955.48ZM387.82 988.24L388.142 989.187L388.82 988.956V988.24H387.82ZM387.82 763.59H229.69V765.59H387.82V763.59ZM228.69 764.59V839.56H230.69V764.59H228.69ZM229.69 840.56H295.21V838.56H229.69V840.56ZM294.21 839.56V929.02H296.21V839.56H294.21ZM294.825 928.097C291.172 929.619 284.979 931.024 276.971 932.044C268.985 933.062 259.263 933.69 248.59 933.69V935.69C259.337 935.69 269.145 935.058 277.224 934.028C285.281 933.001 291.688 931.571 295.595 929.943L294.825 928.097ZM248.59 933.69C209.434 933.69 176.157 921.007 152.672 897.444C129.188 873.882 115.4 839.346 115.4 795.46H113.4C113.4 839.774 127.332 874.853 151.255 898.856C175.178 922.858 208.996 935.69 248.59 935.69V933.69ZM115.4 795.46C115.4 749.387 130.592 715.342 155.625 692.804C180.675 670.252 215.693 659.12 255.52 659.12V657.12C215.337 657.12 179.795 668.353 154.287 691.318C128.763 714.298 113.4 748.923 113.4 795.46H115.4ZM255.52 659.12C302.016 659.12 330.22 666.657 353.383 677.299L354.218 675.481C330.76 664.703 302.264 657.12 255.52 657.12V659.12ZM354.768 676.642L374.928 599.152L372.992 598.648L352.832 676.138L354.768 676.642ZM374.374 597.99C353.427 588.468 311.07 577.74 256.15 577.74V579.74C310.85 579.74 352.913 590.432 373.546 599.81L374.374 597.99ZM256.15 577.74C186.348 577.74 125.616 597.955 82.2411 635.948C38.8505 673.954 12.9162 729.677 12.6 800.496L14.6 800.504C14.9138 730.203 40.6395 675.046 83.5589 637.452C126.494 599.845 186.722 579.74 256.15 579.74V577.74ZM12.6 800.5C12.6 863.092 34.0975 918.809 72.7548 956.199L74.1452 954.761C35.9425 917.811 14.6 862.648 14.6 800.5H12.6ZM72.7606 956.204C112.063 993.605 168.414 1013.18 246.07 1013.18V1011.18C168.746 1011.18 112.957 991.695 74.1394 954.756L72.7606 956.204ZM246.07 1013.18C302.281 1013.18 358.463 999.29 388.142 989.187L387.498 987.293C357.958 997.35 301.999 1011.18 246.07 1011.18V1013.18ZM388.82 988.24V764.59H386.82V988.24H388.82ZM778.194 750.1H779.194V749.1H778.194V750.1ZM621.954 750.1H620.954V751.1H621.954V750.1ZM621.954 661.9V660.9H620.954V661.9H621.954ZM787.644 661.9V662.9H788.644V661.9H787.644ZM787.644 583.15H788.644V582.15H787.644V583.15ZM526.194 583.15V582.15H525.194V583.15H526.194ZM526.194 1007.77H525.194V1008.77H526.194V1007.77ZM796.464 1007.77V1008.77H797.464V1007.77H796.464ZM796.464 929.02H797.464V928.02H796.464V929.02ZM621.954 929.02H620.954V930.02H621.954V929.02ZM621.954 828.22V827.22H620.954V828.22H621.954ZM778.194 828.22V829.22H779.194V828.22H778.194ZM778.194 749.1H621.954V751.1H778.194V749.1ZM622.954 750.1V661.9H620.954V750.1H622.954ZM621.954 662.9H787.644V660.9H621.954V662.9ZM788.644 661.9V583.15H786.644V661.9H788.644ZM787.644 582.15H526.194V584.15H787.644V582.15ZM525.194 583.15V1007.77H527.194V583.15H525.194ZM526.194 1008.77H796.464V1006.77H526.194V1008.77ZM797.464 1007.77V929.02H795.464V1007.77H797.464ZM796.464 928.02H621.954V930.02H796.464V928.02ZM622.954 929.02V828.22H620.954V929.02H622.954ZM621.954 829.22H778.194V827.22H621.954V829.22ZM779.194 828.22V750.1H777.194V828.22H779.194ZM1010.7 1007.77H1009.7V1008.77H1010.7V1007.77ZM1106.46 1007.77V1008.77H1107.46V1007.77H1106.46ZM1106.46 663.79V662.79H1105.46V663.79H1106.46ZM1222.38 663.79V664.79H1223.38V663.79H1222.38ZM1222.38 583.15H1223.38V582.15H1222.38V583.15ZM896.043 583.15V582.15H895.043V583.15H896.043ZM896.043 663.79H895.043V664.79H896.043V663.79ZM1010.7 663.79H1011.7V662.79H1010.7V663.79ZM1010.7 1008.77H1106.46V1006.77H1010.7V1008.77ZM1107.46 1007.77V663.79H1105.46V1007.77H1107.46ZM1106.46 664.79H1222.38V662.79H1106.46V664.79ZM1223.38 663.79V583.15H1221.38V663.79H1223.38ZM1222.38 582.15H896.043V584.15H1222.38V582.15ZM895.043 583.15V663.79H897.043V583.15H895.043ZM896.043 664.79H1010.7V662.79H896.043V664.79ZM1009.7 663.79V1007.77H1011.7V663.79H1009.7Z" fill="#1950DB" fill-opacity="0.13"/>
</svg>
