<svg width="21" height="21" viewBox="0 0 21 21" fill="none" xmlns="http://www.w3.org/2000/svg">
<path fill-rule="evenodd" clip-rule="evenodd" d="M0.585953 0.5858C-0.195084 1.36681 -0.195084 2.63316 0.585953 3.41417L7.65697 10.4852L0.5858 17.5564C-0.195267 18.3374 -0.195267 19.6037 0.5858 20.3848C1.36684 21.1659 2.63316 21.1659 3.41423 20.3848L10.4854 13.3136L17.5565 20.3848C18.3376 21.1658 19.6039 21.1658 20.3849 20.3848C21.166 19.6037 21.166 18.3374 20.3849 17.5563L13.3138 10.4852L20.3848 3.41423C21.1658 2.63322 21.1658 1.36687 20.3848 0.5858C19.6037 -0.195206 18.3374 -0.195206 17.5564 0.5858L10.4854 7.65678L3.41438 0.5858C2.63332 -0.195267 1.36699 -0.195267 0.585953 0.5858Z" fill="#6A6969"/>
</svg>
