<svg width="28" height="28" viewBox="0 0 28 28" fill="none" xmlns="http://www.w3.org/2000/svg">
<path d="M14 4.6665C8.16663 4.6665 3.18496 8.29484 1.16663 13.4165C3.18496 18.5382 8.16663 22.1665 14 22.1665C19.8333 22.1665 24.815 18.5382 26.8333 13.4165C24.815 8.29484 19.8333 4.6665 14 4.6665ZM14 19.2498C10.78 19.2498 8.16663 16.6365 8.16663 13.4165C8.16663 10.1965 10.78 7.58317 14 7.58317C17.22 7.58317 19.8333 10.1965 19.8333 13.4165C19.8333 16.6365 17.22 19.2498 14 19.2498ZM14 9.9165C12.0633 9.9165 10.5 11.4798 10.5 13.4165C10.5 15.3532 12.0633 16.9165 14 16.9165C15.9366 16.9165 17.5 15.3532 17.5 13.4165C17.5 11.4798 15.9366 9.9165 14 9.9165Z" fill="#9C9C9C"/>
</svg>
