<svg width="35" height="35" viewBox="0 0 35 35" fill="none" xmlns="http://www.w3.org/2000/svg">
<path d="M18.9702 2.82614L3.26344 0.439404C2.53455 0.325069 1.79138 0.525155 1.23399 0.996786C0.676613 1.48271 0.3479 2.18301 0.3479 2.91189V33.0248C0.3479 33.8109 0.991033 34.454 1.77708 34.454H6.42193V26.9508C6.42193 25.5645 7.5367 24.4497 8.92301 24.4497H12.496C13.8823 24.4497 14.997 25.5645 14.997 26.9508V34.454H21.0711V5.29863C21.0711 4.06953 20.185 3.02623 18.9702 2.82614ZM8.20841 21.234H6.06464C5.47296 21.234 4.99275 20.7538 4.99275 20.1621C4.99275 19.5705 5.47296 19.0903 6.06464 19.0903H8.20841C8.8001 19.0903 9.2803 19.5705 9.2803 20.1621C9.2803 20.7538 8.8001 21.234 8.20841 21.234ZM8.20841 16.9465H6.06464C5.47296 16.9465 4.99275 16.4663 4.99275 15.8746C4.99275 15.2829 5.47296 14.8027 6.06464 14.8027H8.20841C8.8001 14.8027 9.2803 15.2829 9.2803 15.8746C9.2803 16.4663 8.8001 16.9465 8.20841 16.9465ZM8.20841 12.6589H6.06464C5.47296 12.6589 4.99275 12.1787 4.99275 11.587C4.99275 10.9954 5.47296 10.5152 6.06464 10.5152H8.20841C8.8001 10.5152 9.2803 10.9954 9.2803 11.587C9.2803 12.1787 8.8001 12.6589 8.20841 12.6589ZM8.20841 8.37138H6.06464C5.47296 8.37138 4.99275 7.89117 4.99275 7.29949C4.99275 6.70781 5.47296 6.2276 6.06464 6.2276H8.20841C8.8001 6.2276 9.2803 6.70781 9.2803 7.29949C9.2803 7.89117 8.8001 8.37138 8.20841 8.37138ZM15.3543 21.234H13.2106C12.6189 21.234 12.1387 20.7538 12.1387 20.1621C12.1387 19.5705 12.6189 19.0903 13.2106 19.0903H15.3543C15.946 19.0903 16.4262 19.5705 16.4262 20.1621C16.4262 20.7538 15.946 21.234 15.3543 21.234ZM15.3543 16.9465H13.2106C12.6189 16.9465 12.1387 16.4663 12.1387 15.8746C12.1387 15.2829 12.6189 14.8027 13.2106 14.8027H15.3543C15.946 14.8027 16.4262 15.2829 16.4262 15.8746C16.4262 16.4663 15.946 16.9465 15.3543 16.9465ZM15.3543 12.6589H13.2106C12.6189 12.6589 12.1387 12.1787 12.1387 11.587C12.1387 10.9954 12.6189 10.5152 13.2106 10.5152H15.3543C15.946 10.5152 16.4262 10.9954 16.4262 11.587C16.4262 12.1787 15.946 12.6589 15.3543 12.6589ZM15.3543 8.37138H13.2106C12.6189 8.37138 12.1387 7.89117 12.1387 7.29949C12.1387 6.70781 12.6189 6.2276 13.2106 6.2276H15.3543C15.946 6.2276 16.4262 6.70781 16.4262 7.29949C16.4262 7.89117 15.946 8.37138 15.3543 8.37138Z" fill="#1950DB"/>
<path d="M32.6763 15.6487L22.5005 13.5178V34.4539H32.1475C33.5266 34.4539 34.6486 33.332 34.6486 31.9529V18.0926C34.6486 16.9121 33.8439 15.9074 32.6763 15.6487ZM29.2891 30.1664H27.1453C26.5537 30.1664 26.0734 29.6862 26.0734 29.0945C26.0734 28.5028 26.5537 28.0226 27.1453 28.0226H29.2891C29.8808 28.0226 30.361 28.5028 30.361 29.0945C30.361 29.6862 29.8808 30.1664 29.2891 30.1664ZM29.2891 25.8788H27.1453C26.5537 25.8788 26.0734 25.3986 26.0734 24.807C26.0734 24.2153 26.5537 23.7351 27.1453 23.7351H29.2891C29.8808 23.7351 30.361 24.2153 30.361 24.807C30.361 25.3986 29.8808 25.8788 29.2891 25.8788ZM29.2891 21.5913H27.1453C26.5537 21.5913 26.0734 21.1111 26.0734 20.5194C26.0734 19.9277 26.5537 19.4475 27.1453 19.4475H29.2891C29.8808 19.4475 30.361 19.9277 30.361 20.5194C30.361 21.1111 29.8808 21.5913 29.2891 21.5913Z" fill="#1950DB"/>
</svg>
