<svg width="73" height="73" viewBox="0 0 73 73" fill="none" xmlns="http://www.w3.org/2000/svg">
<path fill-rule="evenodd" clip-rule="evenodd" d="M41.6533 18.576C48.026 24.9487 48.026 35.2808 41.6533 41.6535C35.2806 48.0261 24.9485 48.0261 18.5759 41.6535C12.2032 35.2808 12.2032 24.9487 18.5759 18.576C24.9485 12.2034 35.2806 12.2034 41.6533 18.576ZM46.5314 43.6792C53.46 35.3137 53.0068 22.8924 45.1719 15.0575C36.856 6.74154 23.3732 6.74154 15.0573 15.0575C6.74138 23.3734 6.74138 36.8561 15.0573 45.172C23 53.1147 35.6561 53.4712 44.0218 46.2415L56.5902 58.8098L59.1262 56.2739L46.5314 43.6792ZM28.6683 22.6174L31.3581 22.6174V28.8938H37.634V31.1353H31.3581V37.4113L28.6683 37.4113L28.6683 31.1353L22.8401 31.1353L22.8401 28.8938H28.6683V22.6174Z" fill="white"/>
</svg>
