<svg width="152" height="133" viewBox="0 0 152 133" fill="none" xmlns="http://www.w3.org/2000/svg">
<path fill-rule="evenodd" clip-rule="evenodd" d="M82.6329 28.3509H82.6376L82.6469 28.3323L82.8703 27.7601V27.7553C82.8764 27.7306 82.8797 27.7058 82.8797 27.681C83.0748 27.4186 83.278 27.1659 83.4892 26.9226L83.6333 27.0575C84.0551 27.4484 84.4491 27.4205 84.815 26.9737L86.7038 24.6431C87.267 25.441 87.6857 26.1032 87.9599 26.6296L87.4204 28.1463C87.3212 28.4935 87.2529 28.8191 87.2156 29.1232C87.1908 29.3279 87.1783 29.5263 87.1783 29.7186C87.1722 29.7062 87.1691 29.6938 87.1691 29.6815C86.2075 31.7221 85.4229 34.0359 84.815 36.6226C84.4675 38.1112 83.9497 40.4187 83.2611 43.5451C83.2115 43.762 83.1619 43.9761 83.1122 44.1869C83.0068 43.4552 82.8515 42.6331 82.647 41.7213C82.6036 41.529 82.5571 41.3367 82.5074 41.1444C81.9181 38.75 81.6546 36.942 81.7166 35.7198C81.6854 35.3105 81.7973 34.2746 82.0515 32.6123C82.219 31.5047 82.0855 30.4672 81.6516 29.4998C81.901 29.1956 82.1925 28.8652 82.526 28.5088C82.5653 28.4553 82.6009 28.4026 82.6329 28.3509ZM101.545 62.3586C100.807 62.948 99.8979 63.4567 98.8186 63.8846C98.7937 63.8908 98.7688 63.9 98.744 63.9124C98.4833 64.0116 98.2137 64.1079 97.9346 64.2009C97.4196 64.3621 96.8737 64.5109 96.2968 64.6475C96.2844 64.6537 96.2721 64.6567 96.2597 64.6567C95.137 64.8615 94.1444 65.0569 93.2822 65.243C93.2076 64.6786 93.1332 64.0458 93.0588 63.3448C92.7921 59.8403 92.6586 58.0848 92.6586 58.0786C92.6586 53.8916 93.4931 50.0582 95.1617 46.5784C95.993 44.9779 96.5637 43.8397 96.8738 43.1635C97.3949 42.0345 97.6556 41.0484 97.6556 40.2047C97.6556 36.9855 98.3471 34.3864 99.7303 32.4076C100.642 31.105 101.7 30.2521 102.903 29.8488C103.741 30.4382 104.405 30.984 104.895 31.4864C104.963 31.5547 105.028 31.6228 105.09 31.6912C105.146 31.7532 105.199 31.8152 105.248 31.8773C105.429 32.0463 105.592 32.2279 105.737 32.4216C105.636 32.3412 105.535 32.2654 105.434 32.1937C104.814 31.8524 104.135 31.7159 103.396 31.7843C102.714 31.8463 102.063 32.082 101.443 32.4914C100.991 32.7804 100.606 33.1278 100.289 33.5334C100.28 33.5459 100.27 33.5583 100.261 33.5707C100.242 33.5894 100.224 33.611 100.205 33.6359L100.019 33.8963C99.9941 33.9212 99.9724 33.9521 99.9539 33.9894C99.9414 34.0081 99.9321 34.0267 99.9258 34.0451C99.9135 34.0577 99.9012 34.0763 99.8888 34.1011C99.8762 34.1197 99.8639 34.1415 99.8516 34.1662C99.8454 34.1723 99.839 34.1846 99.8328 34.2034L99.3772 35.6734C99.3709 35.7726 99.3645 35.8751 99.3584 35.9805C99.3709 36.9294 99.6467 37.7855 100.187 38.5484C100.72 39.3177 101.378 40.0061 102.159 40.6141C102.958 41.2442 103.697 41.849 104.374 42.4285C103.795 43.5411 103.104 44.7289 102.299 45.9919C101.046 47.7474 100.5 49.9152 100.661 52.4958C100.773 54.2325 101.269 56.4687 102.15 59.2043C102.336 60.2339 102.429 60.8233 102.429 60.9722C102.423 61.1832 102.392 61.3755 102.336 61.5492C102.311 61.6173 102.283 61.6826 102.252 61.7446C102.103 62.0111 101.874 62.2129 101.564 62.3493C101.557 62.3555 101.551 62.3586 101.545 62.3586ZM32.1826 76.7481C32.341 76.6681 32.5099 76.6123 32.6896 76.5805C32.812 76.5589 32.9392 76.548 33.0711 76.548C33.5798 76.548 34.0078 76.6999 34.3553 77.0041C34.7398 77.3389 34.9321 77.7949 34.9321 78.3718C34.9321 78.5082 34.9259 78.6198 34.9135 78.7066C34.8888 78.9488 34.8298 79.1657 34.7367 79.3579C34.4716 79.9054 33.9878 80.2031 33.2853 80.2514C33.2165 80.2576 33.1453 80.2607 33.0711 80.2607C32.8218 80.2607 32.5954 80.2249 32.3919 80.1537C32.075 80.0409 31.8146 79.841 31.6104 79.5537C31.3497 79.1939 31.2196 78.7906 31.2196 78.344C31.2196 77.7795 31.4119 77.333 31.7964 77.0042C31.9171 76.9001 32.0458 76.8148 32.1826 76.7481ZM35.1834 71.2723C35.0158 71.0552 34.932 70.7853 34.932 70.4627C34.932 70.0472 35.0996 69.7185 35.4345 69.4766C35.7324 69.2532 36.0951 69.1417 36.5233 69.1417C36.9575 69.1417 37.3234 69.2532 37.6211 69.4766C37.9554 69.718 38.1229 70.045 38.1236 70.4583C38.1218 70.4002 38.0629 70.594 37.9467 71.0398C37.6802 71.5422 37.2055 71.7934 36.5232 71.7934C35.8905 71.7933 35.4438 71.6196 35.1834 71.2723ZM38.3703 79.4882C38.3512 79.5683 38.3124 79.7606 38.254 80.0651C38.164 80.2627 38.0416 80.4194 37.8863 80.5349C37.6702 80.6993 37.3894 80.7815 37.0443 80.7815C36.8809 80.7815 36.7305 80.7583 36.5931 80.7117C36.5138 80.6839 36.4393 80.6481 36.3697 80.6046C36.2305 80.5198 36.108 80.4049 36.0021 80.2604C35.8099 79.9999 35.7137 79.73 35.7137 79.4509C35.7137 79.0355 35.8533 78.7065 36.1325 78.4647C36.3805 78.2413 36.6846 78.1297 37.0444 78.1297C37.4104 78.1297 37.7174 78.2414 37.9657 78.4647C38.2444 78.7064 38.384 79.0352 38.3844 79.4509C38.3839 79.438 38.3792 79.4503 38.3703 79.4882ZM33.3178 83.7914C33.3014 83.9378 33.2736 84.071 33.2339 84.1914C33.231 84.2008 33.2279 84.21 33.2246 84.2194C33.2143 84.2459 33.2034 84.2722 33.1921 84.2985C32.9936 84.7761 32.6058 85.015 32.029 85.015C31.5452 85.015 31.1854 84.8227 30.9497 84.4382C30.8263 84.2368 30.7488 84.0168 30.7171 83.7774C30.7152 83.7665 30.7137 83.7557 30.7124 83.7449C30.7031 83.6714 30.6984 83.5954 30.6984 83.517C30.6984 83.0519 30.8349 82.6951 31.1079 82.4471C31.3497 82.2237 31.6507 82.1214 32.0106 82.1399C32.1085 82.1433 32.2032 82.1557 32.2943 82.1771C32.5292 82.2302 32.7386 82.3417 32.9224 82.5121C33.1953 82.7664 33.3318 83.092 33.3318 83.489C33.3317 83.5962 33.327 83.6971 33.3178 83.7914ZM33.5783 88.9787C33.4138 88.7426 33.3317 88.4853 33.3317 88.2065C33.3317 88.0593 33.3503 87.9228 33.3875 87.797C33.4564 87.5617 33.5898 87.3631 33.7877 87.2016C34.0606 86.9782 34.3956 86.8667 34.7925 86.8667C35.1896 86.8667 35.5276 86.9783 35.8068 87.2016C36.1106 87.4497 36.2627 87.7846 36.2627 88.2065C36.2625 88.1516 36.2191 88.3501 36.1325 88.8019C35.9029 89.2981 35.4595 89.5462 34.802 89.5462C34.2499 89.5462 33.8467 89.3633 33.5924 88.9973C33.5883 88.9916 33.5836 88.9856 33.5783 88.9787ZM33.3037 96.5478C33.1002 96.4625 32.9359 96.3337 32.8107 96.1619C32.6443 95.9419 32.5574 95.6832 32.55 95.3847C32.55 95.3704 32.55 95.3564 32.55 95.3429C32.55 94.9274 32.7022 94.5986 33.006 94.3568C33.279 94.1334 33.6108 94.0218 34.0016 94.0218C34.3925 94.0218 34.7243 94.1335 34.9972 94.3568C35.3011 94.5987 35.4532 94.9274 35.4532 95.3429C35.4532 95.3119 35.4097 95.5198 35.3229 95.9663C35.0995 96.4377 34.6654 96.6734 34.0202 96.6734C33.7436 96.6734 33.5048 96.6316 33.3037 96.5478ZM31.4801 91.6304C31.4801 91.5994 31.4336 91.8073 31.3405 92.2539C31.1297 92.7253 30.7419 92.961 30.1774 92.961C29.6936 92.961 29.3306 92.7904 29.0888 92.4493C28.9212 92.2074 28.8374 91.9345 28.8374 91.6304C28.8374 91.2148 28.9739 90.8861 29.2469 90.6443C29.4949 90.4209 29.799 90.3094 30.1587 90.3094C30.5184 90.3094 30.8224 90.421 31.0705 90.6443C31.3436 90.886 31.4801 91.2147 31.4801 91.6304ZM32.6803 102.312C32.4508 102.79 32.0072 103.028 31.3497 103.028C30.8349 103.028 30.4442 102.855 30.1774 102.507C29.9789 102.259 29.8797 101.999 29.8797 101.726C29.8797 101.298 30.0316 100.957 30.3357 100.702C30.6087 100.473 30.9437 100.358 31.3405 100.358C31.7375 100.358 32.0755 100.473 32.3547 100.702C32.6586 100.957 32.8107 101.298 32.8107 101.726C32.8107 101.676 32.7673 101.872 32.6803 102.312Z" fill="#549C00"/>
<path fill-rule="evenodd" clip-rule="evenodd" d="M73.6573 41.1351L73.8899 40.7907L80.1614 31.3562C80.5396 30.928 80.8932 30.4938 81.222 30.0536C81.3474 29.8798 81.4902 29.6952 81.6502 29.4998C82.0843 30.4672 82.2177 31.5047 82.0501 32.6123C81.7958 34.2745 81.6841 35.3105 81.7152 35.7198C79.8665 36.8425 78.4832 37.6894 77.5653 38.26C75.9339 39.2774 74.6312 40.2359 73.6573 41.1351ZM68.7444 40.5257C68.7949 40.6191 68.8476 40.7136 68.9026 40.8095C68.9585 40.9088 69.0174 41.0111 69.0794 41.1164C68.9561 40.9184 68.8445 40.7216 68.7444 40.5257ZM96.0445 24.1823C96.4787 24.1515 96.705 24.2941 96.7238 24.6105C96.7423 24.9082 96.5903 25.1688 96.2678 25.392L96.091 24.7686C96.0848 24.6693 96.0755 24.5732 96.0628 24.4802C96.0628 24.4553 96.0628 24.4306 96.0628 24.4056L96.0445 24.1823Z" fill="#C8B5A6"/>
<path fill-rule="evenodd" clip-rule="evenodd" d="M95.9332 14.9895C95.9037 14.9317 95.8743 14.8745 95.845 14.8179C95.9097 14.9359 95.9715 15.0566 96.0305 15.1796C95.998 15.1155 95.9656 15.052 95.9332 14.9895Z" fill="#FF6633"/>
<path fill-rule="evenodd" clip-rule="evenodd" d="M84.34 18.1626C84.4828 18.1703 84.6315 18.1764 84.7868 18.1812C85.1386 18.1938 85.5234 18.1999 85.9406 18.1999C86.3955 18.1999 86.8408 18.1736 87.2758 18.1209C88.1498 18.0192 88.9827 17.8129 89.774 17.5021C90.7791 17.1051 91.7064 16.8786 92.5562 16.8228C92.578 17.0131 92.6184 17.2038 92.6772 17.3951L92.8911 17.9673C92.9833 18.1632 93.0917 18.3586 93.2168 18.5534C93.4757 18.9569 93.8077 19.3602 94.2125 19.7629C94.224 19.7746 94.2348 19.7855 94.245 19.7956C94.2557 19.8065 94.2666 19.8175 94.2776 19.8281C94.6932 19.946 94.9724 19.7475 95.1149 19.2327C95.177 18.9287 95.2235 18.7024 95.2545 18.5534C95.3103 18.293 95.3756 18.1038 95.45 17.9857C96.2316 18.4571 96.3589 19.4187 95.8314 20.8701C95.5153 21.4222 95.0374 21.7138 94.3986 21.7448C94.597 23.0785 94.1784 24.3221 93.1424 25.4759C93.1319 25.4874 93.1212 25.4982 93.1097 25.5084C93.1024 25.5192 93.0946 25.5302 93.0865 25.5411C93.0197 25.6126 92.9516 25.6824 92.8818 25.7504L91.1419 27.0901C90.719 27.3454 90.2598 27.5826 89.7648 27.8019C89.0327 27.8142 88.5024 27.6066 88.1737 27.1786L87.9596 26.6296C87.6855 26.1033 87.2667 25.4411 86.7035 24.6431C86.5549 24.4343 86.3969 24.2154 86.229 23.987C85.5218 22.6037 85.1589 21.63 85.1403 21.0653C85.1217 20.4948 84.8394 19.7442 84.2935 18.8137C84.2944 18.8054 84.2944 18.7976 84.2935 18.7905C84.3032 18.6902 84.3125 18.5879 84.3215 18.4834L84.34 18.1626ZM123.336 33.0778L122.369 35.5992H122.769L122.871 35.6923C122.995 35.7543 123.172 35.7853 123.401 35.7853C123.603 35.7853 123.857 35.7234 124.164 35.5992H127.612C126.725 36.1842 126.097 36.5718 125.728 36.7623C124.915 37.1903 124.205 37.4043 123.597 37.4043C122.908 37.4043 122.192 37.2088 121.447 36.818C120.709 36.4274 120.281 36.2319 120.163 36.2319C120.095 36.2319 120.033 36.2351 119.977 36.2413C119.959 36.142 119.946 36.0365 119.94 35.9249C119.903 35.4101 120.024 34.9418 120.303 34.52C120.601 34.0671 121.029 33.76 121.587 33.5988C121.913 33.3757 122.496 33.2019 123.336 33.0778ZM129.254 34.5711L129.598 34.2642C129.639 34.2816 129.68 34.3018 129.719 34.3245C129.576 34.3941 129.422 34.4762 129.254 34.5711Z" fill="#FFB087"/>
<path fill-rule="evenodd" clip-rule="evenodd" d="M81.0273 24.634L83.3955 26.8344C83.1727 27.0585 82.9914 27.2354 82.851 27.3649C82.614 27.4819 82.363 27.5192 82.0974 27.4765L81.8043 27.3974C81.7056 27.3598 81.6048 27.3118 81.5019 27.2532C81.4575 27.2309 81.4125 27.2062 81.3671 27.1788L81.3484 27.1695C81.3012 27.1368 81.2533 27.1026 81.2042 27.067C80.5468 26.4716 80.0814 26.056 79.8086 25.8203C80.3668 25.6466 80.7514 25.3086 80.9624 24.8061C80.9848 24.7531 81.0068 24.6956 81.0273 24.634ZM84.2655 18.8232L81.2926 22.494C81.3279 22.0873 81.3698 21.7912 81.4183 21.6053C81.5672 21.047 81.8618 20.6407 82.3023 20.3864C82.5875 20.2934 82.9224 20.0327 83.307 19.6048C83.6853 19.1909 84.0045 18.9303 84.2655 18.8232Z" fill="#ED9870"/>
<path fill-rule="evenodd" clip-rule="evenodd" d="M73.8915 40.7911C73.5174 41.1164 73.1528 41.4017 72.7983 41.6472C72.7928 41.6507 72.7883 41.6537 72.7843 41.6565C72.7781 41.6565 72.775 41.6595 72.775 41.6658C72.6075 41.7341 72.4401 41.796 72.2725 41.8519C71.9995 41.9326 71.7174 41.9883 71.4258 42.0194C71.4196 42.0132 71.4133 42.0132 71.4071 42.0194C71.3763 42.0194 71.3451 42.0194 71.3141 42.0194C70.3713 42.0751 69.6268 41.7742 69.081 41.1167C69.019 41.0113 68.9601 40.909 68.9042 40.8098C68.8492 40.7139 68.7965 40.6193 68.746 40.526L68.3692 39.6701L68.2667 39.3584C68.2333 39.2563 68.2038 39.154 68.1785 39.0513H68.1832C68.2491 39.0513 68.3127 39.0513 68.3738 39.0513C70.5449 39.0513 72.7036 37.8478 74.8499 35.441C75.4889 34.7154 76.1836 33.816 76.9342 32.7428C77.6412 31.7257 78.0383 31.1704 78.1253 31.0775C78.2751 30.9215 78.4599 30.7215 78.6788 30.4772C79.1616 29.9445 79.8113 29.2019 80.6282 28.2488C80.9371 27.8904 81.2272 27.5602 81.4982 27.2579L81.5028 27.2532C81.6057 27.3119 81.7065 27.3598 81.8052 27.3974L82.0983 27.4765C82.3639 27.5192 82.6149 27.482 82.8519 27.3649C82.9922 27.2353 83.1736 27.0585 83.3964 26.8345L83.4896 26.9229C83.2783 27.1661 83.0752 27.4189 82.88 27.6813C82.88 27.706 82.8769 27.7309 82.8706 27.7556V27.7604L82.6472 28.3326C82.6424 28.3381 82.6377 28.3442 82.6333 28.3512C82.6013 28.4029 82.5657 28.4556 82.5263 28.5092C82.1928 28.8656 81.9012 29.196 81.6518 29.5003C81.4918 29.6955 81.349 29.8803 81.2236 30.054C80.8949 30.4943 80.5412 30.9285 80.163 31.3566L73.8915 40.7911ZM120.443 37.1996C120.456 37.2122 120.468 37.2277 120.48 37.2462C120.853 37.6309 121.336 37.8448 121.932 37.8882C121.305 38.5457 120.859 39.0017 120.592 39.2559C120.319 39.5104 120.006 39.8546 119.652 40.2889C119.46 40.5182 119.187 40.8346 118.833 41.2379C118.412 41.7093 117.773 42.3948 116.917 43.2941C116.054 44.1935 115.353 44.9317 114.814 45.5087C113.952 46.4826 112.863 46.9509 111.548 46.9136C110.276 46.864 109.16 46.4577 108.198 45.6948C107.174 44.8759 106.136 43.9919 105.081 43.043C104.854 42.8417 104.618 42.6371 104.374 42.4289C103.697 41.8494 102.959 41.2446 102.159 40.6146C101.378 40.0065 100.72 39.3181 100.187 38.5489C99.647 37.786 99.3712 36.9299 99.3587 35.9809C99.3647 35.8756 99.3712 35.7731 99.3774 35.6739L99.8331 34.2038C99.8392 34.1851 99.8456 34.1728 99.8519 34.1666C99.8642 34.1419 99.8765 34.1201 99.889 34.1016C99.9015 34.0767 99.9138 34.0582 99.926 34.0456C99.9323 34.0271 99.9416 34.0086 99.9541 33.9898C99.9727 33.9525 99.9944 33.9217 100.019 33.8968L100.205 33.6364C100.224 33.6115 100.242 33.5898 100.261 33.5712C100.271 33.5588 100.28 33.5464 100.289 33.5339C100.357 33.6022 100.425 33.6735 100.494 33.748L101.806 35.3577C102.333 36.0029 102.78 36.5238 103.146 36.9208C103.99 37.8263 104.832 38.7164 105.672 39.5913C106.289 40.232 106.905 40.8648 107.519 41.4893C108.97 42.9594 110.118 43.9023 110.961 44.3179C111.805 44.7335 113.539 43.6915 116.163 41.1916C118.787 38.6852 120.214 37.3546 120.443 37.1996Z" fill="#F5E3D5"/>
<path fill-rule="evenodd" clip-rule="evenodd" d="M92.538 16.2922C92.5319 16.3975 92.5319 16.5 92.538 16.5992C92.5404 16.6286 92.5435 16.658 92.5473 16.6876C92.5522 16.7323 92.5585 16.7774 92.5658 16.8224H92.5565C91.7067 16.8782 90.7794 17.1047 89.7744 17.5017C88.983 17.8126 88.15 18.0188 87.2761 18.1206C86.8411 18.1732 86.3958 18.1996 85.9409 18.1996C85.5237 18.1996 85.139 18.1935 84.7871 18.1809C84.6319 18.1761 84.483 18.1699 84.3403 18.1623C84.3585 17.7554 84.3616 17.3149 84.3499 16.8412C84.9825 17.0148 85.6803 17.0148 86.4435 16.8412C86.8466 16.748 87.5197 16.5216 88.4625 16.1619C89.3246 15.827 90.0039 15.6222 90.5003 15.5478C91.257 15.4298 91.9579 15.5013 92.6032 15.7617L92.5938 15.8082C92.586 15.8547 92.5799 15.9012 92.5752 15.9478C92.5658 16.0037 92.5581 16.0595 92.5519 16.1153L92.538 16.2922ZM96.0458 24.1822L96.0642 24.4056C96.0642 24.4305 96.0642 24.4553 96.0642 24.4802C96.0769 24.5732 96.0861 24.6693 96.0924 24.7686C96.0057 25.0525 95.8382 25.3426 95.5897 25.6386C95.1284 26.1897 94.3872 26.762 93.3659 27.3553C91.7967 28.2671 90.8786 28.6796 90.6117 28.5927C90.3534 28.5026 90.0806 28.253 89.7931 27.8438L89.7651 27.8018C90.2601 27.5825 90.7193 27.3453 91.1423 27.09L92.8821 25.7503C92.9519 25.6823 93.02 25.6125 93.0868 25.541C93.0949 25.53 93.1028 25.5191 93.11 25.5083C93.1215 25.4981 93.1322 25.4871 93.1427 25.4757C94.1786 24.3219 94.5973 23.0784 94.3989 21.7447C95.0377 21.7136 95.5155 21.4221 95.8318 20.87H95.9714C96.0273 21.2795 96.052 21.7788 96.0459 22.3681C96.0429 22.5361 96.038 22.7471 96.0319 23.0009L96.0274 23.2334C96.0285 23.317 96.0285 23.4039 96.0274 23.494C96.0257 23.5249 96.0242 23.5559 96.0226 23.5871C96.0213 23.6801 96.0197 23.7762 96.0178 23.8755L96.0458 24.1822ZM127.612 35.5989H128.091L129.255 34.5707C129.422 34.4758 129.577 34.3937 129.72 34.324C129.869 34.4171 130.008 34.5442 130.138 34.7057C128.898 35.9896 127.666 36.9292 126.444 37.5249C124.832 38.3002 123.327 38.4213 121.932 37.8878C121.336 37.8443 120.852 37.6305 120.48 37.2457C120.468 37.2272 120.455 37.2117 120.443 37.1992C120.201 36.9262 120.046 36.6069 119.978 36.2409C120.033 36.2348 120.096 36.2315 120.164 36.2315C120.281 36.2315 120.71 36.427 121.448 36.8176C122.192 37.2084 122.908 37.4039 123.597 37.4039C124.205 37.4039 124.915 37.1899 125.728 36.7619C126.098 36.5716 126.726 36.1839 127.612 35.5989ZM122.769 35.5989H124.165C123.858 35.7231 123.604 35.785 123.402 35.785C123.172 35.785 122.995 35.7539 122.871 35.6919L122.769 35.5989Z" fill="#F18D69"/>
<path fill-rule="evenodd" clip-rule="evenodd" d="M72.7847 41.656C72.7888 41.6532 72.7933 41.6502 72.7987 41.6467C73.1532 41.4012 73.5179 41.1158 73.892 40.7906L73.6594 41.135C73.48 41.2683 73.2972 41.3861 73.1103 41.4886L72.9569 41.5723C72.8995 41.6018 72.8421 41.6298 72.7847 41.656ZM79.8099 25.8199C80.0828 26.0556 80.5481 26.4712 81.2056 27.0665C81.2546 27.1022 81.3027 27.1363 81.3498 27.169L81.3684 27.1783C81.4138 27.2058 81.4588 27.2305 81.5033 27.2527L81.4987 27.2574C81.2277 27.5597 80.9377 27.8899 80.6287 28.2483C79.8118 29.2014 79.162 29.944 78.6792 30.4767C78.4602 30.721 78.2754 30.921 78.1257 31.077C78.0388 31.17 77.6417 31.7253 76.9346 32.7423C76.184 33.8156 75.4893 34.715 74.8503 35.4405C72.7041 37.8473 70.5454 39.0508 68.3743 39.0508C68.3131 39.0508 68.2496 39.0508 68.1836 39.0508H68.1789C68.158 38.9625 68.1392 38.874 68.1232 38.7856L68.058 38.3529C67.934 37.2426 68.2193 36.3432 68.9141 35.6546C70.6136 33.9983 71.8978 32.7641 72.7662 31.9514C74.2674 30.5496 75.6228 29.399 76.8324 28.4995C77.3969 27.997 77.9552 27.4729 78.5072 26.9269C79.0531 26.3751 79.4873 26.006 79.8099 25.8199ZM89.9521 29.9974C91.0066 29.6439 92.0333 29.0887 93.0319 28.332C94.0306 27.5689 95.11 26.5888 96.2701 25.3917C96.5925 25.1685 96.7446 24.9079 96.726 24.6102C96.7073 24.2938 96.4809 24.1512 96.0467 24.182L96.0187 23.8751C96.5709 23.8502 97.0018 24.1262 97.3121 24.7032C97.4859 25.032 97.6874 25.5561 97.9169 26.2755C97.4455 27.4417 96.515 28.5551 95.1255 29.6159C94.6664 29.9634 94.0431 30.3882 93.2553 30.8907C92.2318 31.5483 91.6146 31.9482 91.4036 32.0908C91.3292 32.153 91.2609 32.2056 91.1989 32.2492C90.9509 32.3856 90.743 32.336 90.5754 32.1003C90.5568 32.0692 90.5289 32.0104 90.4918 31.9235C90.4236 31.7559 90.3243 31.4861 90.194 31.1139L89.9521 29.9974ZM119.979 36.2409C120.047 36.6069 120.202 36.9262 120.444 37.1991C120.214 37.3542 118.787 38.6847 116.163 41.1908C113.54 43.6906 111.806 44.7326 110.962 44.317C110.119 43.9014 108.971 42.9586 107.519 41.4885C106.905 40.864 106.29 40.2312 105.672 39.5904C104.833 38.7156 103.991 37.8255 103.146 36.9199C102.78 36.5231 102.334 36.002 101.806 35.3569L100.494 33.7471C100.426 33.6726 100.358 33.6014 100.29 33.533C100.607 33.1273 100.992 32.78 101.443 32.491C102.064 32.0815 102.715 31.8459 103.397 31.7839C104.135 31.7155 104.815 31.852 105.435 32.1933C105.536 32.265 105.637 32.3408 105.738 32.4212C106.253 32.8297 106.76 33.3431 107.259 33.9612C107.507 34.2836 107.997 34.9721 108.729 36.0267C109.939 37.8131 111.114 38.9761 112.256 39.5159C113.174 38.7715 113.884 38.2225 114.386 37.8691C115.199 37.2859 115.813 36.8487 116.229 36.557C116.638 36.2655 117.342 35.763 118.341 35.0498C119.333 34.3365 120.416 33.8526 121.588 33.5983C121.03 33.7595 120.602 34.0667 120.304 34.5196C120.025 34.9413 119.904 35.4097 119.941 35.9245C119.947 36.0361 119.96 36.1416 119.979 36.2409ZM88.1748 27.1783C87.9826 27.569 88.0198 28.0715 88.2865 28.6855C88.5782 29.343 88.7456 29.7091 88.7889 29.7836L88.4261 30.4627C88.3704 30.5311 88.2587 30.7482 88.0913 31.114C88.085 31.1203 88.0818 31.1265 88.0818 31.1327C87.9516 31.4179 87.812 31.5823 87.6632 31.6257C87.6136 31.5452 87.57 31.4614 87.5329 31.3746C87.4151 30.7482 87.2971 30.1961 87.1791 29.7184C87.1791 29.526 87.1917 29.3277 87.2164 29.123C87.2537 28.8189 87.3219 28.4933 87.4211 28.146L87.9606 26.6293L88.1748 27.1783Z" fill="#FBF1E9"/>
<path fill-rule="evenodd" clip-rule="evenodd" d="M96.2695 25.3918C95.1094 26.5891 94.03 27.5691 93.0313 28.3322C92.0327 29.0888 91.006 29.644 89.9515 29.9976L88.7883 29.7837C88.745 29.7092 88.5775 29.3432 88.2859 28.6856C88.0193 28.0715 87.982 27.5691 88.1742 27.1784C88.503 27.6063 89.0334 27.8141 89.7653 27.8018L89.7933 27.8437C90.0808 28.2529 90.3536 28.5025 90.612 28.5927C90.8788 28.6795 91.7969 28.2671 93.3661 27.3553C94.3875 26.762 95.1285 26.1897 95.59 25.6385C95.8384 25.3425 96.0059 25.0525 96.0927 24.7686L96.2695 25.3918Z" fill="#D67958"/>
<path fill-rule="evenodd" clip-rule="evenodd" d="M33.071 69.3975C32.7618 69.9339 32.2313 70.2023 31.4799 70.2023C31.0563 70.2023 30.6964 70.0905 30.4006 69.8673C30.2665 69.7656 30.1454 69.6414 30.0377 69.4951C29.7584 69.1229 29.6189 68.7168 29.6189 68.2763C29.6189 67.718 29.8113 67.2714 30.196 66.9363C30.5494 66.6387 30.9743 66.4899 31.4707 66.4899C31.9793 66.4899 32.4073 66.6417 32.7547 66.9458C33.1393 67.2807 33.3315 67.7367 33.3315 68.3136C33.3315 68.4377 33.3254 68.5491 33.313 68.6484C33.2819 68.884 33.22 69.0981 33.127 69.2905C33.1087 69.3274 33.0901 69.3631 33.071 69.3975ZM41.4451 67.9321C41.5073 68.1257 41.5383 68.3398 41.5383 68.574C41.5383 68.698 41.5321 68.8097 41.5197 68.9089C41.4887 69.1447 41.4267 69.3586 41.3336 69.5509C41.0359 70.1589 40.487 70.4626 39.6867 70.4626C39.0787 70.4626 38.5979 70.2239 38.2445 69.7463C37.9715 69.3765 37.8319 68.9825 37.8258 68.5646C37.8258 68.5556 37.8258 68.5464 37.8258 68.5368C37.8258 67.9785 38.018 67.5317 38.4026 67.1969C38.7563 66.8993 39.1811 66.7502 39.6772 66.7502C40.1859 66.7502 40.6139 66.9022 40.9614 67.2061C41.1898 67.4053 41.3511 67.6471 41.4451 67.9321ZM87.5689 66.5084C86.6384 66.4279 85.683 66.006 84.703 65.2431C83.6298 64.2754 82.8265 63.5682 82.293 63.1216C81.4805 62.4393 81.158 61.4374 81.3255 60.1163C81.4308 59.3408 81.7689 58.2646 82.3397 56.8875C82.8979 55.3679 83.2391 53.6713 83.3631 51.798C83.4687 50.2659 83.4284 48.523 83.2424 46.569C83.2858 45.9177 83.2423 45.1235 83.112 44.1869C83.1617 43.9761 83.2113 43.762 83.2609 43.5451C83.9495 40.4187 84.4673 38.1113 84.8148 36.6226C85.4227 34.0359 86.2073 31.7221 87.1689 29.6815C87.1689 29.6938 87.1719 29.7062 87.1781 29.7186C87.2961 30.1963 87.414 30.7484 87.5319 31.3748C87.569 31.4617 87.6126 31.5455 87.6622 31.6259C87.8111 31.5825 87.9506 31.4182 88.0808 31.1329C88.0808 31.1268 88.084 31.1206 88.0903 31.1143C88.2577 30.7484 88.3694 30.5312 88.4252 30.463L88.788 29.7838L89.9511 29.9978L90.1931 31.1143C90.3233 31.4864 90.4226 31.7563 90.4908 31.9238C90.5279 32.0107 90.5559 32.0696 90.5744 32.1006C90.742 32.3363 90.9499 32.3859 91.198 32.2495C91.26 32.2061 91.3282 32.1533 91.4026 32.0912C91.6136 31.9485 92.2309 31.5485 93.2544 30.8911C94.0422 30.3886 94.6654 29.9638 95.1245 29.6162C96.5141 28.5556 97.4445 27.4421 97.9159 26.2759C98.0587 26.4249 98.2323 26.583 98.437 26.7506C99.1566 27.3585 100.242 28.1214 101.694 29.0394C102.128 29.3185 102.531 29.5884 102.903 29.8488C101.7 30.252 100.642 31.1049 99.7303 32.4075C98.3471 34.3864 97.6555 36.9854 97.6555 40.2047C97.6555 41.0483 97.3949 42.0345 96.8738 43.1634C96.5637 43.8397 95.993 44.9778 95.1617 46.5783C93.4931 50.0582 92.6586 53.8915 92.6586 58.0785C92.6586 58.0847 92.7921 59.8402 93.0588 63.3448C93.1332 64.0456 93.2076 64.6785 93.2822 65.243C93.214 65.2553 93.1458 65.2677 93.0775 65.2802C92.0478 65.5036 91.2073 65.7082 90.5559 65.8943C89.9541 66.1734 89.4735 66.3595 89.1137 66.4525C88.5614 66.5954 88.0465 66.614 87.5689 66.5084ZM29.4421 80.5907C29.7337 80.9098 29.8795 81.3207 29.8795 81.8236C29.8795 81.9664 29.8733 82.0779 29.8609 82.1587C29.8361 82.3943 29.7803 82.6113 29.6934 82.81C29.5584 83.0945 29.3644 83.3132 29.1118 83.4659C29.0985 83.4731 29.0847 83.4809 29.0699 83.4891C28.7969 83.6379 28.4589 83.7125 28.0558 83.7125C27.4632 83.7125 26.9995 83.4969 26.6646 83.0659C26.655 83.053 26.6455 83.0407 26.6368 83.0287C26.6188 83.006 26.602 82.9827 26.5855 82.9589C26.331 82.5929 26.2041 82.2052 26.2041 81.7958C26.2041 81.225 26.3963 80.7723 26.7809 80.4374C26.8953 80.3376 27.0178 80.2538 27.1486 80.1861C27.4108 80.0559 27.7071 79.9907 28.0371 79.9907C28.5395 79.9907 28.9613 80.1457 29.3025 80.4559C29.3519 80.4987 29.3984 80.5438 29.4421 80.5907ZM33.5781 88.9787C33.5776 88.9993 33.5759 89.0179 33.5735 89.0344C33.5487 89.2702 33.4929 89.4841 33.406 89.6765C33.1207 90.2842 32.5748 90.5884 31.7682 90.5884C31.1479 90.5884 30.6578 90.3496 30.2981 89.8718C30.0189 89.4935 29.8794 89.0904 29.8794 88.6623C29.8794 88.104 30.0717 87.6575 30.4562 87.3225C30.8099 87.0246 31.2347 86.8759 31.7311 86.8759C32.2395 86.8759 32.6677 87.0277 33.015 87.3319C33.1704 87.467 33.2945 87.6221 33.3872 87.797C33.35 87.9227 33.3314 88.0592 33.3314 88.2064C33.3315 88.4853 33.4136 88.7425 33.5781 88.9787ZM33.3176 83.7914C33.3268 83.6971 33.3315 83.5962 33.3315 83.489C33.3315 83.0921 33.1951 82.7664 32.9221 82.5121C32.7383 82.3417 32.529 82.2302 32.294 82.1771C32.2909 82.1366 32.2894 82.0962 32.2894 82.0561C32.2894 81.6947 32.3592 81.3861 32.4987 81.1304C32.5901 80.9596 32.7128 80.8122 32.8662 80.6885C33.0816 80.5163 33.3296 80.406 33.6106 80.3581C33.7767 80.3291 33.9532 80.3213 34.1408 80.3348C34.4516 80.3583 34.7352 80.4357 34.9922 80.5674C35.1462 80.6438 35.2905 80.7399 35.4249 80.8561C35.48 80.9039 35.531 80.9535 35.5785 81.0049C35.78 81.2226 35.9102 81.4675 35.9692 81.7399C35.991 81.8508 36.0017 81.9656 36.0017 82.0842C36.0017 82.2268 35.9956 82.3386 35.9832 82.4191C35.9585 82.6609 35.8994 82.8781 35.8064 83.0704C35.5211 83.6721 34.969 83.973 34.1503 83.973C33.8373 83.973 33.5598 83.9124 33.3176 83.7914ZM36.593 80.7117C36.7304 80.7583 36.8808 80.7815 37.0442 80.7815C37.3893 80.7815 37.6701 80.6993 37.8862 80.5349C38.0414 80.4194 38.1638 80.2627 38.2539 80.0651C38.3122 79.7606 38.3511 79.5683 38.3702 79.4882H38.3747C38.8711 79.4882 39.2898 79.6263 39.6308 79.9023C39.641 79.9107 39.6503 79.9183 39.6589 79.9256C39.8388 80.0793 39.9767 80.2593 40.0728 80.4652C40.1103 80.4846 40.1475 80.5048 40.1846 80.5256C40.2736 80.5816 40.359 80.6453 40.4405 80.7165C40.8251 81.0514 41.0173 81.5073 41.0173 82.0842C41.0173 82.2268 41.0111 82.3386 40.9987 82.4191C40.9914 82.489 40.9822 82.5571 40.9707 82.6238C40.9377 82.7848 40.8881 82.9336 40.8219 83.0703C40.5367 83.672 39.9845 83.9729 39.1656 83.9729C38.533 83.9729 38.0429 83.7277 37.6956 83.2378C37.6376 83.155 37.5864 83.0712 37.542 82.9865C37.2947 82.8667 37.0854 82.6868 36.914 82.447C36.7802 82.259 36.681 82.0622 36.6163 81.8561C36.5542 81.6579 36.5233 81.4516 36.5233 81.2373C36.5233 81.1603 36.5278 81.0859 36.5371 81.014C36.5466 80.908 36.5653 80.8073 36.593 80.7117ZM32.8663 73.2401C33.0028 73.4963 33.071 73.7959 33.071 74.138C33.071 74.2807 33.0648 74.3924 33.0524 74.4729C33.0277 74.715 32.9686 74.932 32.8756 75.1243C32.7963 75.2914 32.6971 75.4356 32.5779 75.5568C32.2637 75.8702 31.8108 76.0268 31.2194 76.0268C30.5804 76.0268 30.0904 75.788 29.7492 75.3103C29.673 75.2052 29.6078 75.0966 29.5538 74.9846C29.4236 74.7134 29.3584 74.4217 29.3584 74.1101C29.3584 73.5457 29.5507 73.099 29.9353 72.7703C30.289 72.4662 30.7139 72.3143 31.2099 72.3143C31.6737 72.3143 32.0706 72.4398 32.4009 72.6912C32.4322 72.717 32.4633 72.7434 32.4941 72.7703C32.6504 72.9064 32.7746 73.063 32.8663 73.2401ZM34.0247 72.2586C34.2922 72.1222 34.5915 72.0539 34.9226 72.0539C35.1445 72.0539 35.3505 72.0833 35.5414 72.1424C35.7066 72.1917 35.8602 72.2629 36.0019 72.3563C36.0735 72.4019 36.1418 72.4531 36.2067 72.5098C36.471 72.7401 36.6446 73.0269 36.7277 73.3705C36.7408 73.431 36.7516 73.493 36.7602 73.5565C36.7757 73.6594 36.7835 73.7664 36.7835 73.8777C36.7835 74.0204 36.7773 74.1319 36.7649 74.2126C36.74 74.4544 36.681 74.6716 36.5881 74.8638C36.3028 75.4656 35.7506 75.7663 34.9318 75.7663C34.2991 75.7663 33.809 75.5214 33.4618 75.0313C33.2012 74.659 33.071 74.2652 33.071 73.8496C33.071 73.6555 33.0942 73.4755 33.1407 73.3099C33.2267 72.9921 33.3956 72.7255 33.6479 72.5097C33.7655 72.4087 33.8911 72.3249 34.0247 72.2586ZM33.3035 96.5478C33.3223 96.6615 33.3315 96.781 33.3315 96.9061C33.3315 97.0301 33.3254 97.1418 33.313 97.241C33.2819 97.4767 33.22 97.6907 33.127 97.883C32.829 98.491 32.28 98.7948 31.4799 98.7948C30.872 98.7948 30.3913 98.556 30.0377 98.0784C29.7584 97.7001 29.6189 97.2967 29.6189 96.8688C29.6189 96.3106 29.8113 95.864 30.196 95.5289C30.5494 95.2313 30.9743 95.0823 31.4707 95.0823C31.8837 95.0823 32.2436 95.1831 32.5499 95.3846C32.5573 95.6832 32.6442 95.9418 32.8106 96.1618C32.9357 96.3337 33.1 96.4625 33.3035 96.5478Z" fill="#6ECC00"/>
<path fill-rule="evenodd" clip-rule="evenodd" d="M82.6326 28.352C82.6372 28.3447 82.6422 28.3382 82.6472 28.3325L82.6375 28.352H82.6326Z" fill="#D1E7F4"/>
<path fill-rule="evenodd" clip-rule="evenodd" d="M19.4765 7.44387L23.7289 11.1657L26.3063 8.6627C26.3809 8.58821 26.4706 8.59748 26.5761 8.69053L27.0786 9.14646C27.1841 9.24566 27.1995 9.33255 27.1252 9.40704L23.7289 12.7009C23.6483 12.7752 23.5551 12.7629 23.4498 12.6636L23.2264 12.4588C23.2015 12.4465 23.1768 12.431 23.1519 12.4123L18.6484 8.46734C18.543 8.37429 18.543 8.25948 18.6484 8.123L19.1601 7.49971C19.2657 7.36938 19.3711 7.35092 19.4765 7.44387ZM85.9448 74.0406C85.9673 73.5613 85.9811 73.1566 85.9869 72.8263C85.9992 71.536 85.8535 70.4567 85.5494 69.5882C85.357 69.0425 84.3367 67.8484 82.4883 66.0061C82.2835 65.8013 82.0943 65.6091 81.9204 65.4292C82.0136 64.7034 82.1315 63.9777 82.2742 63.2519C82.2804 63.2085 82.2866 63.165 82.2927 63.1217C82.8263 63.5683 83.6295 64.2755 84.7027 65.2432C85.6827 66.0061 86.638 66.428 87.5686 66.5085L90.062 68.3321C90.2691 70.512 90.4723 72.6924 90.6716 74.8732L85.9448 74.0406ZM101.107 76.7109L93.8727 75.4361C93.9996 74.76 94.0631 73.741 94.0631 72.3795C94.0631 70.9096 93.8121 68.9369 93.3095 66.462C93.2226 66.0464 93.1453 65.6526 93.077 65.2804C93.1453 65.2679 93.2134 65.2555 93.2817 65.2432C94.1439 65.0571 95.1365 64.8616 96.2592 64.6568C96.2717 64.6568 96.284 64.6538 96.2962 64.6476C96.8732 64.5111 97.4191 64.3623 97.9341 64.2011C98.2132 64.108 98.4829 64.0117 98.7435 63.9125C98.7683 63.9002 98.7931 63.8909 98.818 63.8847C99.8973 63.4567 100.806 62.9481 101.544 62.3588C102.214 64.9206 102.282 67.594 101.749 70.3792C101.687 71.9176 101.473 74.0282 101.107 76.7109ZM101.535 113.515C101.203 113.809 100.936 114.045 100.735 114.222L99.1904 84.1219L100.098 83.9635C99.9029 85.6215 99.7834 86.9893 99.7393 88.0669C99.3733 89.4811 99.5781 91.1933 100.354 93.2029C100.564 93.755 100.896 94.5768 101.349 95.6686C101.715 96.6302 101.948 97.4738 102.047 98.1994C102.115 98.9563 102.137 99.8742 102.112 100.954V100.963C102.106 101.23 102.097 101.509 102.084 101.8V112.956L101.535 113.515ZM101.2 123.326L101.135 122.047C101.222 121.841 101.284 121.618 101.321 121.377C101.712 120.72 101.951 120.282 102.038 120.065C102.446 121.292 102.167 122.378 101.2 123.326ZM98.1574 124.703C97.9502 124.712 97.7393 124.707 97.5247 124.689C97.3447 124.671 97.016 124.686 96.5384 124.736C96.0049 124.785 95.6203 124.81 95.3846 124.81C94.4914 124.804 94.0728 124.472 94.1285 123.815C95.2563 123.859 96.1804 123.879 96.9013 123.875C97.4029 123.873 97.806 123.859 98.111 123.833L98.1574 124.703ZM94.2541 84.9871L96.101 84.6615L96.7896 98.1344C96.0712 95.5958 95.6897 94.2375 95.645 94.059C95.0366 91.6943 94.5094 89.2363 94.0631 86.6853L94.2541 84.9871ZM87.9454 86.0943L91.0672 85.5453L90.1507 93.7147C89.8129 92.2632 89.4422 90.846 89.0388 89.4626C88.6262 88.2113 88.2615 87.0886 87.9454 86.0943ZM96.8269 110.323C95.9646 110.869 94.7953 111.402 93.319 111.924L92.6399 111.905C92.5653 111.092 92.4814 110.069 92.3885 108.834C92.2883 107.492 92.1675 106.172 92.0257 104.875L93.2865 93.6078C93.4108 93.9592 93.5425 94.3081 93.682 94.6545C93.9425 95.3059 94.1099 95.9664 94.1846 96.6364C94.5194 99.5455 95.0653 102.424 95.822 105.271C96.2624 106.933 96.5974 108.617 96.8269 110.323Z" fill="#003151"/>
<path fill-rule="evenodd" clip-rule="evenodd" d="M81.9226 65.4291C82.0964 65.609 82.2855 65.8012 82.4905 66.006C84.3388 67.8483 85.3592 69.0424 85.5516 69.5881C85.8556 70.4566 86.0013 71.5359 85.9891 72.8262C85.9834 73.1565 85.9695 73.5612 85.9469 74.0405L81.9135 73.3287C81.5767 70.7072 81.5796 68.0741 81.9226 65.4291ZM93.8748 75.436L90.6738 74.8731C90.4745 72.6923 90.2712 70.512 90.0642 68.332L87.5707 66.5084C88.0483 66.6139 88.5632 66.5953 89.1152 66.4526C89.4751 66.3596 89.9556 66.1735 90.5574 65.8944C91.2088 65.7083 92.0493 65.5036 93.079 65.2803C93.1473 65.6524 93.2247 66.0463 93.3116 66.4619C93.8142 68.9368 94.0652 70.9095 94.0652 72.3794C94.0653 73.7409 94.0017 74.7599 93.8748 75.436ZM84.956 86.62L87.9474 86.0942C88.2635 87.0885 88.6281 88.2112 89.0407 89.4626C89.4442 90.846 89.8149 92.2632 90.1526 93.7147L89.171 102.475C88.4593 98.5401 87.4886 94.6739 86.2587 90.8768C85.8015 89.4641 85.3672 88.0452 84.956 86.62ZM91.5529 111.877H91.2413L92.0276 104.875C92.1694 106.172 92.2902 107.492 92.3904 108.834C92.4835 110.069 92.5672 111.092 92.6418 111.905L91.5529 111.877ZM97.6525 115.078C97.5777 115.054 97.5079 115.026 97.4431 114.994L96.9964 114.594C96.922 114.085 96.8848 113.375 96.8848 112.463C96.8909 111.446 96.8723 110.733 96.8291 110.323C96.5996 108.617 96.2646 106.933 95.8241 105.271C95.0673 102.424 94.5214 99.5454 94.1866 96.6363C94.112 95.9663 93.9446 95.3058 93.684 94.6544C93.5446 94.308 93.4129 93.9592 93.2885 93.6077L94.0654 86.6851C94.5116 89.2361 95.0389 91.6941 95.6473 94.0588C95.6919 94.2373 96.0735 95.5956 96.7918 98.1342L97.6525 115.078Z" fill="#00558C"/>
<path fill-rule="evenodd" clip-rule="evenodd" d="M101.135 122.047L100.735 114.222C100.936 114.045 101.203 113.809 101.535 113.514C101.672 114.42 101.78 115.512 101.861 116.79C101.905 117.515 101.963 118.607 102.038 120.065C101.951 120.282 101.712 120.719 101.321 121.377C101.284 121.617 101.222 121.841 101.135 122.047ZM32.3918 80.1533C32.5951 80.2244 32.8215 80.2603 33.071 80.2603C33.1451 80.2603 33.2164 80.2572 33.2851 80.251C33.3704 80.2874 33.4792 80.3234 33.6107 80.3578C33.3296 80.4057 33.0817 80.516 32.8664 80.6882C32.536 80.5947 32.3436 80.4985 32.2896 80.3998V80.3346C32.2896 80.2706 32.3235 80.2103 32.3918 80.1533ZM40.1846 80.5254C40.1475 80.5045 40.1103 80.4844 40.0728 80.465C39.9767 80.2591 39.8387 80.0791 39.6588 79.9254C39.6503 79.9181 39.641 79.9105 39.6308 79.9021L39.6356 79.8789C40.1473 80.0026 40.4032 80.1422 40.4032 80.2976V80.3347C40.3829 80.4014 40.3099 80.465 40.1846 80.5254ZM34.9925 80.5672C35.4008 80.5921 35.8459 80.6044 36.3277 80.6044C36.3412 80.6044 36.3551 80.6044 36.3696 80.6044C36.4393 80.648 36.5137 80.6837 36.593 80.7115C36.5654 80.8071 36.5467 80.9078 36.5371 81.0139C36.4673 81.0139 36.3975 81.0139 36.3277 81.0139C36.0689 81.0139 35.8192 81.0108 35.5787 81.0046C35.5312 80.9532 35.4803 80.9036 35.4252 80.8558C35.2906 80.7397 35.1464 80.6436 34.9925 80.5672ZM98.1112 123.833C97.8061 123.858 97.4031 123.872 96.9014 123.875C96.1806 123.878 95.2566 123.858 94.1287 123.814C94.0494 123.666 93.9919 123.514 93.9566 123.358C93.9118 123.146 93.907 122.925 93.9426 122.698C94.4761 122.661 95.1677 122.627 96.0175 122.596C96.7993 122.563 97.4725 122.497 98.0367 122.395L98.1112 123.833ZM97.6507 115.077L97.739 116.79C97.6963 116.79 97.6528 116.79 97.6088 116.79C97.1436 116.79 96.7403 116.758 96.3992 116.696L95.8315 118.548C95.4284 118.573 94.9136 118.638 94.287 118.743C93.4682 118.88 92.9565 118.961 92.7516 118.985C92.3876 119.192 92.014 119.38 91.6305 119.548L90.3557 119.781L90.4675 118.762C91.226 118.48 91.944 118.105 92.6213 117.636C93.2294 117.221 93.7348 116.774 94.1381 116.296C94.4793 115.893 94.6499 115.602 94.6499 115.422C94.6499 115.006 94.6003 114.668 94.501 114.408C94.3522 114.035 94.0762 113.704 93.6729 113.412C93.586 113.35 93.2603 113.328 92.6958 113.347C91.9323 113.376 91.3912 113.386 91.0721 113.379L91.207 112.151C91.3197 112.051 91.4346 111.959 91.5512 111.877L92.64 111.905L93.3192 111.923C94.7955 111.402 95.9649 110.869 96.8271 110.323C96.8705 110.732 96.889 111.446 96.8829 112.463C96.8829 113.375 96.9201 114.085 96.9945 114.594L97.4411 114.994C97.5061 115.026 97.5759 115.054 97.6507 115.077ZM87.2665 119.399L87.1595 120.362L85.7871 120.614C84.9653 120.58 84.145 120.471 83.3261 120.288C83.3135 120.251 83.3043 120.214 83.2981 120.176C83.2485 119.922 83.2639 119.674 83.3445 119.432C84.2812 119.42 85.4071 119.413 86.7223 119.413C86.9054 119.413 87.0871 119.409 87.2665 119.399Z" fill="#BB355A"/>
<path fill-rule="evenodd" clip-rule="evenodd" d="M93.9437 122.698C93.9626 122.559 93.9965 122.416 94.0459 122.27L97.9912 121.554L98.0377 122.396C97.4734 122.497 96.8002 122.564 96.0185 122.596C95.1686 122.627 94.477 122.661 93.9437 122.698ZM95.8324 118.548L96.4001 116.697C96.7413 116.759 97.1445 116.79 97.6097 116.79C97.6538 116.79 97.6972 116.79 97.7399 116.79L97.8236 118.418L95.7814 118.79L95.8324 118.548ZM90.4684 118.762L91.0731 113.38C91.3922 113.386 91.9334 113.376 92.6968 113.347C93.2613 113.329 93.5869 113.35 93.6739 113.412C94.0772 113.704 94.3532 114.036 94.502 114.408C94.6013 114.668 94.6509 115.007 94.6509 115.422C94.6509 115.602 94.4803 115.894 94.1391 116.297C93.7358 116.774 93.2305 117.221 92.6223 117.636C91.9449 118.105 91.2269 118.481 90.4684 118.762ZM83.406 119.279L87.365 118.53L87.2675 119.4C87.088 119.409 86.9063 119.414 86.7232 119.414C85.408 119.414 84.2821 119.42 83.3455 119.432C83.3625 119.381 83.3828 119.33 83.406 119.279Z" fill="#FF5A72"/>
<path fill-rule="evenodd" clip-rule="evenodd" d="M100.735 114.222L101.135 122.047L101.201 123.326L101.27 124.643L101.294 125.117C101.312 125.545 101.176 125.917 100.884 126.234C100.599 126.55 100.242 126.721 99.8142 126.745C99.3924 126.764 99.0201 126.63 98.6976 126.345C98.3811 126.054 98.2106 125.697 98.1858 125.275L98.1579 124.703L98.1114 123.833L98.0369 122.396L97.9904 121.554L94.0451 122.27L90.9654 122.833L89.9929 123.01L86.8015 123.591L72.7746 126.141L73.0072 130.514C73.0258 130.942 72.8892 131.314 72.5978 131.63C72.3125 131.947 71.9557 132.118 71.5278 132.142C71.106 132.161 70.7338 132.027 70.4112 131.742C70.0948 131.451 69.9242 131.094 69.8994 130.672L69.4528 121.921L69.2899 118.795L67.7967 89.6301L70.8765 89.0906L72.37 118.209L72.5328 121.34L72.6164 123.015L82.1352 121.279L83.3681 121.056C83.3489 121.014 83.3349 120.966 83.3264 120.912C83.3325 120.614 83.3325 120.406 83.3264 120.288C84.1453 120.472 84.9656 120.58 85.7875 120.614L87.1599 120.363L90.356 119.781L91.6309 119.549C92.0143 119.38 92.3879 119.193 92.7519 118.986C92.9567 118.961 93.4686 118.88 94.2873 118.744C94.9139 118.638 95.4288 118.573 95.8318 118.548L95.7806 118.79L97.8229 118.418L97.7392 116.79L97.651 115.078L96.7902 98.1343L96.1016 84.6613L99.1909 84.1218L100.735 114.222ZM18.2628 117.548L18.0347 113.082L17.8719 109.956L16.4019 81.2515L19.5376 81.8049L20.9517 109.369L21.1146 112.5L21.1984 114.175L35.7418 111.523L38.9378 110.942L46.4049 109.579L45.2185 86.3035L48.3636 86.8572L49.8429 115.603L49.8756 116.278C49.8942 116.706 49.7576 117.078 49.4661 117.394C49.1809 117.711 48.824 117.882 48.3961 117.906C47.9743 117.925 47.6022 117.791 47.2796 117.506C46.9632 117.214 46.7925 116.858 46.7678 116.436L46.6932 115.05L46.5725 112.714L39.4544 114.012L38.575 114.17L35.3834 114.752L21.3565 117.301L21.5892 121.674C21.6077 122.102 21.4712 122.475 21.1797 122.791C20.8944 123.107 20.5377 123.278 20.1097 123.303C19.6878 123.321 19.3157 123.188 18.9932 122.903C18.6768 122.611 18.5061 122.255 18.4814 121.833L18.2628 117.548Z" fill="#666666"/>
<path fill-rule="evenodd" clip-rule="evenodd" d="M83.3963 26.8341L81.0281 24.6337L80.8234 24.443C80.4017 24.0459 80.3737 23.624 80.7397 23.1776L81.2932 22.4938L84.2662 18.823L84.294 18.7905C84.2949 18.7976 84.2949 18.8054 84.294 18.8138C84.8399 19.7442 85.1222 20.4948 85.1408 21.0653C85.1594 21.6299 85.5223 22.6037 86.2295 23.987C86.3974 24.2155 86.5555 24.4342 86.704 24.6431L84.8153 26.9738C84.4493 27.4204 84.0554 27.4484 83.6335 27.0575L83.4895 26.9227L83.3963 26.8341ZM117.749 74.0172C117.783 74.0437 117.815 74.0715 117.847 74.1007C118.331 74.504 118.492 74.9135 118.331 75.329C118.188 75.6886 117.863 75.9586 117.354 76.1385C116.851 76.3122 116.402 76.3184 116.005 76.1571C115.666 76.015 115.453 75.7668 115.367 75.4128C115.338 75.2858 115.324 75.1463 115.326 74.9941C115.226 74.3055 115.508 73.8713 116.172 73.6914C116.774 73.5411 117.3 73.6496 117.749 74.0172ZM121.397 73.3845C120.537 73.4457 119.335 73.6536 117.791 74.0078C118.048 73.2128 118.358 72.4404 118.722 71.691C118.908 71.3002 119.146 70.9405 119.438 70.6116C119.705 70.314 120.03 70.131 120.415 70.0627C120.57 70.0378 120.682 70.103 120.75 70.2582C121.079 71.0272 121.262 71.8399 121.299 72.6958C121.323 72.9294 121.356 73.1588 121.397 73.3845ZM126.57 79.3998C126.427 79.4743 126.265 79.5192 126.082 79.5347C125.412 78.1328 124.888 76.6783 124.509 75.1709C124.549 74.9971 124.611 74.836 124.695 74.6871C124.796 74.5074 124.929 74.3459 125.095 74.2032C125.405 73.9303 125.697 73.6325 125.97 73.3098C126.491 72.6276 127.108 72.0693 127.822 71.6351C127.964 71.5482 128.092 71.5607 128.203 71.6723C128.476 71.9453 128.637 72.2802 128.687 72.6772C128.737 73.1114 128.727 73.5424 128.659 73.9705C128.467 75.149 128.16 76.3029 127.738 77.4318C127.546 77.9405 127.319 78.4335 127.059 78.9112C126.935 79.1325 126.773 79.2953 126.57 79.3998ZM10.1725 80.1535L13.2338 80.6932L9.7818 111.486L17.8722 109.956L18.035 113.082L9.41882 114.715L8.92109 119.19L8.82336 120.084C8.77367 120.505 8.58144 120.853 8.24656 121.126C7.91168 121.392 7.52996 121.501 7.10204 121.451C6.68027 121.402 6.3329 121.209 6.05993 120.875C5.79586 120.543 5.6872 120.169 5.73432 119.753C5.73377 119.748 5.73377 119.744 5.73432 119.739L10.1725 80.1535ZM41.7669 85.6943L38.9382 110.942L35.7422 111.524L35.9468 109.69L21.1151 112.5L20.9522 109.369L36.3098 106.462L38.7011 85.1826L40.2923 85.4617C40.8144 85.5542 41.306 85.6317 41.7669 85.6943ZM61.4974 117.65L61.1998 120.325L68.6716 118.911L69.2902 118.795L69.4531 121.921L60.8369 123.554L60.2413 128.923C60.1917 129.345 59.9994 129.692 59.6645 129.965C59.3296 130.232 58.9481 130.34 58.52 130.29C58.0982 130.241 57.7509 130.049 57.478 129.714C57.2113 129.379 57.1027 129 57.1523 128.578L58.4409 117.115L61.572 89.1835L62.456 89.3417C63.2549 89.4832 63.9822 89.5888 64.6379 89.658L61.4974 117.65ZM35.3838 114.752L38.5753 114.17L38.4125 115.617C38.3629 116.039 38.1706 116.386 37.8357 116.659C37.5007 116.926 37.1191 117.035 36.6911 116.985C36.2693 116.935 35.922 116.743 35.649 116.408C35.3823 116.073 35.2738 115.695 35.3234 115.273L35.3838 114.752ZM86.8018 123.591L89.9933 123.01L89.8305 124.457C89.7809 124.878 89.5885 125.226 89.2536 125.499C88.9188 125.765 88.5372 125.874 88.1091 125.824C87.6873 125.775 87.3401 125.582 87.067 125.247C86.8002 124.913 86.6917 124.534 86.7414 124.112L86.8018 123.591ZM77.3155 120.432L72.533 121.34L72.3702 118.209L87.7277 115.301L89.1698 102.475L90.1515 93.7147L91.068 85.5453L94.2549 84.987L94.064 86.6851L93.2871 93.6077L92.0264 104.875L91.24 111.877L91.2075 112.151L91.0726 113.38L90.4679 118.762L90.3561 119.781L87.16 120.363L87.267 119.4L87.3645 118.529L83.4055 119.279L77.3155 120.432ZM121.709 75.4222C121.628 75.2173 121.696 75.022 121.913 74.8359C122.161 74.7242 122.425 74.7615 122.704 74.9477C122.94 75.0965 123.126 75.3042 123.262 75.571C123.238 75.8066 123.11 75.9494 122.881 75.999C122.67 76.0362 122.443 75.9958 122.202 75.8782C121.947 75.7602 121.783 75.6082 121.709 75.4222ZM129.208 120.325V120.335C129.202 120.335 129.196 120.338 129.189 120.344C129.183 120.344 129.177 120.341 129.171 120.335C128.452 119.863 127.695 119.398 126.901 118.939C126.583 118.844 126.282 118.698 125.998 118.502C125.613 118.328 125.256 118.146 124.928 117.958C124.672 117.81 124.434 117.658 124.211 117.502C124.701 115.704 125.092 114.27 125.384 113.198C125.384 113.173 125.381 113.149 125.375 113.124C125.375 113.118 125.378 113.114 125.384 113.114C125.39 113.108 125.396 113.105 125.403 113.105H125.412C125.418 113.111 125.421 113.117 125.421 113.123C125.514 114.346 125.53 115.133 125.468 115.487C125.238 116.969 125.164 117.801 125.244 117.981C125.869 118.309 126.474 118.643 127.059 118.981C127.806 119.412 128.519 119.851 129.199 120.297C129.205 120.303 129.208 120.31 129.208 120.316V120.325H129.208ZM120.48 118.911C120.478 118.915 120.475 118.918 120.471 118.92C118.901 119.69 117.528 120.204 116.349 120.465C115.118 120.805 114.173 121.086 113.516 121.307C113.625 120.192 113.845 119.018 114.176 117.785C114.367 117.775 114.573 117.768 114.795 117.767C115.601 117.754 116.172 117.717 116.507 117.655C117.14 117.537 117.683 117.283 118.135 116.892C118.179 116.303 118.076 115.645 117.828 114.919C117.828 114.913 117.577 114.296 117.075 113.068C116.831 112.261 116.788 111.436 116.944 110.593C117.244 109.907 117.576 109.15 117.94 108.323C118.349 108.502 119.004 108.726 119.903 108.992C120.79 109.253 121.442 109.476 121.857 109.662C121.938 110.599 121.876 111.675 121.671 112.891C121.615 113.238 121.401 114.296 121.029 116.064C120.787 116.845 120.66 117.463 120.648 117.915C120.634 118.253 120.578 118.585 120.48 118.911Z" fill="black"/>
<path fill-rule="evenodd" clip-rule="evenodd" d="M94.2545 12.8683C94.2623 12.8744 94.2701 12.8806 94.2777 12.887C94.4547 13.0325 94.6252 13.1906 94.7895 13.3615C95.0695 13.6617 95.3206 13.981 95.5431 14.3197L95.8456 14.8176C95.8749 14.8743 95.9044 14.9317 95.934 14.9898C95.4377 15.2689 94.836 15.5387 94.1289 15.7991C93.6327 15.9791 93.1022 16.1436 92.5378 16.2924L92.5516 16.1155C92.5578 16.0598 92.5656 16.004 92.5749 15.948C92.5796 15.9014 92.5858 15.855 92.5936 15.8084L92.6029 15.7619C91.9577 15.5015 91.2568 15.4301 90.5001 15.548C90.0037 15.6224 89.3243 15.8271 88.4622 16.1621C87.5193 16.5219 86.8463 16.7483 86.4432 16.8414C85.6801 17.015 84.9823 17.015 84.3496 16.8414C83.9526 16.6428 83.6176 16.3824 83.3446 16.0598C83.0532 15.7185 82.867 15.3432 82.7864 14.934C82.8627 14.8529 82.9419 14.7723 83.0237 14.692C83.0495 14.6669 83.0759 14.6422 83.1028 14.6176C84.0579 14.5866 86.0834 14.5711 89.1787 14.5711C89.9479 14.5711 90.8938 14.3354 92.0166 13.864C92.2586 13.7584 92.9843 13.4112 94.1938 12.8218C94.2127 12.8356 94.2327 12.8512 94.2545 12.8683ZM92.8913 17.9671C93.5363 17.5577 94.2777 17.2105 95.1151 16.9249C95.6351 16.7517 96.1082 16.6306 96.5341 16.5622H96.5388C96.5486 16.6053 96.558 16.6487 96.5668 16.6924L96.5806 16.7576C96.5859 16.7759 96.5904 16.7945 96.5946 16.8134L96.6504 17.0552C96.9792 18.6371 96.7527 19.9087 95.9711 20.8701H95.8315C96.3589 19.4186 96.2316 18.4571 95.4501 17.9857C95.3757 18.1037 95.3104 18.2928 95.2546 18.5533C95.2236 18.7024 95.1771 18.9285 95.115 19.2326C94.9724 19.7474 94.6932 19.9459 94.2776 19.8281C94.2668 19.8174 94.2558 19.8065 94.2451 19.7955C94.2348 19.7854 94.2241 19.7745 94.2126 19.7628C93.8078 19.3602 93.4759 18.9569 93.2169 18.5533C93.0919 18.3584 92.9835 18.163 92.8913 17.9671Z" fill="#132146"/>
<path fill-rule="evenodd" clip-rule="evenodd" d="M92.8919 17.9673L92.678 17.3951C92.6191 17.2039 92.5788 17.0131 92.557 16.8228H92.5663C92.5589 16.7778 92.5527 16.7327 92.5478 16.688C92.544 16.6584 92.5409 16.6289 92.5385 16.5995C92.5324 16.5003 92.5324 16.398 92.5385 16.2926C93.103 16.1437 93.6333 15.9793 94.1295 15.7993C94.8366 15.5389 95.4384 15.2691 95.9346 14.99C95.9671 15.0527 95.9997 15.1163 96.0322 15.1806L96.451 16.26C96.4828 16.3595 96.5122 16.4601 96.5394 16.5624H96.5348C96.1088 16.6309 95.6358 16.7519 95.1157 16.9251C94.2783 17.2107 93.537 17.5579 92.8919 17.9673ZM94.2551 12.8684C94.2333 12.8514 94.2133 12.8359 94.1946 12.8219C92.985 13.4113 92.2593 13.7585 92.0173 13.8641C90.8945 14.3355 89.9486 14.5712 89.1794 14.5712C86.0841 14.5712 84.0586 14.5867 83.1035 14.6177C83.665 14.0869 84.3505 13.5906 85.1598 13.129C86.2019 12.5396 87.2689 12.1148 88.3607 11.8543C90.7765 11.2903 92.7412 11.6285 94.2551 12.8684Z" fill="#17388E"/>
<path fill-rule="evenodd" clip-rule="evenodd" d="M81.9121 73.3285L85.9455 74.0403L90.6725 74.8729L93.8735 75.4358L101.108 76.7106L109.324 78.1575C110.788 78.4239 111.576 78.6412 111.687 78.8089C111.706 78.8458 111.706 78.8739 111.687 78.8923C111.632 78.9669 111.455 79.032 111.157 79.088L67.6481 86.7268H67.6386C66.9975 86.8449 66.1507 86.8604 65.0985 86.7734C64.3276 86.707 63.4468 86.586 62.456 86.4105L40.9713 82.6237C40.9827 82.5569 40.992 82.4888 40.9993 82.419C41.0116 82.3384 41.0178 82.2266 41.0178 82.0841C41.0178 81.5073 40.8256 81.0513 40.441 80.7164C40.3596 80.6452 40.2742 80.5814 40.1851 80.5255C40.3105 80.4652 40.3834 80.4015 40.4037 80.3347V80.2977C40.4037 80.1424 40.1478 80.0027 39.6362 79.879L40.4037 72.8818V72.8447C40.4037 72.6524 40.0131 72.485 39.2314 72.3423C38.4187 72.1994 37.451 72.1282 36.3282 72.1282C36.0936 72.1282 35.8673 72.1313 35.649 72.1375C35.1734 71.8803 34.454 71.6445 33.4902 71.4304C32.2105 71.1502 30.7528 70.9641 29.117 70.8722V70.0905L30.4011 69.8672C30.6969 70.0905 31.0568 70.2022 31.4804 70.2022C32.2319 70.2022 32.7624 69.9338 33.0715 69.3973L37.8264 68.5646C37.8325 68.9825 37.972 69.3765 38.2451 69.7463C38.5986 70.2239 39.0793 70.4626 39.6873 70.4626C40.4875 70.4626 41.0365 70.1589 41.3343 69.5509C41.4273 69.3586 41.4893 69.1447 41.5203 68.9089C41.5327 68.8097 41.5389 68.6979 41.5389 68.574C41.5389 68.3398 41.508 68.1257 41.4458 67.9321L44.5724 67.3829C44.9748 67.3099 45.4554 67.276 46.0146 67.2807L47.5126 70.2489C47.6756 70.5747 47.9097 70.7714 48.215 70.8395L48.2289 70.8721L48.4523 71.2815L48.7222 71.542L48.9268 71.6257L49.1036 71.756L49.1361 71.7608L46.0423 72.3516C45.6454 72.426 45.6204 72.4942 45.968 72.5563L64.0935 75.692C64.441 75.7477 64.8132 75.7386 65.2101 75.6641L79.5999 72.9192L81.9121 73.3285ZM17.6675 72.0956C17.1557 72.3576 16.8999 72.6412 16.8999 72.947C16.8999 73.0648 16.9371 73.1796 17.0115 73.2912V74.6589C16.9371 74.7644 16.8999 74.8761 16.8999 74.9939C16.8999 75.5831 17.8489 76.0856 19.7471 76.5012C21.6454 76.9167 23.9374 77.1245 26.6234 77.1245C28.7144 77.1245 30.5675 76.9989 32.1829 76.7478C32.0462 76.8146 31.9174 76.8998 31.7967 77.0037C31.4122 77.3324 31.2199 77.779 31.2199 78.3435C31.2199 78.79 31.3501 79.1933 31.6107 79.5531C31.815 79.8404 32.0754 80.0404 32.3923 80.1531C32.3239 80.2102 32.2899 80.2705 32.2899 80.3345V80.3998C32.344 80.4984 32.5364 80.5947 32.8668 80.6882C32.7134 80.812 32.5907 80.9593 32.4993 81.1301L29.4426 80.5904C29.3989 80.5435 29.3525 80.4984 29.303 80.4555C28.9618 80.1452 28.54 79.9903 28.0376 79.9903C27.7075 79.9903 27.4112 80.0555 27.149 80.1858L25.0787 79.8229C23.6332 79.5625 22.8422 79.3453 22.7059 79.1715V79.4321L2.91456 75.943C1.46924 75.6823 0.678335 75.4654 0.541849 75.2916C0.467451 75.1799 0.638013 75.087 1.05363 75.0125L17.6675 72.0956ZM35.1837 71.2722C35.4441 71.6193 35.8909 71.7931 36.5236 71.7931C37.2059 71.7931 37.6806 71.5419 37.9472 71.0395C38.0634 70.5937 38.1222 70.3999 38.1241 70.458C38.1233 70.0448 37.9557 69.7177 37.6216 69.4763C37.3239 69.2529 36.9579 69.1415 36.5237 69.1415C36.0956 69.1415 35.7329 69.253 35.4349 69.4763C35.1001 69.7183 34.9324 70.0469 34.9324 70.4624C34.9324 70.7852 35.0162 71.055 35.1837 71.2722ZM36.6166 81.856L35.9699 81.7396C35.9107 81.4672 35.7806 81.2223 35.5791 81.0046C35.8196 81.0107 36.0692 81.0139 36.3281 81.0139C36.3979 81.0139 36.4677 81.0139 36.5375 81.0139C36.5282 81.0857 36.5236 81.1602 36.5236 81.2372C36.5236 81.4515 36.5546 81.6578 36.6166 81.856ZM98.3908 78.4179L87.467 76.4919C87.256 76.4547 86.9863 76.467 86.6575 76.5292L74.2822 78.9388C73.9534 79.001 73.8946 79.0506 74.1054 79.0879L85.0292 81.0138C85.2401 81.0511 85.5099 81.0385 85.8388 80.9766L98.2141 78.5667C98.5429 78.5048 98.6018 78.4551 98.3908 78.4179Z" fill="#F8B504"/>
<path fill-rule="evenodd" clip-rule="evenodd" d="M13.2335 80.6934L10.1722 80.1536L2.91442 78.8743C1.14652 78.5516 0.355705 78.2975 0.541698 78.1113V75.292C0.678184 75.4658 1.46909 75.6827 2.91442 75.9434L22.7058 79.4325V81.9911C22.5197 82.1772 23.3106 82.4316 25.0785 82.7541L26.637 83.0287C26.6457 83.0407 26.6552 83.0531 26.6648 83.0658L19.5374 81.805L16.4017 81.2516L13.2335 80.6934ZM29.112 83.4659L30.7124 83.7451C30.7137 83.7558 30.7152 83.7666 30.7171 83.7776L29.0701 83.4892C29.0849 83.481 29.0988 83.4732 29.112 83.4659ZM33.2339 84.1917L41.7664 85.6945C41.3055 85.6319 40.814 85.5544 40.2917 85.4619L38.7004 85.1828L33.2246 84.2196C33.2279 84.2103 33.2311 84.201 33.2339 84.1917Z" fill="#E19003"/>
<path fill-rule="evenodd" clip-rule="evenodd" d="M79.5997 72.9191L65.2099 75.664C64.8131 75.7385 64.4408 75.7477 64.0933 75.6919L45.9678 72.5562C45.6202 72.4942 45.6452 72.4259 46.0421 72.3516L49.1359 71.7607L65.6843 74.5753C65.7216 74.5877 65.7557 74.6002 65.7868 74.6124C66.0783 74.6684 66.4349 74.6558 66.8569 74.5753L77.1386 72.7145C77.4674 72.671 77.6689 72.5065 77.7434 72.2213L77.7387 72.2027L80.1627 72.6214C80.5099 72.6772 80.4851 72.7454 80.0882 72.8262L79.5997 72.9191ZM96.1017 84.6613L94.2548 84.9869L91.068 85.5452L87.9462 86.0942L84.9548 86.6201L70.8768 89.0904L67.7969 89.6299L67.6387 89.6579C66.9066 89.7929 65.9063 89.7929 64.6379 89.6579C63.9822 89.5888 63.2548 89.4831 62.456 89.3416L61.572 89.1834L48.364 86.8574L45.219 86.3036L41.7669 85.6943L33.2344 84.1916C33.274 84.0711 33.3018 83.9378 33.3183 83.7915C33.5605 83.9125 33.838 83.9731 34.1512 83.9731C34.9699 83.9731 35.522 83.6722 35.8073 83.0705C35.9003 82.8782 35.9594 82.661 35.9841 82.4192C35.9965 82.3386 36.0026 82.2269 36.0026 82.0843C36.0026 81.9657 35.9919 81.8509 35.9701 81.7401L36.6169 81.8564C36.6816 82.0624 36.7809 82.2593 36.9146 82.4473C37.086 82.6871 37.2953 82.867 37.5426 82.9868C37.587 83.0715 37.6383 83.1553 37.6962 83.2381C38.0435 83.728 38.5336 83.9732 39.1663 83.9732C39.9852 83.9732 40.5373 83.6723 40.8226 83.0706C40.8887 82.9339 40.9383 82.7851 40.9713 82.6241L62.456 86.4109C63.4469 86.5864 64.3277 86.7075 65.0986 86.7738C66.1508 86.8608 66.9976 86.8454 67.6387 86.7272H67.6481L111.157 79.0884C111.455 79.0324 111.632 78.9673 111.687 78.8928V81.7401C111.768 81.8517 111.591 81.9448 111.157 82.0193L100.099 83.9637L99.1912 84.1221L96.1017 84.6613ZM26.6372 83.0285L25.0787 82.754C23.3108 82.4315 22.5199 82.1772 22.706 81.991V79.4324V79.1717C22.8423 79.3455 23.6332 79.5627 25.0787 79.8231L27.1491 80.186C27.0183 80.2537 26.8958 80.3374 26.7814 80.4373C26.3969 80.7722 26.2046 81.2249 26.2046 81.7956C26.2046 82.2051 26.3316 82.5928 26.5861 82.9587C26.6024 82.9825 26.6192 83.0057 26.6372 83.0285ZM30.7126 83.7448L29.1123 83.4657C29.3648 83.3131 29.5587 83.0944 29.6938 82.8098C29.7807 82.6111 29.8366 82.3942 29.8613 82.1585C29.8738 82.0777 29.8799 81.9662 29.8799 81.8235C29.8799 81.3205 29.7342 80.9097 29.4425 80.5906L32.4993 81.1303C32.3597 81.386 32.2899 81.6946 32.2899 82.0559C32.2899 82.0962 32.2914 82.1365 32.2945 82.177C32.2034 82.1556 32.1088 82.1432 32.0108 82.1398C31.651 82.1212 31.35 82.2235 31.1081 82.4469C30.8351 82.6949 30.6987 83.0517 30.6987 83.5169C30.6987 83.5954 30.7033 83.6714 30.7126 83.7448Z" fill="#CA7400"/>
<path fill-rule="evenodd" clip-rule="evenodd" d="M129.254 34.5711L128.091 35.5992H127.612H124.165H122.769H122.369L123.337 33.0778L127.142 23.187H142.095L129.599 34.2641L129.254 34.5711Z" fill="#E9EDF8"/>
<path fill-rule="evenodd" clip-rule="evenodd" d="M64.9114 71.305L64.8556 71.1887L72.1411 72.4541L72.1598 72.5097L72.0853 72.5285L71.8806 72.5377V72.5563L66.1953 73.617L65.786 73.5986L65.8604 73.7194L65.9162 73.8777L66.7908 73.8031L77.6123 71.8399H77.6867L77.738 72.2028L77.7427 72.2213C77.6682 72.5066 77.4667 72.671 77.1379 72.7145L66.8561 74.5754C66.4342 74.6559 66.0776 74.6685 65.7861 74.6125C65.755 74.6002 65.7209 74.5877 65.6836 74.5754L49.1352 71.7608L49.1027 71.756L48.9259 71.6257L48.7213 71.542L48.4514 71.2815L48.228 70.8721L48.7213 71.4397L49.1027 71.6257L65.6836 74.4729L65.7581 74.4543L65.8977 74.3147L65.9163 74.1751V73.9983L65.6511 73.4633C65.7642 73.4722 65.8356 73.449 65.8652 73.3935L65.9443 73.4029H66.0839L66.4003 73.3097L65.8699 73.2306C65.8647 73.2109 65.8586 73.1907 65.8513 73.1702L66.5585 73.3005L67.3867 73.1702L66.1398 72.9098H66.084L65.749 72.9563L65.7211 72.905L65.8421 72.8911L65.7398 72.826L65.6793 72.8212L65.6373 72.7377L66.2794 72.5934L65.5073 72.4724H65.5025L65.4512 72.3749L65.7583 72.3981L66.4747 72.3329L66.419 72.2959L65.7025 72.119H65.6468L65.3536 72.1795L65.3443 72.1563L65.4233 72.1376L65.3488 72.0632L65.2931 72.0537L65.2513 71.9747L65.9165 71.8398L65.1443 71.7188H65.121L65.0745 71.6257H65.172L65.9817 71.4676L64.9114 71.305ZM66.2233 71.8959L65.4044 72.0169L66.0837 72.1935L66.2233 72.175L66.9491 72.0169L66.2233 71.8959ZM65.3114 71.6446L66.2792 71.84H66.4744L67.3026 71.719L66.1768 71.4864L65.3114 71.6446ZM66.6328 71.9237L67.5074 72.0353L68.354 71.8958L67.6097 71.7376H67.4701L66.6328 71.9237ZM68.3541 71.9144L68.1215 71.9981L68.8937 72.1191H68.9683L69.3312 72.0819L69.3497 72.0539L68.5776 71.9143H68.3541V71.9144ZM71.4247 72.3982L70.6151 72.2586L70.4198 72.2959V72.24L69.508 72.0633L69.3869 72.1376L68.6706 72.2214L70.0198 72.4725L70.1594 72.4355L70.1779 72.5098L71.0899 72.6495L71.4433 72.5751L71.4247 72.3982ZM69.6102 72.7332L70.3731 72.5751L69.8801 72.5286L68.3818 72.2214L67.4513 72.4168L69.4892 72.7331H69.6102V72.7332ZM68.3819 72.9473H68.3354V72.9286L67.5632 72.8078L66.7537 72.9659L66.7908 72.9845L67.6655 73.1241L68.3819 72.9473ZM69.3497 72.8077L67.7401 72.5098L66.9958 72.6495V72.6682L68.5124 72.9101L69.3497 72.8077ZM68.1215 72.175L67.1446 72.0353L66.4188 72.2401L67.2842 72.3518L68.1215 72.175ZM67.526 72.4726L66.8096 72.3145L66.6886 72.3517L65.9627 72.4725L66.6886 72.5935H66.7909L67.5261 72.4913V72.4726H67.526ZM67.3306 72.8077L66.614 72.6309L65.7396 72.7889L66.456 72.91L67.3306 72.8077Z" fill="#A7C4E4"/>
<path fill-rule="evenodd" clip-rule="evenodd" d="M64.7872 71.0537L64.3264 70.1465L65.899 69.8955H66.1224L71.6029 70.8259L67.8621 71.5423H67.5273L64.7872 71.0537ZM65.0756 71.6259L64.9127 71.3051L65.9827 71.4679L65.1731 71.6259H65.0756ZM65.2525 71.9749L65.1222 71.7191H65.1455L65.9176 71.84L65.2525 71.9749ZM65.6804 72.8215L65.7409 72.8264L65.8432 72.8914L65.7222 72.9054L65.6804 72.8215ZM65.8525 73.1705C65.838 73.1344 65.8194 73.0941 65.7968 73.0497L65.7502 72.9565L66.0852 72.9101H66.141L67.3878 73.1705L66.5596 73.3008L65.8525 73.1705ZM65.6384 72.7379L65.5036 72.4726H65.5084L66.2805 72.5936L65.6384 72.7379ZM65.3455 72.1564L65.2943 72.0539L65.35 72.0634L65.4245 72.1378L65.3455 72.1564ZM65.6524 73.4636L65.9175 73.9986V74.1755L65.899 74.3151L65.7594 74.4547L65.6849 74.4732L49.104 71.626L48.7225 71.44L48.2293 70.8724L48.2153 70.8399C48.2222 70.8415 48.23 70.8428 48.2386 70.8446L64.8941 74.0826C65.2166 74.1445 65.2943 74.008 65.1266 73.6731L64.9545 73.329L65.564 73.4498C65.5964 73.456 65.626 73.4605 65.6524 73.4636ZM65.8665 73.3938C65.8869 73.3546 65.8882 73.3001 65.8711 73.231L66.4015 73.3101L66.0851 73.4032H65.9455L65.8665 73.3938ZM65.4523 72.375L65.3547 72.1797L65.6479 72.1192H65.7036L66.42 72.2961L66.4758 72.3331L65.7594 72.3983L65.4523 72.375ZM66.2247 71.896L66.9505 72.0169L66.2247 72.1751L66.0851 72.1935L65.4058 72.0169L66.2247 71.896ZM68.3555 71.9144H68.5788L69.351 72.054L69.3325 72.082L68.9696 72.1192H68.895L68.1228 71.9983L68.3555 71.9144ZM66.6341 71.9238L67.4715 71.7378H67.6111L68.3555 71.896L67.5088 72.0355L66.6341 71.9238ZM65.3127 71.6447L66.1781 71.4864L67.304 71.719L66.4758 71.8399H66.2805L65.3127 71.6447ZM69.6116 72.7333H69.4906L67.4528 72.4169L68.3833 72.2216L69.8815 72.5287L70.3746 72.5753L69.6116 72.7333ZM71.426 72.3983L71.4446 72.5752L71.0912 72.6496L70.1792 72.5099L70.1607 72.4356L70.021 72.4726L68.6719 72.2215L69.3882 72.1377L69.5093 72.0633L70.421 72.24V72.296L70.6164 72.2587L71.426 72.3983ZM68.3833 72.9474L67.6669 73.1241L66.7922 72.9845L66.755 72.9659L67.5646 72.8077L68.3367 72.9286V72.9473H68.3833V72.9474ZM67.332 72.8077L66.4573 72.9101L65.7409 72.789L66.6154 72.6309L67.332 72.8077ZM67.5274 72.4727V72.4914L66.7922 72.5936H66.6899L65.964 72.4727L66.6899 72.3519L66.8108 72.3146L67.5274 72.4727ZM68.1229 72.1751L67.2854 72.3519L66.42 72.2401L67.1458 72.0354L68.1229 72.1751ZM69.3511 72.8077L68.5136 72.9101L66.997 72.6681V72.6495L67.7414 72.5098L69.3511 72.8077Z" fill="#869DB8"/>
<path fill-rule="evenodd" clip-rule="evenodd" d="M34.5233 39.9631V40.4189C34.5233 41.0332 34.2316 41.3462 33.6486 41.3588H31.1223H30.7734C30.612 41.3588 30.4757 41.3339 30.364 41.2842C30.2336 41.2407 30.1282 41.1631 30.0475 41.0515C29.9482 40.9027 29.8987 40.7041 29.8987 40.4561V39.7815V37.4694C29.8987 36.8677 30.1903 36.5669 30.7733 36.5669H33.6485C33.7663 36.5669 33.8719 36.5824 33.965 36.6134C34.027 36.6196 34.0828 36.6381 34.1324 36.6692C34.393 36.787 34.5233 37.0476 34.5233 37.4508V37.9625V39.9631ZM37.6031 37.9626C37.5535 37.8634 37.5317 37.7703 37.5379 37.6835C37.5627 37.5655 37.6278 37.4662 37.7334 37.3856L39.0266 36.4086C39.2934 36.2101 39.5663 36.3 39.8455 36.6785L40.8643 38.0324C40.4857 38.0867 40.1152 38.1999 39.7525 38.3719C39.2817 38.6001 38.8784 38.9025 38.543 39.279L37.7613 38.2417C37.6869 38.1362 37.6342 38.0431 37.6031 37.9626ZM18.1282 49.4304C18.1442 49.4346 18.1596 49.4393 18.1748 49.4442C18.2368 49.4503 18.2927 49.4691 18.3423 49.5001C18.6027 49.6179 18.733 49.8784 18.733 50.2815V51.5144V53.2497C18.733 53.717 18.564 54.0099 18.2259 54.1292C18.1204 54.1664 17.9979 54.1866 17.8584 54.1894H15.9928H14.9833C14.8219 54.1894 14.6855 54.1647 14.5739 54.115C14.4435 54.0717 14.3381 53.9941 14.2574 53.8825C14.1582 53.7336 14.1086 53.5349 14.1086 53.2869V50.3002C14.1086 49.6985 14.4001 49.3975 14.9833 49.3975H17.8584C17.9573 49.3976 18.0472 49.4085 18.1282 49.4304ZM24.4927 70.0398C24.5011 69.4535 24.7926 69.1605 25.3674 69.1605H26.2886H28.2426C28.3604 69.1605 28.4657 69.1759 28.5588 69.207C28.6209 69.2131 28.6768 69.2319 28.7264 69.2627C28.987 69.3807 29.1171 69.6411 29.1171 70.0444V70.0908V70.8725V73.0125C29.1171 73.6266 28.8257 73.9399 28.2426 73.9521H25.3674C25.206 73.9521 25.0695 73.9275 24.9579 73.8779C24.8277 73.8344 24.7223 73.7569 24.6415 73.6453C24.5422 73.4962 24.4926 73.2978 24.4926 73.0498V70.854V70.0631C24.4927 70.0545 24.4927 70.0467 24.4927 70.0398ZM17.0117 73.2916C17.3157 73.7322 18.2275 74.1198 19.7473 74.4546C21.6455 74.8702 23.9375 75.0779 26.6235 75.0779C27.659 75.0779 28.636 75.0471 29.5545 74.9849C29.6085 75.0969 29.6737 75.2055 29.7499 75.3106C30.091 75.7883 30.5811 76.0271 31.2201 76.0271C31.8114 76.0271 32.2643 75.8705 32.5786 75.5571L32.6901 76.5808C32.5104 76.6126 32.3414 76.6683 32.1831 76.7483C30.5678 76.9993 28.7145 77.125 26.6235 77.125C23.9375 77.125 21.6454 76.9172 19.7473 76.5017C17.8491 76.0861 16.9001 75.5836 16.9001 74.9944C16.9001 74.8766 16.9373 74.7649 17.0117 74.6594V73.2916ZM35.5421 72.1426C35.5777 72.1403 35.6133 72.1389 35.6492 72.1378C35.8674 72.1316 36.0937 72.1284 36.3283 72.1284C37.4512 72.1284 38.4189 72.1996 39.2315 72.3425C40.0132 72.4852 40.4039 72.6526 40.4039 72.8449V72.882C40.3604 73.0247 40.0752 73.1551 39.548 73.273C39.43 73.2977 39.3246 73.3226 39.2316 73.3473C38.5258 73.4713 37.7024 73.541 36.7612 73.5566C36.7525 73.4931 36.7417 73.4311 36.7287 73.3707C37.3562 73.3552 37.8897 73.2979 38.329 73.1984C38.4781 73.1738 38.5989 73.152 38.6919 73.1334C39.0022 73.0589 39.1697 72.9628 39.1944 72.8449C39.1697 72.7271 38.8811 72.606 38.329 72.4821C37.808 72.3891 37.1412 72.3425 36.3285 72.3425C36.2185 72.346 36.1101 72.3507 36.0029 72.3563C35.8609 72.2631 35.7073 72.1918 35.5421 72.1426ZM32.4017 72.6915C32.5682 72.5578 32.925 72.4414 33.4717 72.3426C33.6475 72.3104 33.8321 72.2826 34.0253 72.2588C33.8917 72.3252 33.7661 72.409 33.6485 72.5099C33.3962 72.7257 33.2273 72.9923 33.1414 73.3101C33.042 73.2867 32.9504 73.2635 32.867 73.2403C32.7752 73.0632 32.6511 72.9066 32.4948 72.7706C32.4641 72.7437 32.433 72.7173 32.4017 72.6915Z" fill="#A6ACE0"/>
<path fill-rule="evenodd" clip-rule="evenodd" d="M34.5227 37.9624H37.6025C37.6335 38.043 37.6864 38.136 37.7607 38.2415L38.5423 39.2789C38.3576 39.4846 38.1932 39.7127 38.0491 39.9629H34.5226V37.9624H34.5227ZM18.2254 54.129L26.2881 69.1602H25.3669C24.7921 69.1602 24.5005 69.4532 24.4923 70.0395L15.9924 54.1892H17.858C17.9974 54.1864 18.1198 54.1662 18.2254 54.129ZM18.7324 51.5143V50.2814C18.7324 49.8782 18.6021 49.6177 18.3417 49.4999C18.2921 49.4689 18.2362 49.4501 18.1742 49.444C18.159 49.439 18.1436 49.4344 18.1276 49.4302L29.8982 39.7814V40.456C29.8982 40.7041 29.9478 40.9027 30.0471 41.0514C30.1277 41.163 30.2331 41.2406 30.3635 41.2841C30.4753 41.3338 30.6115 41.3587 30.7729 41.3587H31.1219L18.7324 51.5143Z" fill="#CED2F7"/>
<path fill-rule="evenodd" clip-rule="evenodd" d="M38.0493 39.9628C38.1933 39.7126 38.3578 39.4845 38.5425 39.2788C38.878 38.9023 39.2813 38.5999 39.7521 38.3717C40.1148 38.1997 40.4854 38.0866 40.8639 38.0322C41.7467 37.9028 42.6756 38.0874 43.6508 38.5857C45.0465 39.3053 46.1288 40.462 46.8981 42.0563C45.2976 44.767 42.3635 46.178 38.0957 46.2899C37.3513 44.6894 37.1405 43.1139 37.463 41.5632C37.5902 40.9548 37.7855 40.4214 38.0493 39.9628ZM29.5541 74.9846C28.6356 75.0468 27.6586 75.0776 26.6231 75.0776C23.9371 75.0776 21.645 74.8699 19.7469 74.4544C18.2271 74.1195 17.3153 73.7319 17.0113 73.2913C16.9369 73.1797 16.8997 73.0649 16.8997 72.9471C16.8997 72.6415 17.1555 72.3577 17.6672 72.0957C18.1396 71.8552 18.8329 71.6336 19.7469 71.4303C21.1218 71.1293 22.7036 70.9369 24.4923 70.8536V73.0495C24.4923 73.2974 24.5419 73.4958 24.6412 73.6449C24.7218 73.7565 24.8273 73.8341 24.9576 73.8776C25.0692 73.9272 25.2057 73.9518 25.3671 73.9518H28.2423C28.8252 73.9395 29.1168 73.6262 29.1168 73.0122V70.8721C30.7526 70.964 32.2103 71.1501 33.49 71.4303C34.4538 71.6444 35.1732 71.8802 35.6488 72.1375C35.613 72.1386 35.5775 72.14 35.5417 72.1423C35.3509 72.0831 35.1449 72.0537 34.923 72.0537C34.5918 72.0537 34.2925 72.1221 34.0251 72.2585C33.8318 72.2822 33.6473 72.3101 33.4715 72.3422C32.9247 72.441 32.568 72.5574 32.4014 72.6912C32.0711 72.4399 31.6742 72.3142 31.2105 72.3142C30.7144 72.3142 30.2894 72.4661 29.9358 72.7702C29.5512 73.099 29.359 73.5456 29.359 74.11C29.3587 74.4218 29.4238 74.7134 29.5541 74.9846Z" fill="#D7DAF6"/>
<path fill-rule="evenodd" clip-rule="evenodd" d="M48.2142 70.8396C47.9089 70.7715 47.6749 70.5747 47.5118 70.2489L46.0138 67.2808L41.2032 57.7715C41.0357 57.4366 41.1101 57.3001 41.4265 57.3622L42.0406 57.483L58.082 60.6001C58.4046 60.6621 58.6495 60.8607 58.8171 61.1956L64.9536 73.3287L65.1257 73.6728C65.2933 74.0077 65.2156 74.1442 64.8931 74.0823L48.2376 70.8443C48.229 70.8426 48.2212 70.8412 48.2142 70.8396ZM54.7323 67.0854C55.0053 66.6511 55.0361 66.1517 54.8254 65.5872C54.6082 65.0228 54.2082 64.5606 53.6251 64.2009C53.0544 63.8411 52.4713 63.6892 51.8759 63.745C51.2742 63.7946 50.8368 64.0364 50.5638 64.4706C50.2971 64.9049 50.2723 65.4043 50.4895 65.9687C50.7003 66.5331 51.0943 66.9953 51.6711 67.3549C52.2419 67.7147 52.828 67.8699 53.4297 67.8201C54.0252 67.7645 54.4593 67.5196 54.7323 67.0854Z" fill="#AAC5FC"/>
<path fill-rule="evenodd" clip-rule="evenodd" d="M65.3454 72.1563L65.3547 72.1795L65.4524 72.3749L65.5036 72.4724L65.6384 72.7377L65.6804 72.8212L65.7222 72.9051L65.7501 72.9563L65.7967 73.0495C65.8194 73.0939 65.8379 73.1343 65.8524 73.1703C65.8597 73.1908 65.8659 73.2109 65.871 73.2307C65.8883 73.2999 65.8868 73.3544 65.8664 73.3935C65.8368 73.449 65.7654 73.4722 65.6523 73.4633C65.626 73.4602 65.5964 73.4557 65.564 73.4494L64.9545 73.3286L58.8181 61.1955C58.6505 60.8607 58.4056 60.662 58.083 60.6L42.0416 57.4829L41.9207 57.2411C41.7532 56.9124 41.8277 56.7789 42.1439 56.8409L58.7994 60.0789C59.122 60.1409 59.3672 60.3363 59.5345 60.6653L63.917 69.3417L64.3265 70.1463L64.7872 71.0535L64.857 71.1886L64.9128 71.305L65.0756 71.6258L65.1222 71.719L65.2524 71.9749L65.2942 72.0538L65.3454 72.1563ZM54.7333 67.0853C54.4603 67.5195 54.0262 67.7644 53.4306 67.8202C52.8289 67.87 52.2428 67.7148 51.672 67.355C51.0952 66.9954 50.7011 66.5332 50.4904 65.9688C50.2731 65.4043 50.298 64.9049 50.5647 64.4707C50.8376 64.0365 51.2751 63.7947 51.8768 63.7451C52.4722 63.6893 53.0554 63.8412 53.626 64.201C54.2092 64.5607 54.6092 65.0229 54.8262 65.5873C55.0371 66.1516 55.0063 66.6511 54.7333 67.0853Z" fill="#E8EFFD"/>
<path fill-rule="evenodd" clip-rule="evenodd" d="M36.761 73.5565C37.7021 73.5408 38.5255 73.471 39.2314 73.3471C39.3244 73.3224 39.4299 73.2975 39.5477 73.2728C40.0749 73.1549 40.3603 73.0246 40.4037 72.8818L39.6361 79.879L39.6313 79.9023C39.2903 79.6263 38.8715 79.4881 38.3752 79.4881H38.3707C38.3796 79.4503 38.3843 79.438 38.3847 79.4508C38.3843 79.0351 38.2448 78.7063 37.9659 78.4646C37.7177 78.2413 37.4107 78.1297 37.0447 78.1297C36.6849 78.1297 36.3808 78.2414 36.1327 78.4646C35.8536 78.7065 35.714 79.0355 35.714 79.4508C35.714 79.7299 35.8101 79.9999 36.0024 80.2604C36.1083 80.4049 36.2308 80.5198 36.37 80.6045C36.3554 80.6045 36.3415 80.6045 36.328 80.6045C35.8462 80.6045 35.4011 80.5922 34.9928 80.5673C34.7358 80.4355 34.4522 80.3582 34.1414 80.3348C33.9538 80.3212 33.7772 80.329 33.6111 80.358C33.4795 80.3236 33.3708 80.2877 33.2855 80.2512C33.9881 80.203 34.4718 79.9052 34.737 79.3577C34.83 79.1655 34.8891 78.9485 34.9138 78.7064C34.9262 78.6196 34.9324 78.508 34.9324 78.3715C34.9324 77.7947 34.7401 77.3387 34.3555 77.0038C34.0081 76.6997 33.5801 76.5478 33.0714 76.5478C32.9394 76.5478 32.8122 76.5586 32.6899 76.5803L32.5784 75.5566C32.6975 75.4354 32.7968 75.2912 32.8761 75.1241C32.9691 74.9318 33.0282 74.7149 33.0529 74.4727C33.0653 74.3922 33.0714 74.2804 33.0714 74.1379C33.0714 73.7956 33.0033 73.4961 32.8668 73.24C32.9502 73.2631 33.0417 73.2863 33.1411 73.3098C33.0946 73.4754 33.0714 73.6553 33.0714 73.8495C33.0714 74.2651 33.2017 74.6588 33.4622 75.0311C33.8096 75.5212 34.2997 75.7661 34.9323 75.7661C35.7512 75.7661 36.3033 75.4654 36.5886 74.8636C36.6816 74.6714 36.7405 74.4543 36.7654 74.2124C36.7778 74.1316 36.7839 74.0201 36.7839 73.8776C36.7842 73.7663 36.7764 73.6593 36.761 73.5565Z" fill="#345BA7"/>
<path fill-rule="evenodd" clip-rule="evenodd" d="M36.0017 72.3561C36.1089 72.3504 36.2175 72.3458 36.3273 72.3423C37.1401 72.3423 37.8068 72.3889 38.3279 72.4819C38.88 72.6059 39.1686 72.7269 39.1933 72.8447C39.1686 72.9625 39.001 73.0587 38.6908 73.1332C38.5977 73.1517 38.4769 73.1736 38.3279 73.1982C37.8886 73.2977 37.355 73.355 36.7275 73.3704C36.6443 73.0268 36.4708 72.74 36.2065 72.5097C36.1416 72.4529 36.0733 72.4017 36.0017 72.3561Z" fill="#264376"/>
<path fill-rule="evenodd" clip-rule="evenodd" d="M21.1606 2.86613C22.234 2.59315 23.3133 2.52509 24.3988 2.66149C25.5278 2.81037 26.5512 3.16087 27.4694 3.71278C29.0388 4.62475 30.1988 5.97069 30.9494 7.75099C31.7123 9.56848 31.8737 11.3705 31.4331 13.1568C31.0486 15.0921 30.0685 16.7174 28.4929 18.0324C26.8987 19.3474 25.1432 19.974 23.2264 19.912C21.2041 19.9863 19.368 19.2824 17.7179 17.7997C16.0991 16.3298 15.1623 14.5525 14.9079 12.4684C14.5792 10.3654 15.0321 8.36499 16.2664 6.46704C17.5134 4.5689 19.1447 3.36863 21.1606 2.86613ZM19.4766 7.44394C19.3713 7.35089 19.2658 7.36945 19.1602 7.49978L18.6485 8.12306C18.5431 8.25955 18.5431 8.37436 18.6485 8.4674L23.152 12.4124C23.1769 12.4311 23.2016 12.4465 23.2265 12.4589L23.4499 12.6637C23.5552 12.763 23.6484 12.7753 23.729 12.701L27.1253 9.4071C27.1996 9.33261 27.1842 9.24573 27.0787 9.14653L26.5762 8.69059C26.4706 8.59755 26.3808 8.58828 26.3064 8.66276L23.729 11.1657L19.4766 7.44394ZM98.3901 78.4182C98.6011 78.4555 98.5421 78.5051 98.2134 78.567L85.8381 80.977C85.5092 81.0389 85.2394 81.0515 85.0285 81.0142L74.1047 79.0883C73.8939 79.051 73.9528 79.0014 74.2815 78.9392L86.6569 76.5296C86.9856 76.4674 87.2554 76.455 87.4663 76.4923L98.3901 78.4182Z" fill="white"/>
<path fill-rule="evenodd" clip-rule="evenodd" d="M140.718 113.691C140.911 115.616 140.802 117.406 140.392 119.06C140.379 119.107 140.367 119.154 140.355 119.2L140.141 119.274C139.876 119.362 139.615 119.446 139.359 119.525C139.537 119.114 139.655 118.655 139.713 118.148C140.017 115.456 140.039 113.499 139.778 112.277C139.691 111.874 139.533 111.499 139.303 111.151C138.174 109.594 137.182 108.608 136.326 108.192C135.47 107.777 134.586 107.507 133.674 107.383C132.762 107.259 131.438 107.991 129.701 109.579C127.958 111.167 127.753 113.198 129.087 115.673C130.42 118.148 130.737 119.593 130.036 120.009C129.816 120.141 129.591 120.258 129.361 120.363C129.31 120.351 129.259 120.338 129.208 120.326V120.316C129.208 120.31 129.205 120.304 129.198 120.297C128.519 119.851 127.805 119.412 127.058 118.981C126.474 118.643 125.869 118.31 125.244 117.981C125.163 117.801 125.238 116.97 125.467 115.487C125.529 115.134 125.514 114.346 125.421 113.124C125.421 113.118 125.417 113.111 125.411 113.105H125.402L126.211 109.914C125.982 109.579 125.712 109.182 125.402 108.723C124.867 107.923 124.4 107.25 124.002 106.704C123.377 105.841 122.923 105.292 122.639 105.057C122.558 105.001 122.043 104.523 121.094 103.624C120.157 102.725 119.329 102.052 118.609 101.605C116.327 100.166 114.534 100.476 113.231 102.535C112.555 99.9672 112.198 98.153 112.161 97.0925C112.106 94.915 112.704 93.2093 113.957 91.9749C114.441 91.3733 114.819 90.7593 115.092 90.1325C115.365 89.506 115.598 88.9012 115.79 88.3182C115.989 87.7287 116.116 86.4852 116.172 84.5871C116.228 82.6889 116.178 81.1971 116.023 80.1116C115.861 79.0322 115.523 78.077 115.009 77.2458C114.856 76.6445 114.976 76.0335 115.367 75.4129C115.452 75.7669 115.665 76.0152 116.004 76.1572C116.401 76.3185 116.851 76.3123 117.353 76.1386C117.862 75.9586 118.188 75.6887 118.33 75.3291C118.492 74.9136 118.33 74.5041 117.846 74.1008C117.815 74.0716 117.782 74.0438 117.749 74.0172C117.763 74.014 117.777 74.0111 117.791 74.0078C119.334 73.6536 120.536 73.4457 121.396 73.3845C122.091 73.3356 122.564 73.3821 122.815 73.5241C123.237 73.7589 123.863 74.1465 124.695 74.6872C124.61 74.836 124.548 74.9972 124.509 75.171C124.887 76.6784 125.411 78.1329 126.081 79.5348C126.264 79.5193 126.427 79.4744 126.57 79.3999L126.49 82.3912L126.844 84.6708C126.931 85.2043 127.021 85.7347 127.114 86.2619C127.629 89.0905 128.832 91.6119 130.724 93.8262C132.176 95.5383 133.482 97.3557 134.642 99.2787C135.771 101.146 136.865 103.047 137.926 104.982C139.167 107.24 140.01 109.61 140.457 112.091C140.525 112.587 140.581 113.09 140.625 113.598C140.656 113.635 140.687 113.667 140.718 113.691ZM121.708 75.4222C121.783 75.6081 121.947 75.7602 122.201 75.8782C122.443 75.9958 122.67 76.0363 122.881 75.999C123.11 75.9494 123.237 75.8066 123.262 75.571C123.125 75.3042 122.939 75.0965 122.704 74.9477C122.425 74.7616 122.161 74.7242 121.913 74.8359C121.696 75.022 121.628 75.2173 121.708 75.4222ZM115.809 77.8691C115.877 78.2847 116.029 78.8399 116.265 79.5347C116.501 80.2294 116.65 81.408 116.712 83.0704C116.774 84.7266 117.462 85.9144 118.777 86.6341C120.086 87.3474 120.827 86.8294 121.001 85.0801C121.392 80.9737 119.661 78.5702 115.809 77.8691Z" fill="url(#paint0_linear)"/>
<path fill-rule="evenodd" clip-rule="evenodd" d="M115.809 77.8691C119.661 78.5703 121.392 80.9738 121.001 85.0802C120.827 86.8294 120.086 87.3474 118.777 86.6341C117.462 85.9144 116.774 84.7266 116.712 83.0704C116.649 81.4081 116.501 80.2295 116.265 79.5347C116.029 78.84 115.877 78.2848 115.809 77.8691Z" fill="url(#paint1_linear)"/>
<path fill-rule="evenodd" clip-rule="evenodd" d="M113.515 121.307C113.481 121.655 113.457 121.998 113.445 122.335C113.283 122.8 112.855 123.033 112.161 123.033C111.696 123.033 111.423 123.039 111.342 123.051C111.038 123.082 110.805 123.178 110.644 123.34C110.29 123.495 109.906 123.501 109.49 123.358C109.118 123.216 108.808 122.983 108.56 122.66C108.312 122.332 108.212 122 108.262 121.665C108.324 121.274 108.582 120.955 109.034 120.706C109.821 120.633 110.355 120.127 110.635 119.19C110.639 119.18 110.642 119.171 110.644 119.162C110.93 118.207 111.24 117.214 111.575 116.184C111.748 115.508 112.099 114.398 112.626 112.853C113.122 111.396 113.467 110.264 113.659 109.457C114.112 107.578 114.155 105.894 113.789 104.405C113.746 104.213 113.681 103.974 113.594 103.688C113.538 103.484 113.473 103.288 113.398 103.102L113.231 102.535C114.534 100.475 116.326 100.165 118.609 101.604C119.329 102.051 120.157 102.724 121.093 103.623C122.043 104.523 122.557 105 122.638 105.056C122.922 105.291 123.377 105.84 124.001 106.703C124.4 107.249 124.866 107.922 125.401 108.722C125.712 109.181 125.982 109.578 126.211 109.913L125.401 113.105C125.395 113.105 125.389 113.108 125.383 113.114C125.377 113.114 125.373 113.117 125.373 113.123C125.38 113.148 125.383 113.173 125.383 113.198C125.091 114.269 124.7 115.704 124.21 117.501C124.169 117.653 124.127 117.808 124.085 117.966C124.074 118.005 124.063 118.044 124.052 118.083C123.513 120.21 123.165 122.065 123.01 123.647C122.7 124.304 122.111 124.633 121.242 124.633C120.752 124.627 120.036 124.531 119.093 124.344C118.628 124.549 118.249 124.524 117.958 124.27C117.697 124.041 117.558 123.696 117.539 123.237C117.521 122.778 117.62 122.375 117.837 122.028C118.073 121.637 118.392 121.432 118.795 121.413C119.285 121.196 119.645 120.858 119.875 120.399C120.042 120.064 120.206 119.68 120.368 119.246C120.41 119.135 120.447 119.023 120.479 118.911C120.577 118.584 120.633 118.253 120.647 117.915C120.659 117.462 120.786 116.845 121.028 116.063C121.4 114.295 121.615 113.238 121.67 112.891C121.875 111.675 121.937 110.599 121.856 109.662C121.441 109.476 120.789 109.253 119.902 108.992C119.003 108.725 118.348 108.502 117.939 108.322C117.575 109.15 117.243 109.907 116.943 110.592C115.902 112.983 115.263 114.496 115.027 115.133C114.69 116.046 114.406 116.93 114.175 117.785C113.844 119.018 113.624 120.192 113.515 121.307Z" fill="url(#paint2_linear)"/>
<path fill-rule="evenodd" clip-rule="evenodd" d="M147.691 121.196C147.397 121.244 147.082 121.28 146.747 121.303C144.402 121.34 142.271 120.639 140.354 119.2C140.366 119.154 140.379 119.108 140.391 119.06C140.801 117.406 140.91 115.617 140.717 113.691C141.077 114.039 141.449 114.374 141.833 114.696C144.079 116.607 146.796 117.261 149.984 116.659C150.667 116.628 151.024 116.97 151.054 117.683C151.079 118.396 150.8 119.15 150.217 119.944C149.743 120.579 148.9 120.996 147.691 121.196Z" fill="url(#paint3_linear)"/>
<path fill-rule="evenodd" clip-rule="evenodd" d="M139.36 119.525C138.834 120.737 137.789 121.537 136.224 121.926C133.923 122.484 132.254 122.745 131.218 122.707C130.182 122.664 129.274 123.055 128.492 123.88C127.71 124.699 126.33 124.516 124.351 123.331C124.171 123.219 123.998 123.002 123.83 122.68C123.669 122.351 123.948 121.954 124.668 121.489C125.387 121.017 126.107 120.84 126.826 120.958C127.73 120.92 128.575 120.721 129.362 120.363C129.592 120.259 129.817 120.141 130.037 120.009C130.738 119.594 130.421 118.148 129.087 115.673C127.753 113.198 127.958 111.167 129.701 109.579C131.438 107.991 132.763 107.259 133.675 107.383C134.587 107.507 135.47 107.777 136.327 108.192C137.182 108.608 138.175 109.594 139.304 111.151C139.534 111.499 139.692 111.874 139.778 112.277C140.039 113.499 140.017 115.456 139.713 118.148C139.655 118.655 139.537 119.114 139.36 119.525Z" fill="#333333"/>
<path fill-rule="evenodd" clip-rule="evenodd" d="M33.9367 12.5426C33.7754 13.7336 33.4003 14.934 32.811 16.1435C31.4338 18.9907 29.362 20.8577 26.5953 21.7447C23.8535 22.7931 21.087 22.5636 18.2956 21.0561C15.5227 19.5489 13.7455 17.3405 12.9639 14.4314C12.7716 13.8235 12.6351 13.2157 12.5544 12.6078C12.2444 10.3065 12.7219 8.02378 13.9874 5.75962C15.6003 2.92482 17.852 1.16335 20.7426 0.474764C21.4065 0.300987 22.0671 0.192514 22.7246 0.149162C23.1092 0.118025 23.497 0.121149 23.8878 0.158439C25.4076 0.251481 26.9118 0.722938 28.4006 1.57263C30.9005 2.99324 32.5659 5.0309 33.3971 7.68577C33.9801 9.28595 34.16 10.905 33.9367 12.5426ZM21.1612 2.86594C19.1452 3.36844 17.5138 4.56872 16.267 6.46695C15.0326 8.3649 14.5797 10.3654 14.9084 12.4683C15.1628 14.5524 16.0995 16.3297 17.7184 17.7996C19.3686 19.2823 21.2046 19.9862 23.2269 19.9119C25.1437 19.9739 26.8992 19.3473 28.4934 18.0323C30.069 16.7173 31.0492 15.0921 31.4337 13.1567C31.8742 11.3703 31.7128 9.5683 30.9499 7.75089C30.1993 5.97069 29.0394 4.62465 27.47 3.71269C26.5518 3.16078 25.5283 2.81019 24.3993 2.6614C23.3138 2.52482 22.2345 2.59297 21.1612 2.86594Z" fill="#537CBA"/>
<defs>
<linearGradient id="paint0_linear" x1="124.468" y1="96.0361" x2="140.252" y2="105.115" gradientUnits="userSpaceOnUse">
<stop stop-color="#474747"/>
<stop offset="1"/>
</linearGradient>
<linearGradient id="paint1_linear" x1="117.521" y1="84.9111" x2="118.908" y2="79.7332" gradientUnits="userSpaceOnUse">
<stop stop-color="#303030"/>
<stop offset="1"/>
</linearGradient>
<linearGradient id="paint2_linear" x1="117.101" y1="116.897" x2="120.047" y2="105.899" gradientUnits="userSpaceOnUse">
<stop stop-color="#303030"/>
<stop offset="1"/>
</linearGradient>
<linearGradient id="paint3_linear" x1="141.699" y1="117.498" x2="149.673" y2="117.498" gradientUnits="userSpaceOnUse">
<stop stop-color="#303030"/>
<stop offset="1"/>
</linearGradient>
</defs>
</svg>
