<svg width="25" height="25" viewBox="0 0 25 25" fill="none" xmlns="http://www.w3.org/2000/svg">
<path d="M22.4491 18.4119L19.5123 15.4813C18.4635 14.4346 16.6804 14.8533 16.2609 16.2139C15.9462 17.1559 14.8974 17.6793 13.9534 17.4699C11.8557 16.9466 9.02383 14.2253 8.49941 12.0273C8.18475 11.0853 8.81406 10.0387 9.75803 9.7247C11.1215 9.30604 11.5411 7.52674 10.4922 6.4801L7.55544 3.54949C6.71637 2.81684 5.45775 2.81684 4.72355 3.54949L2.73074 5.53812C0.737923 7.63141 2.94051 13.1786 7.8701 18.0979C12.7997 23.0171 18.3586 25.3198 20.4563 23.2264L22.4491 21.2378C23.1833 20.4005 23.1833 19.1445 22.4491 18.4119Z" fill="#7C7C7C"/>
</svg>
