<svg width="25" height="25" viewBox="0 0 25 25" fill="none" xmlns="http://www.w3.org/2000/svg">
<g clip-path="url(#clip0)">
<path d="M22.9783 7.46806C22.9268 6.29911 22.7377 5.49548 22.467 4.79911C22.1876 4.05994 21.7578 3.39816 21.1948 2.84802C20.6446 2.28931 19.9785 1.85518 19.2479 1.58019C18.5475 1.3094 17.748 1.12037 16.5791 1.06883C15.4014 1.01293 15.0275 1 12.0406 1C9.05372 1 8.67985 1.01293 7.50654 1.06447C6.3376 1.116 5.53396 1.3052 4.83776 1.57583C4.09842 1.85518 3.43664 2.28495 2.8865 2.84802C2.3278 3.39816 1.89383 4.0643 1.61867 4.79491C1.34788 5.49548 1.15885 6.29475 1.10731 7.46369C1.05141 8.64137 1.03848 9.01524 1.03848 12.0021C1.03848 14.9891 1.05141 15.3629 1.10295 16.5362C1.15449 17.7052 1.34369 18.5088 1.61448 19.2052C1.89383 19.9444 2.3278 20.6061 2.8865 21.1563C3.43664 21.715 4.10279 22.1491 4.8334 22.4241C5.53396 22.6949 6.33323 22.8839 7.50235 22.9355C8.67549 22.9872 9.04952 22.9999 12.0364 22.9999C15.0233 22.9999 15.3972 22.9872 16.5705 22.9355C17.7395 22.8839 18.5431 22.6949 19.2393 22.4241C20.7178 21.8525 21.8868 20.6835 22.4584 19.2052C22.729 18.5046 22.9182 17.7052 22.9698 16.5362C23.0213 15.3629 23.0342 14.9891 23.0342 12.0021C23.0342 9.01524 23.0299 8.64137 22.9783 7.46806ZM20.9972 16.4503C20.9498 17.5247 20.7694 18.1049 20.6189 18.4917C20.2493 19.4501 19.4886 20.2108 18.5302 20.5805C18.1434 20.7309 17.559 20.9113 16.4888 20.9585C15.3284 21.0102 14.9804 21.023 12.045 21.023C9.10962 21.023 8.75724 21.0102 7.60106 20.9585C6.52663 20.9113 5.94644 20.7309 5.55964 20.5805C5.0827 20.4042 4.64856 20.1248 4.29618 19.7595C3.93088 19.4028 3.65153 18.973 3.47525 18.4961C3.32483 18.1093 3.14436 17.5247 3.09719 16.4546C3.04548 15.2943 3.03272 14.9461 3.03272 12.0107C3.03272 9.07534 3.04548 8.72296 3.09719 7.56694C3.14436 6.49251 3.32483 5.91232 3.47525 5.52553C3.65153 5.04841 3.93088 4.61444 4.30055 4.2619C4.65712 3.89659 5.0869 3.61724 5.56401 3.44114C5.9508 3.29072 6.53536 3.11024 7.60542 3.0629C8.76581 3.01136 9.11399 2.99844 12.0492 2.99844C14.9889 2.99844 15.3369 3.01136 16.4931 3.0629C17.5676 3.11024 18.1478 3.29072 18.5345 3.44114C19.0115 3.61724 19.4456 3.89659 19.798 4.2619C20.1633 4.61864 20.4427 5.04841 20.6189 5.52553C20.7694 5.91232 20.9498 6.49671 20.9972 7.56694C21.0487 8.72732 21.0616 9.07534 21.0616 12.0107C21.0616 14.9461 21.0487 15.2899 20.9972 16.4503Z" fill="#7C7C7C"/>
<path d="M12.0405 6.35046C8.92046 6.35046 6.38901 8.88175 6.38901 12.002C6.38901 15.1222 8.92046 17.6535 12.0405 17.6535C15.1607 17.6535 17.692 15.1222 17.692 12.002C17.692 8.88175 15.1607 6.35046 12.0405 6.35046ZM12.0405 15.6679C10.0164 15.6679 8.37452 14.0262 8.37452 12.002C8.37452 9.97767 10.0164 8.33597 12.0405 8.33597C14.0648 8.33597 15.7065 9.97767 15.7065 12.002C15.7065 14.0262 14.0648 15.6679 12.0405 15.6679Z" fill="#7C7C7C"/>
<path d="M19.2348 6.12747C19.2348 6.85607 18.644 7.44684 17.9152 7.44684C17.1866 7.44684 16.5959 6.85607 16.5959 6.12747C16.5959 5.39871 17.1866 4.80811 17.9152 4.80811C18.644 4.80811 19.2348 5.39871 19.2348 6.12747Z" fill="#7C7C7C"/>
</g>
<defs>
<clipPath id="clip0">
<rect width="22" height="22" fill="white" transform="translate(1 1)"/>
</clipPath>
</defs>
</svg>
