<svg width="17" height="16" viewBox="0 0 17 16" fill="none" xmlns="http://www.w3.org/2000/svg">
<path fill-rule="evenodd" clip-rule="evenodd" d="M8.93392 0C8.19754 0 7.60059 0.596954 7.60059 1.33333V6.66675H2.26717C1.53079 6.66675 0.933838 7.2637 0.933838 8.00008C0.933838 8.73646 1.53079 9.33341 2.26717 9.33341H7.60059V14.6667C7.60059 15.403 8.19754 16 8.93392 16C9.6703 16 10.2673 15.403 10.2673 14.6667V9.33342H15.6005C16.3369 9.33342 16.9338 8.73646 16.9338 8.00008C16.9338 7.2637 16.3369 6.66675 15.6005 6.66675H10.2673V1.33333C10.2673 0.596954 9.6703 0 8.93392 0Z" fill="#353535"/>
</svg>
