<svg width="25" height="25" viewBox="0 0 25 25" fill="none" xmlns="http://www.w3.org/2000/svg">
<path d="M25 13C25 19.63 19.63 25 13 25C6.37 25 1 19.63 1 13C1 6.37 6.37 1 13 1C19.63 1 25 6.37 25 13Z" fill="#7C7C7C"/>
<path d="M10.8 18.5C10.41 18.5 10.48 18.35 10.34 17.98L9.20001 14.22L16.28 9.80005L17.11 10.02L16.42 11.9L10.8 18.5Z" fill="#C8DAEA"/>
<path d="M10.8 18.5C11.1 18.5 11.23 18.36 11.4 18.2C11.66 17.95 15 14.7 15 14.7L12.95 14.2L11.05 15.4L10.8 18.4V18.5Z" fill="#A9C9DD"/>
<path d="M11 15.44L15.84 19.01C16.39 19.31 16.79 19.16 16.93 18.5L18.9 9.22004C19.1 8.41004 18.59 8.05004 18.06 8.29004L6.5 12.75C5.71 13.07 5.72 13.51 6.36 13.7L9.33 14.63L16.2 10.3C16.52 10.1 16.82 10.21 16.58 10.43L11 15.44Z" fill="url(#paint0_linear)"/>
<defs>
<linearGradient id="paint0_linear" x1="13.8991" y1="13.3755" x2="16.3991" y2="17.3755" gradientUnits="userSpaceOnUse">
<stop stop-color="#EFF7FC"/>
<stop offset="1" stop-color="white"/>
</linearGradient>
</defs>
</svg>
