<svg width="25" height="25" viewBox="0 0 25 25" fill="none" xmlns="http://www.w3.org/2000/svg">
<path d="M22.6388 6.51697C21.3832 6.51697 20.2248 6.10103 19.2945 5.39935C18.2276 4.59498 17.461 3.41505 17.1903 2.05509C17.1233 1.71908 17.0872 1.37232 17.0838 1.01697H13.4972V10.8173L13.4929 16.1854C13.4929 17.6205 12.5583 18.8374 11.2628 19.2654C10.8868 19.3895 10.4808 19.4484 10.058 19.4252C9.51827 19.3956 9.01253 19.2327 8.57296 18.9697C7.63753 18.4103 7.00331 17.3954 6.98612 16.2344C6.95905 14.4198 8.426 12.9404 10.2393 12.9404C10.5972 12.9404 10.941 12.9988 11.2628 13.1049V10.4263V9.46334C10.9233 9.41306 10.5779 9.38685 10.2285 9.38685C8.24381 9.38685 6.38756 10.2119 5.06069 11.6981C4.0578 12.8213 3.45624 14.2543 3.36342 15.757C3.24182 17.731 3.96413 19.6074 5.36491 20.9918C5.57073 21.1951 5.78686 21.3837 6.01288 21.5577C7.21385 22.482 8.6821 22.983 10.2285 22.983C10.5779 22.983 10.9233 22.9572 11.2628 22.907C12.7074 22.693 14.0403 22.0317 15.0922 20.9918C16.3847 19.7144 17.0988 18.0184 17.1065 16.2133L17.0881 8.19705C17.7047 8.67271 18.3789 9.0663 19.1024 9.37181C20.2278 9.84662 21.421 10.0872 22.6491 10.0868V7.48248V6.51611C22.6499 6.51697 22.6396 6.51697 22.6388 6.51697Z" fill="#7C7C7C"/>
</svg>
