<svg width="25" height="25" viewBox="0 0 25 25" fill="none" xmlns="http://www.w3.org/2000/svg">
<g clip-path="url(#clip0)">
<path d="M23.9131 16.5457C23.3687 15.8923 22.7502 15.3067 22.152 14.7404C21.9393 14.539 21.7194 14.3307 21.5073 14.1237C20.8987 13.5286 20.8765 13.305 21.3584 12.629C21.6918 12.1631 22.0453 11.6965 22.3872 11.2453C22.6973 10.836 23.0179 10.4126 23.3253 9.98791L23.3884 9.90059C23.9758 9.08783 24.5832 8.24741 24.9065 7.23358C24.9905 6.96611 25.0786 6.57249 24.8771 6.24336C24.6757 5.9145 24.2849 5.81417 24.0085 5.76731C23.8718 5.74412 23.736 5.74095 23.61 5.74095L19.7633 5.7382L19.7315 5.73793C19.1499 5.73793 18.7579 6.01201 18.5333 6.57593C18.3189 7.11474 18.0833 7.68851 17.8145 8.23406C17.2797 9.32042 16.6003 10.5717 15.6173 11.6152L15.5758 11.6596C15.4597 11.7844 15.3282 11.9256 15.232 11.9256C15.2173 11.9256 15.2013 11.9228 15.1831 11.9171C14.9795 11.8378 14.8428 11.3448 14.849 11.1156C14.8491 11.1124 14.8492 11.1092 14.8492 11.1061L14.8465 6.66002C14.8465 6.64461 14.8454 6.62933 14.8434 6.61406C14.7455 5.89131 14.5288 5.44141 13.7097 5.281C13.688 5.27667 13.6658 5.27454 13.6436 5.27454H9.64377C8.9921 5.27454 8.63303 5.5394 8.2955 5.93583C8.2044 6.04181 8.01474 6.26242 8.10874 6.53004C8.20412 6.80164 8.51371 6.85972 8.61452 6.87858C9.11493 6.97381 9.397 7.2799 9.47689 7.81471C9.61638 8.74342 9.63351 9.73468 9.53084 10.9343C9.50222 11.2677 9.44558 11.5252 9.35227 11.7452C9.3306 11.7965 9.25373 11.9641 9.17535 11.9642C9.15044 11.9642 9.07839 11.9544 8.94717 11.864C8.63689 11.6514 8.40987 11.3481 8.14522 10.9734C7.24486 9.70096 6.48922 8.29923 5.8348 6.68714C5.5921 6.09369 5.13882 5.76146 4.5579 5.75169C3.91959 5.74199 3.34087 5.73731 2.78891 5.73731C2.18583 5.73731 1.62672 5.74288 1.08076 5.75423C0.613375 5.76249 0.29009 5.9026 0.119983 6.17097C-0.0503995 6.43955 -0.0393205 6.79235 0.152944 7.21941C1.69203 10.641 3.08749 13.1288 4.67777 15.2863C5.79207 16.7959 6.90974 17.8408 8.19476 18.5744C9.5486 19.3489 11.0658 19.7255 12.8329 19.7255C13.0332 19.7255 13.2404 19.7206 13.4492 19.7108C14.4761 19.6608 14.857 19.2891 14.9052 18.2894C14.9281 17.7784 14.984 17.2426 15.2351 16.7856C15.3937 16.4977 15.5415 16.4977 15.5901 16.4977C15.6837 16.4977 15.7997 16.5407 15.9243 16.6215C16.1478 16.7673 16.3395 16.9628 16.4966 17.1335C16.6444 17.2957 16.7907 17.4595 16.937 17.6234C17.2529 17.9772 17.5795 18.343 17.9207 18.6898C18.6674 19.4496 19.4901 19.7838 20.435 19.7112H23.9618C23.9693 19.7112 23.9769 19.711 23.9844 19.7105C24.3358 19.6873 24.6401 19.4923 24.8194 19.1757C25.0415 18.7834 25.037 18.2829 24.8074 17.8366C24.547 17.3319 24.2091 16.9007 23.9131 16.5457Z" fill="#7C7C7C"/>
</g>
<defs>
<clipPath id="clip0">
<rect width="25" height="25" fill="white"/>
</clipPath>
</defs>
</svg>
