<svg width="25" height="25" viewBox="0 0 25 25" fill="none" xmlns="http://www.w3.org/2000/svg">
<path fill-rule="evenodd" clip-rule="evenodd" d="M20.9588 5.00809C18.8538 2.90063 16.0543 1.73952 13.0719 1.73828C6.92647 1.73828 1.92494 6.73967 1.92247 12.8868C1.92165 14.8518 2.43498 16.77 3.41071 18.4608L1.82895 24.2383L7.73946 22.6878C9.36804 23.5762 11.2015 24.0444 13.0674 24.0449H13.0721C19.2169 24.0449 24.2189 19.0431 24.2213 12.8957C24.2225 9.9165 23.0639 7.1154 20.9588 5.00809ZM13.0719 22.162H13.0681C11.4053 22.1613 9.77454 21.7144 8.35153 20.8703L8.01329 20.6694L4.5059 21.5895L5.44208 18.1698L5.22166 17.8192C4.29401 16.3438 3.80415 14.6384 3.80498 12.8875C3.8069 7.77815 7.96413 3.62134 13.0757 3.62134C15.5509 3.62216 17.8776 4.58731 19.6272 6.33894C21.3768 8.09057 22.3397 10.4189 22.3389 12.895C22.3367 18.0048 18.1798 22.162 13.0719 22.162ZM18.155 15.2215C17.8765 15.082 16.5068 14.4083 16.2514 14.3152C15.9962 14.2222 15.8103 14.1759 15.6248 14.4547C15.4389 14.7335 14.9052 15.3611 14.7426 15.5469C14.58 15.7328 14.4176 15.7561 14.139 15.6166C13.8604 15.4772 12.9628 15.1829 11.8986 14.2339C11.0705 13.4952 10.5114 12.5829 10.3488 12.3041C10.1865 12.0251 10.3475 11.8888 10.4711 11.7356C10.7726 11.3611 11.0746 10.9684 11.1675 10.7826C11.2604 10.5967 11.2139 10.434 11.1441 10.2946C11.0746 10.1552 10.5175 8.78395 10.2854 8.22598C10.0591 7.68298 9.8296 7.75632 9.65849 7.7478C9.49617 7.7397 9.31036 7.73805 9.12456 7.73805C8.93889 7.73805 8.63704 7.80768 8.38161 8.08673C8.12631 8.36564 7.40671 9.03952 7.40671 10.4107C7.40671 11.782 8.40495 13.1067 8.5442 13.2926C8.68346 13.4785 10.5087 16.2924 13.3032 17.499C13.9679 17.7863 14.4867 17.9575 14.8914 18.0859C15.5588 18.298 16.166 18.268 16.6461 18.1963C17.1814 18.1163 18.2942 17.5223 18.5265 16.8717C18.7586 16.2209 18.7586 15.6632 18.6888 15.5469C18.6194 15.4307 18.4335 15.3611 18.155 15.2215Z" fill="#7C7C7C"/>
</svg>
