<svg width="25" height="25" viewBox="0 0 25 25" fill="none" xmlns="http://www.w3.org/2000/svg">
<path d="M23.7236 6.64199C23.4535 5.63791 22.6619 4.84641 21.6579 4.57604C19.8239 4.07422 12.4875 4.07422 12.4875 4.07422C12.4875 4.07422 5.15141 4.07422 3.31736 4.55702C2.33273 4.8271 1.52178 5.63805 1.2517 6.64199C0.769043 8.4759 0.769043 12.2792 0.769043 12.2792C0.769043 12.2792 0.769043 16.1017 1.2517 17.9164C1.52206 18.9204 2.31342 19.7119 3.3175 19.9822C5.17073 20.4842 12.4878 20.4842 12.4878 20.4842C12.4878 20.4842 19.8239 20.4842 21.6579 20.0014C22.662 19.7312 23.4535 18.9397 23.7239 17.9357C24.2064 16.1017 24.2064 12.2985 24.2064 12.2985C24.2064 12.2985 24.2257 8.4759 23.7236 6.64199ZM10.1518 15.7928V8.76558L16.2523 12.2792L10.1518 15.7928Z" fill="#7C7C7C"/>
</svg>
