<svg width="60" height="60" viewBox="0 0 60 60" fill="none" xmlns="http://www.w3.org/2000/svg">
<path d="M60 35.625C60 34.1225 59.4025 32.7225 58.3725 31.6899C59.54 30.4125 60.135 28.6999 59.9725 26.9175C59.68 23.7399 56.8174 21.2499 53.4525 21.2499H38.01C38.775 18.9274 40 14.67 40 11.25C40 5.82746 35.3925 1.25 32.5 1.25C29.905 1.25 28.0474 2.7125 27.97 2.7725C27.6724 3.01004 27.4999 3.37004 27.4999 3.74996V12.2274L20.2975 27.825L19.9999 27.9774V27.4999C19.9999 26.8099 19.4399 26.2498 18.7499 26.2498H6.24996C2.80254 26.25 0 29.0525 0 32.4999V52.5C0 55.9475 2.80254 58.7499 6.24996 58.7499H13.75C16.4524 58.7499 18.7624 57.0249 19.6324 54.6174C21.7125 55.6875 24.5125 56.25 26.25 56.25H49.1975C51.92 56.25 54.3026 54.4149 54.8625 51.885C55.15 50.58 54.9825 49.2675 54.4125 48.1275C56.2575 47.1999 57.5 45.2925 57.5 43.125C57.5 42.24 57.2975 41.3925 56.915 40.6275C58.76 39.6975 60 37.7925 60 35.625ZM54.7275 38.7099C54.245 38.7675 53.8375 39.0949 53.6825 39.5574C53.5301 40.02 53.6576 40.5274 54.0125 40.8624C54.6476 41.46 55.0001 42.2649 55.0001 43.125C55.0001 44.7024 53.8076 46.0275 52.2301 46.2099C51.7477 46.2675 51.3401 46.5949 51.1852 47.0574C51.0327 47.52 51.1602 48.0274 51.5152 48.3624C52.3377 49.1374 52.6677 50.2249 52.4202 51.345C52.1127 52.74 50.7577 53.75 49.1977 53.75H26.25C24.22 53.75 20.815 52.7975 19.635 51.615C19.2775 51.26 18.7375 51.155 18.2725 51.345C17.805 51.5375 17.5 51.995 17.5 52.5C17.5 54.5675 15.8175 56.25 13.75 56.25H6.24996C4.18242 56.25 2.49996 54.5675 2.49996 52.5V32.4999C2.49996 30.4324 4.18242 28.7499 6.24996 28.7499H17.5V30C17.5 30.4325 17.725 30.8349 18.0949 31.065C18.46 31.2849 18.9199 31.3074 19.3099 31.1175L21.8099 29.8674C22.0624 29.7424 22.2649 29.5324 22.3849 29.2749L29.8849 13.0249C29.9599 12.8599 29.9999 12.6799 29.9999 12.4999V4.42742C30.52 4.13996 31.4225 3.74996 32.5 3.74996C33.87 3.74996 37.5 7.15496 37.5 11.25C37.5 15.65 35.105 21.9924 35.0825 22.055C34.9376 22.4375 34.9875 22.87 35.22 23.21C35.455 23.5475 35.84 23.75 36.25 23.75H53.4525C55.5375 23.75 57.3075 25.2425 57.4825 27.1475C57.615 28.5725 56.9299 29.9275 55.7025 30.685C55.32 30.92 55.0925 31.345 55.11 31.7975C55.1275 32.25 55.3875 32.655 55.7875 32.8625C56.845 33.4 57.4999 34.46 57.4999 35.625C57.5 37.2024 56.3075 38.5275 54.7275 38.7099Z" fill="#1950DB"/>
<path d="M18.75 28.75C18.06 28.75 17.5 29.31 17.5 30V52.5C17.5 53.19 18.06 53.7501 18.75 53.7501C19.44 53.7501 20.0001 53.19 20.0001 52.5V30C20.0001 29.31 19.44 28.75 18.75 28.75Z" fill="#1950DB"/>
</svg>
