<svg width="59" height="59" viewBox="0 0 59 59" fill="none" xmlns="http://www.w3.org/2000/svg">
<path d="M59 23.969C59 25.4464 58.4124 26.8231 57.3996 27.8384C58.5477 29.0946 59.1328 30.7786 58.9729 32.5313C58.6853 35.6559 55.8705 38.1044 52.5616 38.1044H37.3765C38.1287 40.3882 39.3333 44.5747 39.3333 47.9377C39.3333 53.2698 34.8026 57.771 31.9583 57.771C29.4065 57.771 27.58 56.3329 27.5038 56.2739C27.2112 56.0403 27.0416 55.6863 27.0416 55.3127V46.9765L19.9592 31.639L19.6666 31.489V31.9586C19.6666 32.6371 19.1159 33.1878 18.4374 33.1878H6.14579C2.75583 33.1877 0 30.4319 0 27.0419V7.3752C0 3.98512 2.75583 1.22941 6.14579 1.22941H13.5208C16.1782 1.22941 18.4497 2.92566 19.3052 5.29303C21.3506 4.24083 24.1039 3.6877 25.8125 3.6877H48.3776C51.0547 3.6877 53.3975 5.49216 53.9481 7.97995C54.2308 9.2632 54.0661 10.5538 53.5056 11.6748C55.3199 12.5869 56.5417 14.4626 56.5417 16.594C56.5417 17.4642 56.3426 18.2976 55.9665 19.0498C57.7807 19.9643 59 21.8376 59 23.969ZM53.8154 20.9354C53.341 20.8788 52.9402 20.5569 52.7878 20.102C52.6379 19.6472 52.7633 19.1482 53.1123 18.8188C53.7368 18.2312 54.0834 17.4397 54.0834 16.594C54.0834 15.0428 52.9108 13.7398 51.3596 13.5604C50.8852 13.5038 50.4844 13.1819 50.3321 12.727C50.1822 12.2722 50.3075 11.7732 50.6566 11.4438C51.4654 10.6817 51.7899 9.61236 51.5465 8.51095C51.2442 7.1392 49.9117 6.146 48.3777 6.146H25.8125C23.8163 6.146 20.468 7.08262 19.3078 8.24545C18.9562 8.5945 18.4252 8.69775 17.9679 8.51095C17.5083 8.32162 17.2083 7.87175 17.2083 7.3752C17.2083 5.34212 15.5539 3.6877 13.5208 3.6877H6.14579C4.11271 3.6877 2.45829 5.34212 2.45829 7.3752V27.0419C2.45829 29.075 4.11271 30.7294 6.14579 30.7294H17.2083V29.5002C17.2083 29.0749 17.4295 28.6792 17.7933 28.453C18.1523 28.2367 18.6046 28.2145 18.9881 28.4013L21.4464 29.6305C21.6947 29.7535 21.8938 29.96 22.0118 30.2132L29.3868 46.1924C29.4606 46.3546 29.4999 46.5316 29.4999 46.7086V54.6465C30.0113 54.9292 30.8988 55.3127 31.9583 55.3127C33.3055 55.3127 36.875 51.9645 36.875 47.9377C36.875 43.611 34.52 37.3743 34.4978 37.3127C34.3553 36.9366 34.4044 36.5113 34.633 36.177C34.864 35.8451 35.2427 35.646 35.6458 35.646H52.5616C54.6119 35.646 56.3524 34.1784 56.5244 32.3051C56.6548 30.9039 55.9811 29.5714 54.7741 28.8265C54.398 28.5955 54.1743 28.1775 54.1915 27.7326C54.2087 27.2877 54.4644 26.8895 54.8577 26.6854C55.8975 26.1568 56.5416 25.1145 56.5416 23.969C56.5417 22.4178 55.3691 21.1148 53.8154 20.9354Z" fill="#1950DB"/>
<path d="M18.4372 30.729C17.7587 30.729 17.208 30.1783 17.208 29.4998V7.37479C17.208 6.69629 17.7587 6.14559 18.4372 6.14559C19.1157 6.14559 19.6664 6.69629 19.6664 7.37479V29.4998C19.6664 30.1783 19.1157 30.729 18.4372 30.729Z" fill="#1950DB"/>
</svg>
