<svg id="Capa_1" enable-background="new 0 0 512 512" height="512" viewBox="0 0 512 512" width="512" xmlns="http://www.w3.org/2000/svg"><g><path fill="#1950db" d="m56.739 242c-13.91 14.14-25.74 33.85-25.74 60 0 54.77 58.4 194.22 61.15 200.76 2.25 5.39 7.58 9.24 13.94 9.24h119.82c6.33 0 11.68-3.82 13.94-9.24 2.75-6.54 61.15-145.99 61.15-200.76 0-26.15-11.83-45.86-25.74-60z"/><path fill="#1950db" d="m210.849 12.9c-1.04-7.4-7.38-12.9-14.85-12.9h-60c-7.47 0-13.81 5.5-14.85 12.9l-28.17 199.1h146.04z"/><path fill="#1950db" d="m480.851 224.898-30-212c-1.048-7.398-7.38-12.898-14.852-12.898h-60c-7.473 0-13.805 5.5-14.853 12.898l-30 212c-1.273 9 5.71 17.102 14.853 17.102h120c9.122 0 16.127-8.085 14.852-17.102z"/><path fill="#1950db" d="m420.999 363.88v-91.88h-30v91.88c5.67-1.43 10.79-1.88 15-1.88s9.33.45 15 1.88z"/><path fill="#1950db" d="m405.999 392c-38.822 0-60 69.363-60 105 0 8.284 6.716 15 15 15h90c8.284 0 15-6.716 15-15 0-35.637-21.178-105-60-105z"/></g></svg>