<svg xmlns="http://www.w3.org/2000/svg" viewBox="0 0 500 500"><g id="freepik--background-complete--inject-85"><path d="M404,469.33c-1.54-1.32-5-5.5-2.32-10.35,1-1.79,3-2.67,4.89-3.45a20.07,20.07,0,0,0,5.36-2.78c2.91-2.47,3.71-6.58,5.64-9.88,2.22-3.79,6.36-6.63,10.73-6.43,5,.22,9.17,4.31,11.07,9s1.95,9.84,2,14.87c0,2.78-.1,5.92-2.14,7.8-1.89,1.73-4.72,1.75-7.28,1.67l-27.34-.84" style="fill:#f5f5f5"></path><path d="M456.34,394.12H384.42l13,77.26a8.63,8.63,0,0,0,6.14,6.87l.25.07c.22.06.42.13.64.17a9,9,0,0,0,1.46.17l0,.07.35-.06h32.05a9.22,9.22,0,0,0,1.76-.17,8.67,8.67,0,0,0,7.28-7.55l6.25-53.23.28-2.12h0l2.48-21.07ZM442.78,443.4H435.4l.74-22.42h8.55ZM445.41,421h7.06l-2.63,22.42h-6.35Zm-21.09,47.27-.45-19.47H434.5l-.64,19.47Zm-11.49-19.47h10.33l.45,19.47h-9.26Zm.8,19.47H405c-.82-5.25-1.89-12.09-3.05-19.47h10.2Zm-1.22-24.85L410.67,421h11.85L423,443.4Zm11.34,0L423.23,421h12.2l-.75,22.42Zm-.64-27.8-.48-20.76h13.66l-.69,20.76Zm-.71,0H410.25l-1.61-20.76h13.28Zm-12.86,0H396.69c-.45-2.86-.88-5.58-1.27-8-1.34-8.39-1.85-11.55-2.13-12.74h14.63ZM410,421l1.74,22.42H401.07c-.35-2.27-.71-4.57-1.08-6.88-.83-5.29-1.66-10.58-2.45-15.54Zm-9.61,22.42h-6.94L389.65,421h7.17C397.92,427.91,399.13,435.62,400.35,443.4Zm.85,5.38c1.05,6.74,2.1,13.38,3.05,19.47h-6.67l-3.27-19.47Zm33.37,19.47.65-19.47h7.1l-1.67,19.47Zm1.75-52.65.69-20.76h9.92l-1.78,20.76Zm-43.71-20.76c.29,1.5,1.6,9.67,3.36,20.76h-7.22l-3.48-20.76Zm54.32,73.41h-5.56L443,448.78h6.18Zm6.18-52.65h-7.24l1.77-20.76h7.9Z" style="fill:#e0e0e0"></path><path d="M204.76,230.56v-9.8a1.17,1.17,0,0,1,1.17-1.17h.44a1.17,1.17,0,0,1,1.17,1.17v.45h7.27v2.49h-7.17v6.86Z" style="fill:#e0e0e0"></path><path d="M197.07,232.53h18.69a.27.27,0,0,1,.27.27v30.56a.27.27,0,0,1-.27.27H197.07a.27.27,0,0,1-.27-.27V232.8A.28.28,0,0,1,197.07,232.53Z" style="fill:#ebebeb"></path><path d="M202.74,228.58h7.36a1.05,1.05,0,0,1,1.05,1.05v2.89a0,0,0,0,1,0,0h-9.47a0,0,0,0,1,0,0v-2.89A1.05,1.05,0,0,1,202.74,228.58Z" style="fill:#ebebeb"></path><rect x="207.48" y="237.37" width="8.34" height="20.58" style="fill:#fafafa"></rect><path d="M211.15,232.42c0,.17-2.17.31-4.85.31s-4.85-.14-4.85-.31a20.2,20.2,0,0,1,4.85-.3A20.2,20.2,0,0,1,211.15,232.42Z" style="fill:#e0e0e0"></path><path d="M197.76,253a70,70,0,0,1-.3-9.07,69.91,69.91,0,0,1,.3-9.06c.17,0,.3,4.06.3,9.06S197.93,253,197.76,253Z" style="fill:#fafafa"></path><polygon points="368.28 64.5 458.72 64.5 458.72 182.21 368.89 181.75 368.28 64.5" style="fill:#e0e0e0"></polygon><rect x="363.07" y="64.5" width="89.91" height="116.81" transform="translate(816.06 245.8) rotate(180)" style="fill:#fff"></rect><path d="M453.43,64.05v117.7h-90.8V64.05Zm-.89,116.81V64.94h-89V180.86Z" style="fill:#e0e0e0"></path><rect x="372.31" y="77.15" width="68.84" height="91.5" style="fill:#fff"></rect><path d="M372.31,77.15s0,.15,0,.44,0,.73,0,1.29c0,1.14,0,2.81,0,5,0,4.36,0,10.72.06,18.77,0,16.09.06,38.94.1,66l-.21-.21,68.83,0h0l-.23.23c0-34.07,0-65.66,0-91.5l.19.19-50-.1-13.92,0-3.67,0-1.27,0s.41,0,1.23,0l3.63,0,13.88,0,50.1-.1h.19v.19c0,25.84,0,57.43,0,91.5v.23h-.24l-68.83,0h-.21v-.21c0-27.14.08-50,.11-66.16,0-8,0-14.37.05-18.72,0-2.15,0-3.81,0-4.94,0-.55,0-1,0-1.26S372.31,77.15,372.31,77.15Z" style="fill:#e0e0e0"></path><path d="M362.86,181.3a12.06,12.06,0,0,1,1.22-2c.8-1.19,1.93-2.81,3.22-4.56s2.53-3.31,3.44-4.41a10.9,10.9,0,0,1,1.57-1.71,11.8,11.8,0,0,1-1.31,1.91L367.68,175l-3.34,4.48A10.16,10.16,0,0,1,362.86,181.3Z" style="fill:#e0e0e0"></path><path d="M363.07,64.5a63.51,63.51,0,0,1,4.81,6.18,64.75,64.75,0,0,1,4.43,6.47,69.17,69.17,0,0,1-4.8-6.19A66.64,66.64,0,0,1,363.07,64.5Z" style="fill:#e0e0e0"></path><line x1="452.98" y1="64.5" x2="441.15" y2="77.61" style="fill:#fff"></line><path d="M441.15,77.61a85.5,85.5,0,0,1,5.74-6.71A85,85,0,0,1,453,64.5a83,83,0,0,1-5.74,6.71A85,85,0,0,1,441.15,77.61Z" style="fill:#e0e0e0"></path><path d="M453,181.3a76,76,0,0,1-5.82-6.1,77.75,77.75,0,0,1-5.48-6.42,78.42,78.42,0,0,1,5.83,6.11A75,75,0,0,1,453,181.3Z" style="fill:#e0e0e0"></path><path d="M416.47,154.76a2.21,2.21,0,0,1,.1-.37l.33-1c.32-.94.76-2.29,1.34-4,1.18-3.5,2.89-8.51,5-14.69,1-3.1,2.21-6.49,3.45-10.13a5.35,5.35,0,0,0,.21-2.77,3.8,3.8,0,0,0-1.71-2.2c-1.7-1.06-3.83-1.4-5.86-2.24a6,6,0,0,1-2.74-2,4,4,0,0,1-.67-1.64A4.73,4.73,0,0,1,416,112a26.87,26.87,0,0,1,1.15-3.27,6.06,6.06,0,0,0,.42-3.3,7,7,0,0,0-4.49-4.89,14.44,14.44,0,0,0-7.17-.37,35.1,35.1,0,0,0-7.12,1.72,10.28,10.28,0,0,0-3,1.81,7.58,7.58,0,0,0-1.95,2.81,5.37,5.37,0,0,0-.24,3.28,8.24,8.24,0,0,0,1.7,2.84,7.65,7.65,0,0,1,1.69,3,3.5,3.5,0,0,1,0,1.76,2.74,2.74,0,0,1-1,1.44,8.43,8.43,0,0,1-3.11,1,5.79,5.79,0,0,0-2.71,1.22,7.73,7.73,0,0,0-2.54,5.06,17.74,17.74,0,0,0,.39,5.47c.35,1.74.73,3.41,1.16,5A80.3,80.3,0,0,0,394.57,151c.79,1.65,1.47,2.9,1.93,3.75l.52,1a2.28,2.28,0,0,1,.17.33,1.47,1.47,0,0,1-.21-.31l-.57-.93c-.49-.83-1.2-2.07-2-3.71a77.67,77.67,0,0,1-5.59-14.46c-.45-1.58-.84-3.26-1.21-5a18.12,18.12,0,0,1-.42-5.6,8.13,8.13,0,0,1,2.68-5.36,6.22,6.22,0,0,1,2.9-1.33,8.05,8.05,0,0,0,2.93-1,2.44,2.44,0,0,0,.82-2.69,7.13,7.13,0,0,0-1.6-2.8,8.49,8.49,0,0,1-1.8-3,5.89,5.89,0,0,1,.26-3.59,8.09,8.09,0,0,1,2.07-3,11.21,11.21,0,0,1,3.16-1.91,36.1,36.1,0,0,1,7.24-1.76,14.88,14.88,0,0,1,7.44.41,7.49,7.49,0,0,1,4.8,5.28,6.51,6.51,0,0,1-.45,3.56,27.27,27.27,0,0,0-1.13,3.2,3.63,3.63,0,0,0,.5,3,5.63,5.63,0,0,0,2.52,1.8c2,.82,4.11,1.16,5.92,2.3a4.2,4.2,0,0,1,1.9,2.47,5.66,5.66,0,0,1-.23,3c-1.24,3.66-2.44,7-3.51,10.12-2.17,6.16-3.93,11.15-5.15,14.63-.61,1.71-1.09,3-1.43,4l-.38,1A2.19,2.19,0,0,1,416.47,154.76Z" style="fill:#ebebeb"></path><path d="M407.58,129.43a16.28,16.28,0,0,1-2.63-3.12,16.23,16.23,0,0,1-2.21-3.42,16,16,0,0,1,2.63,3.11A15.94,15.94,0,0,1,407.58,129.43Z" style="fill:#ebebeb"></path><path d="M407.07,150.07a4.58,4.58,0,0,1-.17-1.12c-.07-.72-.14-1.77-.18-3.06a68.88,68.88,0,0,1,.42-10.14,72.14,72.14,0,0,1,1.88-10c.34-1.25.64-2.26.88-2.94a4.68,4.68,0,0,1,.42-1.06,5.35,5.35,0,0,1-.22,1.11c-.18.7-.43,1.72-.72,3a91.61,91.61,0,0,0-1.72,9.94,92.74,92.74,0,0,0-.58,10.07c0,1.29,0,2.34,0,3.06A5,5,0,0,1,407.07,150.07Z" style="fill:#ebebeb"></path><path d="M404.81,86.94a1,1,0,0,1,.3.09,3.26,3.26,0,0,1,.77.46,4.87,4.87,0,0,1,1.75,2.77,4.74,4.74,0,0,1,0,2.31,4.66,4.66,0,0,1-1.37,2.28,5.26,5.26,0,0,1-5.77.88,5.46,5.46,0,0,1-2.85-5.11,4.16,4.16,0,0,1,.94-2.49,5.12,5.12,0,0,1,1.86-1.37,5,5,0,0,1,3.26-.31,4.26,4.26,0,0,1,.84.32c.18.1.27.16.26.17s-.4-.15-1.14-.29a5.19,5.19,0,0,0-3.06.44,4.93,4.93,0,0,0-1.68,1.31,3.79,3.79,0,0,0-.8,2.25,5,5,0,0,0,2.6,4.62,4.82,4.82,0,0,0,5.22-.78,4.29,4.29,0,0,0,1.33-4.15,5,5,0,0,0-1.53-2.69C405.19,87.15,404.79,87,404.81,86.94Z" style="fill:#ebebeb"></path><path d="M403.63,110c.06,0,0,.43-.35,1a3.43,3.43,0,0,1-2.09,1.35,3.33,3.33,0,0,1-2.43-.47c-.55-.35-.75-.71-.7-.75s.35.19.87.43a3.45,3.45,0,0,0,4.06-.79C403.39,110.33,403.56,110,403.63,110Z" style="fill:#ebebeb"></path><path d="M412.64,109c.05,0-.17.44-.74.89a4.57,4.57,0,0,1-5.35.17c-.6-.42-.84-.8-.79-.84s.38.22,1,.52a5,5,0,0,0,4.95-.15C412.27,109.23,412.58,108.93,412.64,109Z" style="fill:#ebebeb"></path><rect x="222.65" y="139.89" width="6.09" height="9.87" style="fill:#f5f5f5"></rect><path d="M224,130h3.38a1.35,1.35,0,0,1,1.35,1.35v8.52a0,0,0,0,1,0,0h-6.09a0,0,0,0,1,0,0v-8.52A1.35,1.35,0,0,1,224,130Z" style="fill:#e0e0e0"></path><path d="M226.7,146l-.45-6.84-.93.36-.63,6a1.18,1.18,0,0,0,0,.59c.17.41.7.5,1.14.53.29,0,.64,0,.78-.24A.75.75,0,0,0,226.7,146Z" style="fill:#e0e0e0"></path><rect x="230.76" y="139.89" width="6.09" height="9.87" style="fill:#ebebeb"></rect><path d="M232.12,130h3.38a1.35,1.35,0,0,1,1.35,1.35v8.52a0,0,0,0,1,0,0h-6.09a0,0,0,0,1,0,0v-8.52A1.35,1.35,0,0,1,232.12,130Z" style="fill:#e0e0e0"></path><path d="M234.82,146q-.23-3.42-.46-6.84l-.93.36q-.3,3-.62,6a1.18,1.18,0,0,0,0,.59c.17.41.7.5,1.14.53.29,0,.64,0,.78-.24A.86.86,0,0,0,234.82,146Z" style="fill:#e0e0e0"></path><rect x="238.76" y="139.89" width="6.09" height="9.87" style="fill:#f5f5f5"></rect><path d="M240.11,130h3.38a1.35,1.35,0,0,1,1.35,1.35v8.52a0,0,0,0,1,0,0h-6.09a0,0,0,0,1,0,0v-8.52A1.35,1.35,0,0,1,240.11,130Z" style="fill:#e0e0e0"></path><path d="M242.81,146q-.23-3.42-.46-6.84l-.93.36q-.3,3-.62,6a1.18,1.18,0,0,0,0,.59c.17.41.7.5,1.14.53s.64,0,.78-.24A.75.75,0,0,0,242.81,146Z" style="fill:#e0e0e0"></path><rect x="267.87" y="139.89" width="6.09" height="9.87" style="fill:#f5f5f5"></rect><path d="M269.22,130h3.38a1.35,1.35,0,0,1,1.35,1.35v8.52a0,0,0,0,1,0,0h-6.09a0,0,0,0,1,0,0v-8.52A1.35,1.35,0,0,1,269.22,130Z" style="fill:#e0e0e0"></path><path d="M271.92,146l-.45-6.84-.93.36-.63,6a1.18,1.18,0,0,0,0,.59c.17.41.7.5,1.14.53s.64,0,.78-.24A.75.75,0,0,0,271.92,146Z" style="fill:#e0e0e0"></path><rect x="276.36" y="139.89" width="6.09" height="9.87" style="fill:#f5f5f5"></rect><path d="M277.71,130h3.38a1.35,1.35,0,0,1,1.35,1.35v8.52a0,0,0,0,1,0,0h-6.09a0,0,0,0,1,0,0v-8.52A1.35,1.35,0,0,1,277.71,130Z" style="fill:#e0e0e0"></path><path d="M280.41,146l-.45-6.84-.93.36q-.31,3-.62,6a1.3,1.3,0,0,0,0,.59c.17.41.7.5,1.15.53.28,0,.64,0,.77-.24A.75.75,0,0,0,280.41,146Z" style="fill:#e0e0e0"></path><rect x="284.85" y="139.89" width="6.09" height="9.87" style="fill:#f5f5f5"></rect><path d="M286.21,130h3.38a1.35,1.35,0,0,1,1.35,1.35v8.52a0,0,0,0,1,0,0h-6.09a0,0,0,0,1,0,0v-8.52A1.35,1.35,0,0,1,286.21,130Z" style="fill:#e0e0e0"></path><path d="M288.91,146q-.23-3.42-.46-6.84l-.93.36q-.3,3-.62,6a1.18,1.18,0,0,0,0,.59c.17.41.7.5,1.14.53s.64,0,.78-.24A.75.75,0,0,0,288.91,146Z" style="fill:#e0e0e0"></path><rect x="293.35" y="139.89" width="6.09" height="9.87" style="fill:#f5f5f5"></rect><path d="M294.7,130h3.38a1.35,1.35,0,0,1,1.35,1.35v8.52a0,0,0,0,1,0,0h-6.09a0,0,0,0,1,0,0v-8.52A1.35,1.35,0,0,1,294.7,130Z" style="fill:#e0e0e0"></path><path d="M297.4,146l-.45-6.84-.93.36-.63,6a1.18,1.18,0,0,0,0,.59c.17.41.7.5,1.14.53s.64,0,.78-.24A.75.75,0,0,0,297.4,146Z" style="fill:#e0e0e0"></path><rect x="197.09" y="149.76" width="115.34" height="8.54" style="fill:#e0e0e0"></rect><rect x="211.55" y="156.82" width="4.26" height="11.5" style="fill:#e0e0e0"></rect><rect x="292.41" y="157.5" width="4.26" height="11.5" style="fill:#e0e0e0"></rect><rect x="208.49" y="135.75" width="10.89" height="14.14" style="fill:#f5f5f5"></rect><rect x="210.26" y="140.5" width="7.28" height="3.95" style="fill:#fff"></rect><path d="M211.37,129.72h5.13a1.59,1.59,0,0,1,1.59,1.59v4.44a0,0,0,0,1,0,0h-8.31a0,0,0,0,1,0,0v-4.44A1.59,1.59,0,0,1,211.37,129.72Z" style="fill:#e0e0e0"></path><path d="M211,135.71a19.35,19.35,0,0,1-.11-2.9,19.35,19.35,0,0,1,.11-2.9,20.26,20.26,0,0,1,.1,2.9A20.26,20.26,0,0,1,211,135.71Z" style="fill:#ebebeb"></path><path d="M212.36,135.71a19.35,19.35,0,0,1-.11-2.9,19.35,19.35,0,0,1,.11-2.9,20.26,20.26,0,0,1,.1,2.9A20.26,20.26,0,0,1,212.36,135.71Z" style="fill:#ebebeb"></path><path d="M213.68,135.71a19.35,19.35,0,0,1-.11-2.9,19.35,19.35,0,0,1,.11-2.9,20.26,20.26,0,0,1,.1,2.9A20.26,20.26,0,0,1,213.68,135.71Z" style="fill:#ebebeb"></path><path d="M215,135.71a19.35,19.35,0,0,1-.11-2.9,19.35,19.35,0,0,1,.11-2.9,20.26,20.26,0,0,1,.1,2.9A20.26,20.26,0,0,1,215,135.71Z" style="fill:#ebebeb"></path><path d="M216.32,135.71a19.35,19.35,0,0,1-.11-2.9,19.35,19.35,0,0,1,.11-2.9,20.26,20.26,0,0,1,.1,2.9A20.26,20.26,0,0,1,216.32,135.71Z" style="fill:#ebebeb"></path><path d="M254.15,125V117.7a.89.89,0,0,1,.88-.88h.33a.88.88,0,0,1,.87.88V118h5.44v1.86H256.3V125Z" style="fill:#e0e0e0"></path><path d="M248.47,126.5h13.84a.27.27,0,0,1,.27.27v22.71a.27.27,0,0,1-.27.27H248.47a.27.27,0,0,1-.27-.27V126.78A.28.28,0,0,1,248.47,126.5Z" style="fill:#ebebeb"></path><path d="M252.91,123.55h5a1.05,1.05,0,0,1,1.05,1.05v1.9a0,0,0,0,1,0,0h-7.08a0,0,0,0,1,0,0v-1.9A1.05,1.05,0,0,1,252.91,123.55Z" style="fill:#ebebeb"></path><rect x="256.19" y="130.12" width="6.23" height="15.39" style="fill:#fafafa"></rect><path d="M258.93,126.42a28.68,28.68,0,0,1-7.25,0,30,30,0,0,1,7.25,0Z" style="fill:#e0e0e0"></path><path d="M248.92,141.8a51.65,51.65,0,0,1-.23-6.78,51.65,51.65,0,0,1,.23-6.78,51.65,51.65,0,0,1,.23,6.78A51.65,51.65,0,0,1,248.92,141.8Z" style="fill:#fafafa"></path><rect x="240.76" y="85.32" width="6.09" height="9.87" style="fill:#f5f5f5"></rect><path d="M242.11,75.46h3.38a1.35,1.35,0,0,1,1.35,1.35v8.52a0,0,0,0,1,0,0h-6.09a0,0,0,0,1,0,0V76.81A1.35,1.35,0,0,1,242.11,75.46Z" style="fill:#e0e0e0"></path><path d="M244.81,91.44l-.45-6.84-.93.36-.63,6a1.17,1.17,0,0,0,0,.59c.17.41.7.5,1.14.54s.64,0,.78-.25A.73.73,0,0,0,244.81,91.44Z" style="fill:#e0e0e0"></path><rect x="248.87" y="85.32" width="6.09" height="9.87" style="fill:#ebebeb"></rect><path d="M250.23,75.46h3.38A1.35,1.35,0,0,1,255,76.81v8.52a0,0,0,0,1,0,0h-6.09a0,0,0,0,1,0,0V76.81A1.35,1.35,0,0,1,250.23,75.46Z" style="fill:#e0e0e0"></path><path d="M252.93,91.44c-.15-2.28-.31-4.56-.46-6.84l-.93.36c-.21,2-.41,4-.62,6a1.17,1.17,0,0,0,0,.59c.17.41.7.5,1.14.54.29,0,.64,0,.78-.25A.83.83,0,0,0,252.93,91.44Z" style="fill:#e0e0e0"></path><rect x="256.86" y="85.32" width="6.09" height="9.87" style="fill:#f5f5f5"></rect><path d="M258.22,75.46h3.38A1.35,1.35,0,0,1,263,76.81v8.52a0,0,0,0,1,0,0h-6.09a0,0,0,0,1,0,0V76.81A1.35,1.35,0,0,1,258.22,75.46Z" style="fill:#e0e0e0"></path><path d="M260.92,91.44l-.46-6.84-.93.36c-.2,2-.41,4-.62,6a1.17,1.17,0,0,0,0,.59c.17.41.7.5,1.14.54s.64,0,.78-.25A.83.83,0,0,0,260.92,91.44Z" style="fill:#e0e0e0"></path><rect x="267.87" y="85.32" width="6.09" height="9.87" style="fill:#f5f5f5"></rect><path d="M269.22,75.46h3.38A1.35,1.35,0,0,1,274,76.81v8.52a0,0,0,0,1,0,0h-6.09a0,0,0,0,1,0,0V76.81A1.35,1.35,0,0,1,269.22,75.46Z" style="fill:#e0e0e0"></path><path d="M271.92,91.44l-.45-6.84-.93.36-.63,6a1.17,1.17,0,0,0,0,.59c.17.41.7.5,1.14.54s.64,0,.78-.25A.73.73,0,0,0,271.92,91.44Z" style="fill:#e0e0e0"></path><rect x="276.36" y="85.32" width="6.09" height="9.87" style="fill:#f5f5f5"></rect><path d="M277.71,75.46h3.38a1.35,1.35,0,0,1,1.35,1.35v8.52a0,0,0,0,1,0,0h-6.09a0,0,0,0,1,0,0V76.81A1.35,1.35,0,0,1,277.71,75.46Z" style="fill:#e0e0e0"></path><path d="M280.41,91.44,280,84.6,279,85c-.21,2-.42,4-.62,6a1.3,1.3,0,0,0,0,.59c.17.41.7.5,1.15.54.28,0,.64,0,.77-.25A.73.73,0,0,0,280.41,91.44Z" style="fill:#e0e0e0"></path><rect x="284.85" y="85.32" width="6.09" height="9.87" style="fill:#f5f5f5"></rect><path d="M286.21,75.46h3.38a1.35,1.35,0,0,1,1.35,1.35v8.52a0,0,0,0,1,0,0h-6.09a0,0,0,0,1,0,0V76.81A1.35,1.35,0,0,1,286.21,75.46Z" style="fill:#e0e0e0"></path><path d="M288.91,91.44q-.23-3.42-.46-6.84l-.93.36c-.2,2-.41,4-.62,6a1.17,1.17,0,0,0,0,.59c.17.41.7.5,1.14.54s.64,0,.78-.25A.73.73,0,0,0,288.91,91.44Z" style="fill:#e0e0e0"></path><rect x="293.35" y="85.32" width="6.09" height="9.87" style="fill:#f5f5f5"></rect><path d="M294.7,75.46h3.38a1.35,1.35,0,0,1,1.35,1.35v8.52a0,0,0,0,1,0,0h-6.09a0,0,0,0,1,0,0V76.81A1.35,1.35,0,0,1,294.7,75.46Z" style="fill:#e0e0e0"></path><path d="M297.4,91.44,297,84.6,296,85l-.63,6a1.17,1.17,0,0,0,0,.59c.17.41.7.5,1.14.54s.64,0,.78-.25A.73.73,0,0,0,297.4,91.44Z" style="fill:#e0e0e0"></path><rect x="197.09" y="95.19" width="115.34" height="8.54" style="fill:#e0e0e0"></rect><rect x="211.55" y="102.25" width="4.26" height="11.5" style="fill:#e0e0e0"></rect><rect x="292.41" y="102.93" width="4.26" height="11.5" style="fill:#e0e0e0"></rect><polygon points="201.88 70.35 205.66 95.19 227.62 95.19 232.72 70.71 201.88 70.35" style="fill:#ebebeb"></polygon><path d="M229.65,86.27c0,.07-5.63.13-12.57.13s-12.57-.06-12.57-.13,5.62-.13,12.57-.13S229.65,86.2,229.65,86.27Z" style="fill:#fafafa"></path><path d="M229.73,85.05c0,.07-5.66.13-12.65.13s-12.66-.06-12.66-.13,5.67-.13,12.66-.13S229.73,85,229.73,85.05Z" style="fill:#fafafa"></path><path d="M229.69,83.67c0,.07-5.67.13-12.66.13s-12.65-.06-12.65-.13,5.66-.13,12.65-.13S229.69,83.6,229.69,83.67Z" style="fill:#fafafa"></path><path d="M208.18,93.78a20.09,20.09,0,0,1-.67-3.13,18.93,18.93,0,0,1-.42-3.17,19.45,19.45,0,0,1,.67,3.12A20.19,20.19,0,0,1,208.18,93.78Z" style="fill:#fafafa"></path><path d="M209.67,93.51a26.44,26.44,0,0,1-.27-3.05,23,23,0,0,1-.14-3.06,15.13,15.13,0,0,1,.4,3A15,15,0,0,1,209.67,93.51Z" style="fill:#fafafa"></path><path d="M212.4,93.51a15.35,15.35,0,0,1-.58-3.13,15.44,15.44,0,0,1-.16-3.18,27.69,27.69,0,0,1,.42,3.15A29.6,29.6,0,0,1,212.4,93.51Z" style="fill:#fafafa"></path><path d="M214.31,93.64a15.46,15.46,0,0,1-.31-3.18,16.14,16.14,0,0,1,.1-3.19,28.69,28.69,0,0,1,.16,3.18A27.48,27.48,0,0,1,214.31,93.64Z" style="fill:#fafafa"></path><path d="M217.69,93.51a18.59,18.59,0,0,1-.23-3,17.22,17.22,0,0,1,0-3,18.45,18.45,0,0,1,.23,3A18.53,18.53,0,0,1,217.69,93.51Z" style="fill:#fafafa"></path><path d="M220.16,93.64a20,20,0,0,1-.1-3.12,19,19,0,0,1,.15-3.12,18,18,0,0,1,.11,3.12A19.49,19.49,0,0,1,220.16,93.64Z" style="fill:#fafafa"></path><path d="M222.48,93.31a20.26,20.26,0,0,1,.19-3.26,20.47,20.47,0,0,1,.44-3.24,20.9,20.9,0,0,1-.18,3.26A21.13,21.13,0,0,1,222.48,93.31Z" style="fill:#fafafa"></path><path d="M225.47,93a11,11,0,0,1,.37-2.78,11,11,0,0,1,.82-2.68,24.6,24.6,0,0,1-.57,2.74A27.08,27.08,0,0,1,225.47,93Z" style="fill:#fafafa"></path><path d="M223.35,21.33s0,0,0,.12l-.1.35c-.11.33-.25.77-.42,1.34s-.41,1.29-.65,2.13-.53,1.77-.79,2.83-.58,2.21-.86,3.46-.56,2.59-.84,4c-.53,2.83-1,6-1.35,9.27s-.47,6.48-.51,9.36c0,1.44,0,2.81,0,4.09s.09,2.47.15,3.56.15,2.07.22,2.93.14,1.6.21,2.21.11,1.06.15,1.4l0,.36v.13l0-.12c0-.1,0-.22-.05-.37-.05-.33-.12-.8-.2-1.39s-.18-1.34-.25-2.21-.2-1.84-.26-2.93-.15-2.28-.19-3.57,0-2.65-.06-4.1c0-2.88.17-6.06.5-9.38s.82-6.45,1.36-9.29c.3-1.41.56-2.76.88-4s.59-2.41.88-3.46.58-2,.83-2.83.49-1.54.69-2.11.35-1,.47-1.33l.12-.34C223.33,21.36,223.35,21.32,223.35,21.33Z" style="fill:#ebebeb"></path><path d="M219.39,36.71a8.1,8.1,0,0,1,3.41-4.31,2,2,0,0,1,1.81-.34c.77.37.83,1.45.6,2.27a6,6,0,0,1-2.48,3.39,5.08,5.08,0,0,1-3.74.94" style="fill:#ebebeb"></path><path d="M218.06,47.1a13.6,13.6,0,0,1,4.05-6.52,2.56,2.56,0,0,1,.92-.49,1.07,1.07,0,0,1,1,.21,1.53,1.53,0,0,1,.22,1.42,8.65,8.65,0,0,1-6.41,6.45" style="fill:#ebebeb"></path><path d="M217.69,56.24a12.47,12.47,0,0,1,4.09-5.14,2,2,0,0,1,1.43-.51c.77.14,1.12,1.09,1,1.87a6,6,0,0,1-2.65,3.92,16.6,16.6,0,0,1-3.78,1.95" style="fill:#ebebeb"></path><path d="M217.89,62.81a12.27,12.27,0,0,1,3.48-4,2.62,2.62,0,0,1,1-.47,1.05,1.05,0,0,1,1,.39c.35.52,0,1.21-.35,1.7a10,10,0,0,1-5,3.65" style="fill:#ebebeb"></path><path d="M217.72,60.14a39.67,39.67,0,0,0-5-5.07c-.29-.23-.64-.49-1-.37a.74.74,0,0,0-.45.67,1.9,1.9,0,0,0,.19.83,9.65,9.65,0,0,0,6.4,5.39" style="fill:#ebebeb"></path><path d="M217.88,51.59,214,46.82a4.68,4.68,0,0,0-1.27-1.2,1.42,1.42,0,0,0-2.2,1.55,4.24,4.24,0,0,0,.76,1.57,11.75,11.75,0,0,0,2.85,3,4.78,4.78,0,0,0,3.57,1.1" style="fill:#ebebeb"></path><path d="M218.42,42a13.6,13.6,0,0,0-3.93-5.91,2.25,2.25,0,0,0-1-.59,1.72,1.72,0,0,0-1.8,1.25A3.24,3.24,0,0,0,212,39.3a6.83,6.83,0,0,0,1.84,2,15.49,15.49,0,0,0,4.35,2.34" style="fill:#ebebeb"></path><path d="M220,33.37a16,16,0,0,0-3.49-7.3c-.35-.47-.84-1-1.42-.88a1.16,1.16,0,0,0-.82.7,2.77,2.77,0,0,0-.15,1.11,8.52,8.52,0,0,0,5.54,7.62" style="fill:#ebebeb"></path><path d="M221.08,29a22.6,22.6,0,0,1-.14-4.27,7.61,7.61,0,0,1,1.42-4,3.3,3.3,0,0,1,1.42-1.14,1.78,1.78,0,0,1,1.74.24,1.87,1.87,0,0,1,.59,1.53,4.76,4.76,0,0,1-.44,1.64c-1,2.5-2.78,5.28-4.59,6" style="fill:#ebebeb"></path><path d="M204.05,32.28a1.35,1.35,0,0,1,0,.35c0,.26,0,.59,0,1s0,1,0,1.59,0,1.32.07,2.1c.07,1.55.22,3.4.46,5.44s.6,4.28,1.08,6.6,1.07,4.51,1.66,6.48,1.21,3.71,1.77,5.16c.27.74.55,1.38.77,2s.44,1.06.62,1.46l.39.92a1.4,1.4,0,0,1,.12.33,2.38,2.38,0,0,1-.17-.31l-.43-.9c-.19-.39-.42-.88-.66-1.45s-.53-1.21-.81-1.94c-.58-1.44-1.21-3.2-1.83-5.16s-1.19-4.17-1.68-6.5-.83-4.57-1.07-6.62-.35-3.91-.4-5.47c0-.77,0-1.48,0-2.1s0-1.15,0-1.59,0-.75,0-1A1.6,1.6,0,0,1,204.05,32.28Z" style="fill:#e0e0e0"></path><path d="M204.66,43.61a5.81,5.81,0,0,1,1.4-3.67,1.4,1.4,0,0,1,1.16-.62c.6.09.87.81.89,1.42a4.26,4.26,0,0,1-1,2.84A3.61,3.61,0,0,1,204.81,45" style="fill:#e0e0e0"></path><path d="M206,51a9.71,9.71,0,0,1,1.36-5.31,1.68,1.68,0,0,1,.52-.54.74.74,0,0,1,.72-.06A1.06,1.06,0,0,1,209,46a6.19,6.19,0,0,1-3,5.77" style="fill:#e0e0e0"></path><path d="M207.71,57.27a8.88,8.88,0,0,1,1.68-4.38,1.33,1.33,0,0,1,.86-.65c.56-.08,1,.49,1.12,1a4.33,4.33,0,0,1-1,3.24,11.42,11.42,0,0,1-2.16,2.14" style="fill:#e0e0e0"></path><path d="M209.26,61.7a8.75,8.75,0,0,1,1.52-3.44,1.78,1.78,0,0,1,.61-.55.75.75,0,0,1,.78,0c.35.27.27.81.12,1.23a7.11,7.11,0,0,1-2.59,3.55" style="fill:#e0e0e0"></path><path d="M208.57,59.92a27.84,27.84,0,0,0-4.48-2.38.8.8,0,0,0-.75,0,.52.52,0,0,0-.17.55,1.42,1.42,0,0,0,.31.53A6.91,6.91,0,0,0,209,60.87" style="fill:#e0e0e0"></path><path d="M206.84,54.06l-3.69-2.4a3.44,3.44,0,0,0-1.12-.55,1.16,1.16,0,0,0-1.14.35,1.13,1.13,0,0,0,0,1.19,3.07,3.07,0,0,0,.86.9A8.26,8.26,0,0,0,204.31,55,3.39,3.39,0,0,0,207,55" style="fill:#e0e0e0"></path><path d="M205.14,47.39a9.77,9.77,0,0,0-3.95-3.17,1.66,1.66,0,0,0-.83-.19,1.22,1.22,0,0,0-1,1.24,2.34,2.34,0,0,0,.8,1.69,5,5,0,0,0,1.67.93,11.35,11.35,0,0,0,3.46.66" style="fill:#e0e0e0"></path><path d="M204.35,41.21A11.38,11.38,0,0,0,200.41,37a1.2,1.2,0,0,0-1.16-.3.83.83,0,0,0-.41.66,1.92,1.92,0,0,0,.14.78,6.08,6.08,0,0,0,5.41,4" style="fill:#e0e0e0"></path><path d="M204.15,38a16.73,16.73,0,0,1-1-2.88,5.53,5.53,0,0,1,.11-3A2.34,2.34,0,0,1,204,31a1.26,1.26,0,0,1,1.23-.22,1.36,1.36,0,0,1,.74.92,3.27,3.27,0,0,1,.05,1.21c-.17,1.93-.75,4.19-1.84,5.06" style="fill:#e0e0e0"></path><path d="M231.82,32a1.6,1.6,0,0,1,0,.35c0,.25,0,.59,0,1s0,1,0,1.59,0,1.32,0,2.1c-.05,1.56-.18,3.42-.4,5.47s-.59,4.29-1.07,6.62-1.08,4.52-1.68,6.5-1.25,3.71-1.83,5.16c-.28.73-.57,1.37-.81,1.94s-.47,1.06-.66,1.45-.32.67-.44.9-.16.31-.16.31a1.4,1.4,0,0,1,.12-.33l.39-.92c.18-.4.39-.89.61-1.46s.51-1.22.78-2c.56-1.45,1.16-3.2,1.77-5.16s1.17-4.16,1.66-6.48.83-4.56,1.08-6.6.39-3.89.46-5.44c.05-.78.05-1.48.07-2.1s0-1.15,0-1.59,0-.75,0-1A1.35,1.35,0,0,1,231.82,32Z" style="fill:#ebebeb"></path><path d="M231.21,43.37a5.81,5.81,0,0,0-1.4-3.67,1.39,1.39,0,0,0-1.16-.62c-.6.09-.87.81-.89,1.42a4.26,4.26,0,0,0,1,2.84,3.61,3.61,0,0,0,2.34,1.44" style="fill:#ebebeb"></path><path d="M229.88,50.73a9.83,9.83,0,0,0-1.36-5.32,1.87,1.87,0,0,0-.52-.53.77.77,0,0,0-.72-.07,1.09,1.09,0,0,0-.45.93,6.19,6.19,0,0,0,3,5.77" style="fill:#ebebeb"></path><path d="M228.16,57a9,9,0,0,0-1.68-4.38,1.41,1.41,0,0,0-.86-.66c-.56-.07-1,.5-1.12,1a4.3,4.3,0,0,0,1,3.24,11.77,11.77,0,0,0,2.16,2.14" style="fill:#ebebeb"></path><path d="M226.61,61.46A8.86,8.86,0,0,0,225.09,58a1.86,1.86,0,0,0-.61-.54.75.75,0,0,0-.78.05c-.35.27-.27.81-.12,1.23a7.11,7.11,0,0,0,2.59,3.55" style="fill:#ebebeb"></path><path d="M227.3,59.68a27.07,27.07,0,0,1,4.48-2.38c.24-.1.54-.2.75,0a.52.52,0,0,1,.17.55,1.42,1.42,0,0,1-.31.53,6.91,6.91,0,0,1-5.52,2.29" style="fill:#ebebeb"></path><path d="M229,53.82l3.69-2.4a3.44,3.44,0,0,1,1.12-.55,1.16,1.16,0,0,1,1.14.35,1.14,1.14,0,0,1,0,1.18,3.11,3.11,0,0,1-.86.91,8.46,8.46,0,0,1-2.59,1.44,3.39,3.39,0,0,1-2.67,0" style="fill:#ebebeb"></path><path d="M230.73,47.15a9.88,9.88,0,0,1,4-3.18,1.76,1.76,0,0,1,.83-.18,1.22,1.22,0,0,1,1,1.24,2.34,2.34,0,0,1-.8,1.69,4.79,4.79,0,0,1-1.67.92,11.13,11.13,0,0,1-3.47.67" style="fill:#ebebeb"></path><path d="M231.52,41a11.38,11.38,0,0,1,3.94-4.22,1.2,1.2,0,0,1,1.16-.3.8.8,0,0,1,.4.66,1.76,1.76,0,0,1-.13.78,6.1,6.1,0,0,1-5.41,4" style="fill:#ebebeb"></path><path d="M231.72,37.75a15.89,15.89,0,0,0,1-2.88,5.53,5.53,0,0,0-.1-3,2.36,2.36,0,0,0-.73-1.07,1.26,1.26,0,0,0-1.23-.22,1.33,1.33,0,0,0-.74.92,3.23,3.23,0,0,0-.05,1.2c.17,1.93.75,4.2,1.84,5.07" style="fill:#ebebeb"></path><path d="M199.35,65.43v4.65a1.83,1.83,0,0,0,1.84,1.83H233a1.83,1.83,0,0,0,1.83-1.83V65.43Z" style="fill:#ebebeb"></path><polygon points="202.11 71.91 202.38 73.39 231.72 75.48 232.47 71.91 202.11 71.91" style="fill:#e0e0e0"></polygon><polygon points="64.12 42.73 132.11 42.73 132.11 131.22 64.58 130.88 64.12 42.73" style="fill:#e0e0e0"></polygon><rect x="60.2" y="42.73" width="67.6" height="87.82" transform="translate(188 173.28) rotate(180)" style="fill:#fff"></rect><path d="M128.13,42.39v88.49H59.87V42.39Zm-.67,87.82V43.06H60.54v87.15Z" style="fill:#e0e0e0"></path><rect x="67.15" y="52.24" width="51.75" height="68.79" style="fill:#fff"></rect><path d="M67.15,52.24s0,.12,0,.33,0,.55,0,1c0,.86,0,2.12,0,3.75,0,3.28,0,8.06,0,14.11,0,12.1,0,29.27.08,49.63l-.16-.15,51.75,0h0l-.17.17c0-25.61,0-49.36,0-68.79l.14.14-37.58-.07-10.46,0H68.1l-.95,0,.92,0H70.8l10.43,0,37.67-.07h.15v.14c0,19.43,0,43.18,0,68.79v.18h-.18l-51.75,0H67V121c0-20.4.06-37.61.08-49.73,0-6,0-10.81,0-14.08,0-1.62,0-2.86,0-3.71,0-.42,0-.73,0-.95S67.15,52.24,67.15,52.24Z" style="fill:#e0e0e0"></path><path d="M60.05,130.55a8.22,8.22,0,0,1,.91-1.49c.6-.89,1.45-2.11,2.42-3.43s1.9-2.49,2.59-3.31A7.6,7.6,0,0,1,67.15,121a9.49,9.49,0,0,1-1,1.43l-2.51,3.37c-.93,1.26-1.79,2.4-2.5,3.36A9.2,9.2,0,0,1,60.05,130.55Z" style="fill:#e0e0e0"></path><path d="M60.2,42.73a49.44,49.44,0,0,1,3.62,4.65,48.67,48.67,0,0,1,3.33,4.86,48.47,48.47,0,0,1-3.61-4.65A52.19,52.19,0,0,1,60.2,42.73Z" style="fill:#e0e0e0"></path><line x1="127.8" y1="42.73" x2="118.9" y2="52.59" style="fill:#fff"></line><path d="M118.9,52.59a65.28,65.28,0,0,1,4.32-5.05,63.14,63.14,0,0,1,4.58-4.81,65.28,65.28,0,0,1-4.32,5.05A65.53,65.53,0,0,1,118.9,52.59Z" style="fill:#e0e0e0"></path><path d="M127.8,130.55a59.57,59.57,0,0,1-4.38-4.59,58.24,58.24,0,0,1-4.12-4.83,59.57,59.57,0,0,1,4.38,4.59A56,56,0,0,1,127.8,130.55Z" style="fill:#e0e0e0"></path><path d="M97.89,113.09a13.89,13.89,0,0,1,.66-4.16,39.15,39.15,0,0,1,1.71-4.64,61.5,61.5,0,0,0,2.36-6.07,15,15,0,0,0,.55-7.7,14.88,14.88,0,0,0-1.74-4,24,24,0,0,1-2.14-4.2,6.89,6.89,0,0,1-.05-5,19.67,19.67,0,0,1,1.37-2.17,1.68,1.68,0,0,0,0-2.1A5.24,5.24,0,0,0,98.4,72l-2.54-.85a47.24,47.24,0,0,0-5.2-1.59,5.78,5.78,0,0,0-5,.83A5.48,5.48,0,0,0,84.09,75c.32,3.4,2.54,6.28,2.8,9.6a7.14,7.14,0,0,1-.16,2.44,6.11,6.11,0,0,1-1,2.14,43,43,0,0,1-3.05,3.21,6.17,6.17,0,0,0-1.74,3.51,10,10,0,0,0,.37,3.69,55.51,55.51,0,0,0,4.32,10.56c.64,1.2,1.17,2.11,1.53,2.72l.41.7a2,2,0,0,1,.13.25,1,1,0,0,1-.17-.22l-.46-.68c-.39-.59-1-1.49-1.61-2.67A52.66,52.66,0,0,1,80.9,99.7a10.46,10.46,0,0,1-.41-3.83,6.57,6.57,0,0,1,1.82-3.76,43.44,43.44,0,0,0,3-3.2,5.72,5.72,0,0,0,1-2,6.63,6.63,0,0,0,.13-2.27A16.23,16.23,0,0,0,85.05,80a17.48,17.48,0,0,1-1.47-5A6,6,0,0,1,85.33,70a4.87,4.87,0,0,1,2.61-1.1,8.9,8.9,0,0,1,2.82.15A49.57,49.57,0,0,1,96,70.64l2.54.86A5.57,5.57,0,0,1,101,72.76a1.91,1.91,0,0,1,.5,1.37,2.88,2.88,0,0,1-.45,1.32,21.79,21.79,0,0,0-1.35,2.12,6.54,6.54,0,0,0,0,4.63c1,3,3.23,5.32,3.85,8.22a15.24,15.24,0,0,1-.62,7.91,57.11,57.11,0,0,1-2.45,6.08A43.45,43.45,0,0,0,98.74,109a19.5,19.5,0,0,0-.7,3A10.65,10.65,0,0,1,97.89,113.09Z" style="fill:#ebebeb"></path><path d="M94,95.74c-.1.11-.79-.39-1.36-1.25s-.77-1.69-.64-1.74.53.64,1.07,1.45S94.14,95.64,94,95.74Z" style="fill:#ebebeb"></path><path d="M92.59,109.54a11.85,11.85,0,0,1,0-2.61c.11-1.6.34-3.81.73-6.23s.86-4.6,1.26-6.15a11.39,11.39,0,0,1,.78-2.49A14.32,14.32,0,0,1,95,94.63c-.31,1.57-.72,3.74-1.11,6.15s-.67,4.6-.87,6.19A15.37,15.37,0,0,1,92.59,109.54Z" style="fill:#ebebeb"></path><path d="M93.14,60.27s0-.37.55-.76a2.42,2.42,0,0,1,2.53-.15,4,4,0,0,1,1.93,3.23,11.22,11.22,0,0,1,0,2.24,4.58,4.58,0,0,1-.71,2.37,1.88,1.88,0,0,1-1.14.72A2.3,2.3,0,0,1,95,67.77a4.06,4.06,0,0,1-1.78-1.47,5.65,5.65,0,0,1-1-3.65A5.23,5.23,0,0,1,93,60.22a2.22,2.22,0,0,1,.61-.7,8.09,8.09,0,0,1-.44.8,5.56,5.56,0,0,0-.59,2.35,5.46,5.46,0,0,0,1,3.35,3.72,3.72,0,0,0,1.57,1.28A1.51,1.51,0,0,0,97,66.88a4.34,4.34,0,0,0,.62-2.1,11.08,11.08,0,0,0,0-2.14,3.67,3.67,0,0,0-1.63-3,2.26,2.26,0,0,0-2.24,0C93.31,60,93.18,60.3,93.14,60.27Z" style="fill:#ebebeb"></path><path d="M93.84,75.56s.43.25.65,1a2.71,2.71,0,0,1-3.41,3.4c-.72-.22-1-.62-1-.65s.4.19,1,.29a2.49,2.49,0,0,0,3-3C94,76,93.77,75.62,93.84,75.56Z" style="fill:#ebebeb"></path><path d="M53.5,378.24A35.71,35.71,0,0,0,38.18,373c-2.5-.26-5.24-.19-7.24,1.33a1.5,1.5,0,0,0-.75,1.32,1.63,1.63,0,0,0,.71.91c6.23,4.75,15.66,5.35,22.6,1.71" style="fill:#e0e0e0"></path><path d="M53.1,377.8a75.11,75.11,0,0,1-9.89-8.7A25.09,25.09,0,0,1,37,357.63a4.61,4.61,0,0,1,.49-3.84c7.89,6.16,14.08,14.13,15.6,24" style="fill:#e0e0e0"></path><path d="M53.42,378.18a35.66,35.66,0,0,1,.18-13,17.58,17.58,0,0,1,6.92-10.72c1.36,3.19.77,6.86-.19,10.19a49.41,49.41,0,0,1-6.86,14.44" style="fill:#e0e0e0"></path><path d="M61.15,392c-4.7.57-8.78,3-12.29,6.21a23.28,23.28,0,0,0-7,12.06c4.6-.28,8.5-3.53,11.34-7.16s4.79-7.64,7.9-11" style="fill:#e0e0e0"></path><path d="M62.82,394.24a30.28,30.28,0,0,1,3.5-28.65c2.68,9.51,1.69,20.25-3.5,28.65" style="fill:#e0e0e0"></path><path d="M73,406.4a21.91,21.91,0,0,0-21,12.06c-.26.52-.49,1.18-.14,1.64a1.55,1.55,0,0,0,1.39.41c4.13-.27,7.79-2.75,10.81-5.58s5.64-6.09,9-8.54" style="fill:#e0e0e0"></path><path d="M72.71,405.74A39,39,0,0,1,72.32,384c.77-2.8,2.06-5.76,4.65-7.07a.71.71,0,0,1,1.16.39,13.13,13.13,0,0,1,1.1,6.26,39.92,39.92,0,0,1-1,6.32c-.82,3.87-1.25,8-3.37,11.37a21.37,21.37,0,0,0-1.35,2.49c-.4.85-.41,1.15-.77,1.82" style="fill:#e0e0e0"></path><path d="M99.75,409.77c-2-7.62.12-16.86,4.92-23.1.35-.46.82-.95,1.4-.9.88.08,1.11,1.26,1.07,2.15a41.72,41.72,0,0,1-7.39,21.85" style="fill:#e0e0e0"></path><path d="M102.18,411.44c9.26,2.41,19.88.06,27.58-5.61A22.35,22.35,0,0,0,114.83,404c-5,1.14-9.54,3.37-12.65,7.44" style="fill:#e0e0e0"></path><path d="M104.24,406.36c5.18-8.45,15.12-14,25-14.47-1.14,4-4.45,7.16-8.18,9.05s-7.9,2.72-12,3.52c-1.6.31-3.79.65-4.83,1.9" style="fill:#e0e0e0"></path><path d="M100.26,381.75c1.4-4.81,2.82-9.66,3.2-14.66s-.33-10.21-2.92-14.5c-4.84,9.37-5.33,20.32-.42,29.66" style="fill:#e0e0e0"></path><path d="M116.56,373.51c5.67-10.29,17.22-18.52,28.91-19.67-4.51,11.23-16.81,19.91-28.91,19.67" style="fill:#e0e0e0"></path><path d="M113,375.52c8.45,1.29,15.64,6.68,23.53,10a10.54,10.54,0,0,0,5.33,1,4.16,4.16,0,0,0,2.6-7.36,11.39,11.39,0,0,0-3.86-2.35c-8.6-3.58-17.82-3.67-26.87-1.5" style="fill:#e0e0e0"></path><path d="M108.11,381.45c1.92.55,2.57,1.54,4.08,2.82A44,44,0,0,0,130,393.44c.68.17,1.58.24,1.91-.38s-.08-1.19-.46-1.67a24.56,24.56,0,0,0-10.77-7.31c-4.12-1.53-7.69-3.38-12.61-3" style="fill:#e0e0e0"></path><path d="M102.6,345.67a33.78,33.78,0,0,0,25.89,8.81,1.79,1.79,0,0,0,1.18-.42c.65-.71-.13-1.8-.89-2.4-7.61-5.93-16.83-8.39-26.18-6" style="fill:#e0e0e0"></path><path d="M109.14,343.28A36.07,36.07,0,0,1,141.45,338a25.66,25.66,0,0,1-15.4,6.76,48.74,48.74,0,0,1-16.91-1.43" style="fill:#e0e0e0"></path><path d="M106.54,326.84c-.75-7.6-.26-13.6-.79-21.23,0-.61-.17-1.34-.74-1.56-.8-.31-1.46.67-1.72,1.48a24.32,24.32,0,0,0,3.24,21.14" style="fill:#e0e0e0"></path><path d="M106,327.68a44.83,44.83,0,0,0,12.59-12.23c2.49-3.41,4.58-7.48,4-11.66a12,12,0,0,0-9.08,4.51,25.42,25.42,0,0,0-4.63,9.32c-1,3.34-1.71,6.77-2.9,10.06" style="fill:#e0e0e0"></path><path d="M118.36,324.24a101.33,101.33,0,0,0,31-18.26c-3.7-1.49-7.93-.6-11.63.89-8.45,3.42-15.36,9.17-19.5,17.29" style="fill:#e0e0e0"></path><path d="M109.47,331.84c5.72.62,11.53,1,17.2.08s10.85-3.14,16.06-5.34a1.91,1.91,0,0,0,1.09-.82,1.28,1.28,0,0,0-.39-1.38,3.39,3.39,0,0,0-1.37-.64c-5.67-1.58-11.78-.84-17.36,1a80.32,80.32,0,0,0-15.23,7.06" style="fill:#e0e0e0"></path><path d="M76.82,345.93c-3.9-7.87-3.65-17.06-.28-25.18,2.37,3.62,2.66,8.22,2.23,12.52S77,342,76.94,346.32" style="fill:#e0e0e0"></path><path d="M61.23,338.07a35.13,35.13,0,0,0-26.09,11.12c4.86.76,9.87-.49,14.29-2.65a72.46,72.46,0,0,0,12.24-8.2" style="fill:#e0e0e0"></path><path d="M50.76,334.57c-4.77-.39-9.35-1-13.93.43s-8.76,4.59-10.62,9a25.23,25.23,0,0,0,13.06-2.47,75.27,75.27,0,0,0,11.49-7" style="fill:#e0e0e0"></path><path d="M66.27,334.73c-4.29-2.81-8.69-5.67-13.68-6.83s-10.77-.31-14.25,3.45c4,2.37,8.94,2.65,13.62,2.65s10.43-.06,14.85,1.51" style="fill:#e0e0e0"></path><path d="M66.3,335c-7.33-7.19-10.11-20.12-7.16-30a45.68,45.68,0,0,1,7.16,30" style="fill:#e0e0e0"></path><path d="M86.45,314.57c1.38-3.22,2.35-6.59,3.59-9.86a28.26,28.26,0,0,1,5.13-9.09,13.49,13.49,0,0,1,9.07-4.7,36.58,36.58,0,0,1-17.61,23.7" style="fill:#e0e0e0"></path><path d="M82.8,318.81c-2.29-3.14-4.93-7.42-8-9.77s-7.14-3.77-10.93-2.87a25.44,25.44,0,0,0,19,12.64" style="fill:#e0e0e0"></path><path d="M83.53,314.83a54.53,54.53,0,0,1-3.62-11.71,18.33,18.33,0,0,1,1.84-11.91c4,7.61,5.32,15.77,2,23.7" style="fill:#e0e0e0"></path><path d="M86.48,291.21c2.28-7.53,9.18-13.08,16.64-15.63a6.22,6.22,0,0,1,2.91-.44,2.53,2.53,0,0,1,2.15,1.8c.27,1.28-.78,2.43-1.78,3.28a56.52,56.52,0,0,1-19.92,11" style="fill:#e0e0e0"></path><path d="M86.57,285.05c.29-4.86.59-9.79,2.17-14.4s4.63-8.92,9.06-10.94c.75,4.91-1.41,9.8-4,14s-5.76,8.21-7.33,12.92" style="fill:#e0e0e0"></path><path d="M86.45,288.4c-1.89-5.5-2.08-12.48-5.37-17.26-2.3-3.35-6-5.63-8-9.17a13.92,13.92,0,0,0,.46,10.41,30.32,30.32,0,0,0,6.08,8.71c2.44,2.6,4.52,4.56,6.79,7.31" style="fill:#e0e0e0"></path><path d="M86.48,450.18c-.14,0-.27-36.65-.28-81.84s.1-81.86.25-81.86.27,36.64.28,81.86S86.63,450.18,86.48,450.18Z" style="fill:#e0e0e0"></path><path d="M118.51,340.4a7.22,7.22,0,0,1-1.38.52l-3.79,1.28c-3.2,1.09-7.59,2.67-12.36,4.62s-9.17,3.67-11.7,5.86a8.63,8.63,0,0,0-2.36,3.12c-.36.86-.42,1.38-.47,1.37s0-.13,0-.38a5.9,5.9,0,0,1,.27-1.07A8.33,8.33,0,0,1,89,352.4a20.59,20.59,0,0,1,5.08-3.15c2-.95,4.28-1.94,6.67-2.92,4.78-2,9.21-3.49,12.44-4.49,1.62-.5,2.94-.87,3.85-1.12A8.44,8.44,0,0,1,118.51,340.4Z" style="fill:#e0e0e0"></path><path d="M129,314.62a2.64,2.64,0,0,1-.39.41l-1.17,1.1-4.39,4-14.62,13c-5.7,5.08-10.63,9.93-14,13.58-1.71,1.83-3,3.34-4,4.39l-1.06,1.22a2.88,2.88,0,0,1-.4.4s.09-.17.31-.47.55-.73,1-1.28c.87-1.1,2.18-2.65,3.86-4.51a183.35,183.35,0,0,1,14-13.72c5.72-5.07,10.93-9.62,14.72-12.9l4.5-3.86,1.24-1A2,2,0,0,1,129,314.62Z" style="fill:#e0e0e0"></path><path d="M102.29,338.29c-.15-.06,1-2.81,2.22-6.29s1.77-6.42,1.92-6.39a21.54,21.54,0,0,1-1.41,6.56,42.91,42.91,0,0,1-1.78,4.4A7.08,7.08,0,0,1,102.29,338.29Z" style="fill:#e0e0e0"></path><path d="M86.52,360.48a7.26,7.26,0,0,1-.88-1l-2.25-2.89c-1.9-2.45-4.51-5.82-7.44-9.51s-5.63-7-7.58-9.41l-2.3-2.85a6,6,0,0,1-.79-1.08,6.49,6.49,0,0,1,1,.95c.58.64,1.42,1.57,2.43,2.74,2,2.34,4.77,5.62,7.7,9.32s5.51,7.11,7.33,9.61c.9,1.26,1.63,2.28,2.11,3A6.83,6.83,0,0,1,86.52,360.48Z" style="fill:#e0e0e0"></path><path d="M79.5,351.46a12.83,12.83,0,0,1-3-5.51,15.74,15.74,0,0,1-.66-5.55l.23,0c-.1.43-.18.65-.22.64s-.05-.24,0-.68l.23,0a25.82,25.82,0,0,0,.94,5.4A40.33,40.33,0,0,0,79.5,351.46Z" style="fill:#e0e0e0"></path><path d="M70.43,340.06a9.35,9.35,0,0,0-2.05-1.2,13.87,13.87,0,0,0-5.71-.45,35.25,35.25,0,0,0-5.74.93,18.84,18.84,0,0,1-2.36.57,7.59,7.59,0,0,1,2.26-.93,25.8,25.8,0,0,1,5.8-1.1,12.52,12.52,0,0,1,5.89.64A3.63,3.63,0,0,1,70.43,340.06Z" style="fill:#e0e0e0"></path><path d="M68.28,337.29c0,.09-1.2-.48-3.15-1.14a31.54,31.54,0,0,0-15.85-1.21c-2,.36-3.26.74-3.29.66a3,3,0,0,1,.84-.36,20,20,0,0,1,2.37-.67,28.55,28.55,0,0,1,8.12-.57,28.06,28.06,0,0,1,7.94,1.8,18.5,18.5,0,0,1,2.25,1A3,3,0,0,1,68.28,337.29Z" style="fill:#e0e0e0"></path><path d="M86.45,325.61a66.78,66.78,0,0,1-2.3-8,66.41,66.41,0,0,1-1.78-8.11,66.62,66.62,0,0,1,2.3,8A66.06,66.06,0,0,1,86.45,325.61Z" style="fill:#e0e0e0"></path><path d="M86.59,325.61a37.45,37.45,0,0,0-2.54-4.78A20.93,20.93,0,0,0,80.31,317a3.54,3.54,0,0,1,1.44.75,11.47,11.47,0,0,1,2.73,2.81A10.57,10.57,0,0,1,86.59,325.61Z" style="fill:#e0e0e0"></path><path d="M86.48,430.64s-.16-.88-.57-2.43a34.88,34.88,0,0,0-2.45-6.35c-2.54-5.17-7.14-11.73-13-18.3-2.9-3.32-5.71-6.44-8.1-9.44a67.1,67.1,0,0,1-5.8-8.36,40.12,40.12,0,0,1-2.92-6.2c-.27-.76-.47-1.36-.58-1.77a4.37,4.37,0,0,1-.15-.64c.05,0,.32.84.92,2.34a45.06,45.06,0,0,0,3.06,6.08,69.46,69.46,0,0,0,5.85,8.25c2.4,3,5.22,6.07,8.12,9.39,5.87,6.59,10.47,13.23,12.93,18.49a31.56,31.56,0,0,1,2.32,6.46,17.12,17.12,0,0,1,.32,1.84A2.81,2.81,0,0,1,86.48,430.64Z" style="fill:#e0e0e0"></path><path d="M115.42,398a12.12,12.12,0,0,1-1.51.85,31.9,31.9,0,0,0-3.94,2.6,44.81,44.81,0,0,0-5.16,4.71c-1.82,1.92-3.68,4.14-5.59,6.53-3.81,4.78-7.38,9-9.51,12.39-1.09,1.67-1.87,3.09-2.39,4.08a11.3,11.3,0,0,1-.84,1.52,2.87,2.87,0,0,1,.14-.43c.12-.27.27-.68.51-1.18a39.53,39.53,0,0,1,2.26-4.19c2.07-3.46,5.61-7.75,9.42-12.53,1.91-2.38,3.8-4.61,5.64-6.53a41.91,41.91,0,0,1,5.3-4.67,27,27,0,0,1,4.06-2.48c.5-.26.91-.41,1.19-.53A1.3,1.3,0,0,1,115.42,398Z" style="fill:#e0e0e0"></path><path d="M116,408.56a21,21,0,0,1-3.21.47,42,42,0,0,0-7.6,1.49,22.94,22.94,0,0,0-6.81,3.58c-1.57,1.21-2.31,2.21-2.38,2.15a2.7,2.7,0,0,1,.48-.73,11.63,11.63,0,0,1,1.67-1.71A20.53,20.53,0,0,1,105,410a35.11,35.11,0,0,1,7.73-1.37A17.86,17.86,0,0,1,116,408.56Z" style="fill:#e0e0e0"></path><path d="M96.93,415.09c-.17-.1,1.28-2.3,2.4-5.27s1.29-5.62,1.48-5.59a4.93,4.93,0,0,1,0,1.72,18.56,18.56,0,0,1-.94,4.05A19.39,19.39,0,0,1,98,413.72,5.15,5.15,0,0,1,96.93,415.09Z" style="fill:#e0e0e0"></path><path d="M124.8,369.49a3.11,3.11,0,0,1-.52.27l-1.5.68c-.66.29-1.46.65-2.37,1.12s-2,.95-3.06,1.61l-1.75,1c-.6.35-1.2.76-1.84,1.16-1.29.78-2.58,1.74-4,2.73a67.73,67.73,0,0,0-15.25,15.78c-.94,1.41-1.86,2.73-2.59,4.05-.38.65-.77,1.26-1.1,1.88l-.94,1.78c-.62,1.13-1.06,2.2-1.5,3.12s-.78,1.73-1,2.4-.46,1.12-.63,1.53a2.8,2.8,0,0,1-.25.52,1.93,1.93,0,0,1,.15-.56l.54-1.56c.23-.69.54-1.51,1-2.45s.83-2,1.44-3.16c.29-.58.59-1.19.91-1.81s.71-1.25,1.08-1.91c.72-1.34,1.63-2.68,2.57-4.11a71.5,71.5,0,0,1,7-8.6,70.57,70.57,0,0,1,8.36-7.29c1.39-1,2.7-1.94,4-2.71.65-.4,1.26-.8,1.87-1.15l1.78-1c1.12-.64,2.19-1.1,3.12-1.54a22.45,22.45,0,0,1,2.41-1l1.54-.6A2.1,2.1,0,0,1,124.8,369.49Z" style="fill:#e0e0e0"></path><path d="M101.89,384.83a3.8,3.8,0,0,1,1.26-1.87,8,8,0,0,1,5.08-1.95,13.92,13.92,0,0,1,5.34,1,7.41,7.41,0,0,1,2,1,13.18,13.18,0,0,1-2.15-.63,16,16,0,0,0-5.2-.87,8.19,8.19,0,0,0-4.84,1.7A16.78,16.78,0,0,0,101.89,384.83Z" style="fill:#e0e0e0"></path><path d="M98.47,388.37a19.39,19.39,0,0,0,1.44-4.69,19.15,19.15,0,0,0-.32-4.9,3.37,3.37,0,0,1,.59,1.37,9.66,9.66,0,0,1,.26,3.59,9.56,9.56,0,0,1-1.08,3.43A3.2,3.2,0,0,1,98.47,388.37Z" style="fill:#e0e0e0"></path><path d="M61.17,435.9c.79,14,5,28.24,11.5,42.65H100.9c6.19-14.26,10.12-28.48,10.82-42.65Z" style="fill:#e0e0e0"></path><path d="M107.15,458.56c0,.15-9.3.26-20.76.26s-20.76-.11-20.76-.26,9.29-.27,20.76-.27S107.15,458.41,107.15,458.56Z" style="fill:#fafafa"></path><path d="M106.52,463.63c0,.15-8.72.27-19.46.27s-19.47-.12-19.47-.27,8.72-.26,19.47-.26S106.52,463.49,106.52,463.63Z" style="fill:#fafafa"></path><path d="M73.13,445.09a81.51,81.51,0,0,1,0,13,78.5,78.5,0,0,1,0-13Z" style="fill:#fafafa"></path><path d="M88.25,445.09a84.14,84.14,0,0,1,0,13.47,87.36,87.36,0,0,1,0-13.47Z" style="fill:#fafafa"></path><path d="M102.45,445a87.41,87.41,0,0,1,0,13.73,90.76,90.76,0,0,1,0-13.73Z" style="fill:#fafafa"></path><path d="M110.83,445.09c0,.15-10.91.27-24.35.27s-24.35-.12-24.35-.27,10.9-.26,24.35-.26S110.83,445,110.83,445.09Z" style="fill:#fafafa"></path></g><g id="freepik--Floor--inject-85"><path d="M455.23,478.78c0,.14-91.89.26-205.22.26s-205.24-.12-205.24-.26,91.87-.26,205.24-.26S455.23,478.63,455.23,478.78Z" style="fill:#263238"></path></g><g id="freepik--character-2--inject-85"><rect x="326.18" y="358.17" width="92.28" height="11.99" style="fill:#455a64"></rect><path d="M354.36,358.52a27.41,27.41,0,0,1-3.37,2.82,34.57,34.57,0,0,1-4,2.55,38.55,38.55,0,0,1-5.35,2.34,39.53,39.53,0,0,1-5.67,1.46,36.66,36.66,0,0,1-4.75.49,29.26,29.26,0,0,1-4.39-.15h.31l.87,0c.76,0,1.86,0,3.21,0a37,37,0,0,0,4.72-.53,41.88,41.88,0,0,0,5.63-1.46,40.06,40.06,0,0,0,5.33-2.32,38.49,38.49,0,0,0,4.05-2.49c1.1-.78,2-1.46,2.54-2l.67-.56C354.27,358.58,354.35,358.51,354.36,358.52Z" style="fill:#263238"></path><path d="M367.57,366.4l-.23-.1c-.15-.06-.37-.17-.66-.28a12.55,12.55,0,0,0-2.66-.69,12.24,12.24,0,0,0-4.29.16,11.76,11.76,0,0,0-5.05,2.45l0-.14a39.28,39.28,0,0,0,10.2,1.1,38.79,38.79,0,0,0,5.85-.59,8.59,8.59,0,0,0,2.9-.85,2.09,2.09,0,0,0,.94-1.13,2.16,2.16,0,0,0,0-1.48,3.65,3.65,0,0,0-2.68-2.18,21.55,21.55,0,0,0-3.54-.5,38.7,38.7,0,0,0-17.85,3.05,38.33,38.33,0,0,0-6.77,3.74c-.76.51-1.32,1-1.7,1.25s-.6.43-.6.43.19-.17.57-.47.92-.76,1.68-1.28a36.74,36.74,0,0,1,6.76-3.81A38.39,38.39,0,0,1,368.27,362a21.12,21.12,0,0,1,3.58.5,5,5,0,0,1,1.7.79,3.3,3.3,0,0,1,1.13,1.52,2.47,2.47,0,0,1,.06,1.63,2.32,2.32,0,0,1-1,1.24,9,9,0,0,1-3,.88,37.63,37.63,0,0,1-5.87.58A38.28,38.28,0,0,1,354.6,368l-.16,0,.13-.11a11.79,11.79,0,0,1,5.13-2.45,12,12,0,0,1,4.34-.12,12.17,12.17,0,0,1,2.66.73C367.27,366.23,367.57,366.4,367.57,366.4Z" style="fill:#263238"></path><path d="M379.52,358.48a2.55,2.55,0,0,1,.62.17,4.35,4.35,0,0,1,1.45,1,5,5,0,0,1,1.24,2.3,5.61,5.61,0,0,1-.26,3.19,7.6,7.6,0,0,1-4,4.1,9.81,9.81,0,0,1-1.65.61l-.47.11-.16,0a3.63,3.63,0,0,1,.6-.21,12.88,12.88,0,0,0,1.62-.66,7.72,7.72,0,0,0,3.84-4,5.49,5.49,0,0,0,.27-3.07,5,5,0,0,0-1.15-2.25A4.92,4.92,0,0,0,379.52,358.48Z" style="fill:#263238"></path><path d="M394,358.43a15.18,15.18,0,0,0-2,1,13.81,13.81,0,0,0-3.87,3.79,30.66,30.66,0,0,0-2.62,4.81c-.24.54-.47,1-.68,1.52a3.48,3.48,0,0,1-.27.54,2.56,2.56,0,0,1,.19-.58c.14-.36.35-.89.62-1.54a26.22,26.22,0,0,1,2.59-4.87,12.9,12.9,0,0,1,4-3.8,8.78,8.78,0,0,1,1.51-.72,3.4,3.4,0,0,1,.44-.14Z" style="fill:#263238"></path><path d="M409.9,365.52l-.53-.24a10,10,0,0,0-1.59-.51,9.09,9.09,0,0,0-6,.66,1.88,1.88,0,0,0-.75.58.71.71,0,0,0,.1.87,5.4,5.4,0,0,0,1.94.94,19.79,19.79,0,0,0,4.75,1,19.48,19.48,0,0,0,5.35-.26,5.41,5.41,0,0,0,2.55-1.07,2.24,2.24,0,0,0,.59-2.56,3.79,3.79,0,0,0-2-2,12.45,12.45,0,0,0-2.69-.88,18.62,18.62,0,0,0-13.93,2.28,19.16,19.16,0,0,0-4.62,4c-.46.56-.79,1-1,1.33l-.34.48a13.76,13.76,0,0,1,1.29-1.87,19,19,0,0,1,4.6-4.09,18.59,18.59,0,0,1,8.66-2.79,18.91,18.91,0,0,1,5.4.43,12.48,12.48,0,0,1,2.73.9,4,4,0,0,1,2.08,2.1,2.63,2.63,0,0,1,.13,1.52,2.41,2.41,0,0,1-.78,1.28,5.47,5.47,0,0,1-2.65,1.12,19.51,19.51,0,0,1-5.41.25,20.12,20.12,0,0,1-4.79-1l-1.06-.41A2.5,2.5,0,0,1,401,367a.85.85,0,0,1-.11-1.06,2,2,0,0,1,.81-.63,9,9,0,0,1,6.06-.61A7,7,0,0,1,409.9,365.52Z" style="fill:#263238"></path><polygon points="397.28 370 406.02 478.78 413.59 478.78 404.55 370 397.28 370" style="fill:#455a64"></polygon><polygon points="349.63 370 341.45 478.78 333.53 478.78 342.36 370 349.63 370" style="fill:#455a64"></polygon><path d="M418.46,358.17l2.36-114.85a8.63,8.63,0,0,0-8.51-10H353.36a11.57,11.57,0,0,0-11.44,9.85l-.69,115.29Z" style="fill:#455a64"></path><rect x="343.01" y="406.9" width="58.46" height="6.45" style="fill:#455a64"></rect><path d="M417.73,358.17c0,.15-14.65.26-32.71.26s-32.71-.11-32.71-.26,14.64-.26,32.71-.26S417.73,358,417.73,358.17Z" style="fill:#263238"></path><path d="M347.52,213.92c-.76-6.6-2-13.25-1.23-19.85l-35.48-26.76c-1.57,8.28.61,16.84,3.72,24.67s7.18,15.31,9.64,23.37,3.19,17.07-.34,24.73c-.66,1.43-1.48,3.07-.81,4.49.79,1.68,3.28,1.87,4.83.85s2.37-2.8,3.12-4.5c.08,1.35.17,2.7.25,4.05,6.65.09,12.46-5.19,14.9-11.37S348.28,220.52,347.52,213.92Z" style="fill:#263238"></path><path d="M394.79,227.59c-3-9.31-9.73-16.83-15.29-24.88a109.09,109.09,0,0,1-14.66-30.45c-1.89-6.27-3.87-12.54-7.43-18-4.86-7.5-18.64-12.3-26.74-8.95l9.9,13.45L370,235.8a27.1,27.1,0,0,0,2.92,6.09c4.44,6.33,13.13,7.77,19.37,12.33A34.51,34.51,0,0,0,394.79,227.59Z" style="fill:#263238"></path><path d="M355.89,175.12c-1.67,1.93-2.82,1.57-5.22.7a11.24,11.24,0,0,1-3.74-2.74c-4.74-4.56-9.83-8.94-15.85-11.61S318,158,311.91,160.56" style="fill:#FEF853"></path><path d="M357.48,168.58a30.36,30.36,0,0,0-7.93-16.64,19.46,19.46,0,0,0-10.2-6.07,26.91,26.91,0,0,0-19.63,2.93c-5.15,2.93-9.15,5.84-11.5,13.73l48.88,14A19.48,19.48,0,0,0,357.48,168.58Z" style="fill:#FEF853"></path><path d="M310.51,176.73a15.68,15.68,0,0,1-2.29-14.2,20.42,20.42,0,0,1,6.57-9c3.88-3.23,8.73-5.5,13.78-5.51s10.23,2.49,12.66,6.91c1.11,2,1.66,4.36,3.18,6.07.67.74,1.54,1.43,1.66,2.42a2.38,2.38,0,0,1-1.27,2.24,5.33,5.33,0,0,1-2.65.54c-3.11,0-6.11-1-9-2" style="fill:#263238"></path><path d="M344.41,159.28a4.18,4.18,0,0,0-5.09-2.43l-22.52,3.48h-.05C310,162.43,309,172.28,311.39,179c2.62,7.46,6.12,16.48,9.28,21.54,5.81,9.29,13.77,8.3,15.11,8.06a.24.24,0,0,1,.27.15c.71,2,6.62,18.77,7.69,21.8a.24.24,0,0,0,.43,0l17-25.94a.26.26,0,0,0,0-.23Z" style="fill:#ffbe9d"></path><path d="M317.7,186.32a1.53,1.53,0,0,0,1.95.84,1.47,1.47,0,0,0,.91-1.88,1.53,1.53,0,0,0-1.95-.84A1.46,1.46,0,0,0,317.7,186.32Z" style="fill:#263238"></path><path d="M315.28,182.81c.25.11,1-1.13,2.49-1.76s2.93-.35,3-.61c.05-.11-.27-.37-.9-.51a4.16,4.16,0,0,0-2.51.25,4.08,4.08,0,0,0-1.88,1.63C315.18,182.36,315.16,182.76,315.28,182.81Z" style="fill:#263238"></path><path d="M331.32,180.36a1.52,1.52,0,0,0,1.95.84,1.45,1.45,0,0,0,.91-1.87,1.52,1.52,0,0,0-1.95-.84A1.45,1.45,0,0,0,331.32,180.36Z" style="fill:#263238"></path><path d="M330.2,176.81c.25.11,1-1.12,2.49-1.75s2.93-.35,3-.61c.05-.11-.27-.37-.9-.51a4.16,4.16,0,0,0-2.51.25,4,4,0,0,0-1.88,1.63C330.1,176.37,330.08,176.77,330.2,176.81Z" style="fill:#263238"></path><path d="M329.47,190.3a10.48,10.48,0,0,0-2.63.59c-.4.13-.8.2-1,0a2.09,2.09,0,0,1-.22-1.25c0-1.08-.07-2.22-.11-3.41-.19-4.84-.5-8.75-.69-8.74s-.2,3.94,0,8.78c.05,1.18.1,2.32.16,3.4a2.45,2.45,0,0,0,.44,1.6,1,1,0,0,0,.87.29,2.85,2.85,0,0,0,.69-.19A10.53,10.53,0,0,0,329.47,190.3Z" style="fill:#263238"></path><path d="M336,208.56a30.17,30.17,0,0,0,13-10.09s-.47,9.11-11.82,12.71Z" style="fill:#eb996e"></path><path d="M331.64,193.66a3,3,0,0,1,2-2,2.69,2.69,0,0,1,2.1.19,1.71,1.71,0,0,1,.88,1.74,2,2,0,0,1-1.76,1.34,6.2,6.2,0,0,1-2.41-.33,1.65,1.65,0,0,1-.62-.27.54.54,0,0,1-.24-.56" style="fill:#eb996e"></path><path d="M334.34,189.46c-.25.09.44,1.73-.47,3.48s-2.72,2.31-2.64,2.54.53.16,1.27-.13a4.43,4.43,0,0,0,2.24-2,3.85,3.85,0,0,0,.29-2.87C334.8,189.73,334.45,189.4,334.34,189.46Z" style="fill:#263238"></path><path d="M327.67,171.72c.32.34,1.74-.49,3.6-1s3.49-.66,3.57-1.13c0-.22-.38-.5-1.13-.65a6,6,0,0,0-2.92.19,6.2,6.2,0,0,0-2.54,1.44C327.71,171.09,327.52,171.55,327.67,171.72Z" style="fill:#263238"></path><path d="M313.28,178.94c.41.23,1.3-.57,2.54-1.11s2.4-.75,2.49-1.21c0-.22-.28-.49-.87-.62a3.81,3.81,0,0,0-2.31.32,3.88,3.88,0,0,0-1.75,1.55C313.09,178.41,313.1,178.82,313.28,178.94Z" style="fill:#263238"></path><path d="M349.06,178.88c-.34-.82-.21-3.13.54-3.6,2-1.24,5.93-2.7,8.28,2.72,3.2,7.42-4.91,9.11-5,8.9S350.25,181.68,349.06,178.88Z" style="fill:#ffbe9d"></path><path d="M353.92,183.11s.17,0,.43,0a1.39,1.39,0,0,0,1-.4c.66-.62.78-2.15.24-3.5a4.58,4.58,0,0,0-1.16-1.7A1.63,1.63,0,0,0,353,177a.71.71,0,0,0-.61.68c0,.25.1.38.07.41s-.21-.06-.28-.39a.82.82,0,0,1,.09-.59,1,1,0,0,1,.63-.5,2,2,0,0,1,1.85.57,4.9,4.9,0,0,1,1.34,1.88c.59,1.51.43,3.24-.51,4a1.5,1.5,0,0,1-1.26.32C354,183.28,353.9,183.13,353.92,183.11Z" style="fill:#eb996e"></path><path d="M315.2,159.48a11.06,11.06,0,0,0,10.1,5.05c2.11-.19,4.43-.94,6.19.23s2.1,3.85,3.85,5.13c2.41,1.76,6.39,0,8.51,2.14.93.92,1.21,2.35,2.16,3.26a3.73,3.73,0,0,0,4.78-.06,6,6,0,0,0,1.92-4.68,16.3,16.3,0,0,0-1.11-5.08,28.82,28.82,0,0,0-4.58-9.13c-4.57-5.54-17.3-10.62-23.76-7.49" style="fill:#263238"></path><path d="M318.71,197s6.72-3.42,10.14-5,7.59-4,9.62-6.09,6.66-6,6.66-6l6.12,5.68s1.91,12.81-5.91,18.78c-6.91,5.28-11.87,8.31-20,3.36C321.19,205.11,318.71,197,318.71,197Z" style="fill:#e0e0e0"></path><path d="M346.17,188.61c-.08-.06-.92,1.13-2.49,2.84a34.94,34.94,0,0,1-15.15,9.68c-2.22.71-3.64,1-3.63,1.07a3.27,3.27,0,0,0,1-.09,22.08,22.08,0,0,0,2.73-.58,31.09,31.09,0,0,0,15.34-9.8,23,23,0,0,0,1.67-2.23A3.64,3.64,0,0,0,346.17,188.61Z" style="fill:#263238"></path><path d="M343.22,196.36c-.11-.13-2.56,1.92-5.84,4.08s-6.12,3.64-6,3.79a33.72,33.72,0,0,0,11.88-7.87Z" style="fill:#263238"></path><path d="M351,186.37c-.06,0,.12.22.57.38a4.44,4.44,0,0,0,2,.12,5.51,5.51,0,0,0,2.08-.75c.46-.29.64-.53.59-.56a11.72,11.72,0,0,1-2.66.91A10,10,0,0,1,351,186.37Z" style="fill:#e0e0e0"></path><path d="M345.26,180.29a10.93,10.93,0,0,0,.51-1.38,6.13,6.13,0,0,1,5.3-3.85,10.7,10.7,0,0,0,1.48-.06c0-.07-.53-.32-1.49-.35a5.77,5.77,0,0,0-5.68,4.12C345.12,179.69,345.19,180.29,345.26,180.29Z" style="fill:#e0e0e0"></path><path d="M347,156.52c.22.22-.91,1.82-3.64,3.21S336.49,162,332,162.14c-8.9.33-16-.93-16-1.63s7.17-.65,15.87-1a39.51,39.51,0,0,0,10.72-1.5C345.28,157.21,346.76,156.21,347,156.52Z" style="fill:#455a64"></path><path d="M371.71,202.34c-.12.1-.76-.35-1.65-1.41a22.46,22.46,0,0,1-3-5,72.67,72.67,0,0,1-3-8c-1-3-2-6.37-3.08-9.88-2.12-7-3.9-13.46-5.06-18.12a11.26,11.26,0,0,0-1-2.83,4.67,4.67,0,0,0-1.42-1.59c-1-.68-1.76-.62-1.79-.82s.16-.22.55-.3a3.22,3.22,0,0,1,1.71.22,5.14,5.14,0,0,1,2.16,1.68,11.27,11.27,0,0,1,1.57,3.1c1.62,4.55,3.67,10.87,5.79,17.91,1.06,3.51,2,6.88,2.89,9.94s1.57,5.8,2.35,8C370.25,199.71,372,202.08,371.71,202.34Z" style="fill:#455a64"></path><polygon points="290.54 427.76 293.75 455.37 314.31 452.96 312.58 419.54 290.54 427.76" style="fill:#ffbe9d"></polygon><path d="M315.18,449.41l-23,3.67,2.43,14.44s-22.15,11.7-21.85,16l45-5.91Z" style="fill:#455a64"></path><path d="M308.27,463.75a1.86,1.86,0,0,1,1.55,1.93,1.8,1.8,0,0,1-1.9,1.55,2,2,0,0,1-1.63-2.06,1.85,1.85,0,0,1,2.16-1.39" style="fill:#e0e0e0"></path><g style="opacity:0.6000000000000001"><path d="M317.77,477.64l-.6-3.63-42.93,7s-1.89,1.14-1.48,2.52Z" style="fill:#fff"></path></g><path d="M293.85,467.39c0,.22,1.15.18,2.32.74s1.87,1.41,2.07,1.3-.31-1.34-1.74-2S293.78,467.2,293.85,467.39Z" style="fill:#263238"></path><path d="M289.39,470c0,.22,1,.47,1.84,1.3s1.22,1.79,1.43,1.75.2-1.3-.9-2.31S289.36,469.75,289.39,470Z" style="fill:#263238"></path><path d="M287.45,476c.2,0,.36-1.12-.36-2.25s-1.81-1.47-1.88-1.28.65.76,1.23,1.69S287.23,476,287.45,476Z" style="fill:#263238"></path><path d="M293.55,462c.12.19,1.09-.24,2.34-.32s2.27.18,2.36,0-.94-.86-2.42-.75S293.42,461.88,293.55,462Z" style="fill:#263238"></path><path d="M293.21,459.2a2.28,2.28,0,0,1-.1-.9,6,6,0,0,1,.59-2.41,3,3,0,0,1,.44-.73,1,1,0,0,1,1-.37.74.74,0,0,1,.52.38,1,1,0,0,1,.06.61,6.25,6.25,0,0,1-.34,1c-.27.64-.48,1.27-.83,2a1.31,1.31,0,0,1-1.13.72,2.79,2.79,0,0,1-1.23-.35,10.8,10.8,0,0,1-1.93-1.33c-.29-.26-.55-.52-.8-.79a3,3,0,0,1-.65-.93,1,1,0,0,1,.36-1.17,1.17,1.17,0,0,1,1.12.09,6.93,6.93,0,0,1,1.32,1.13,9.24,9.24,0,0,1,1.43,2,2.28,2.28,0,0,1,.32.85,17.83,17.83,0,0,0-2-2.59,7.39,7.39,0,0,0-1.26-1,.76.76,0,0,0-.67-.08.49.49,0,0,0-.13.59,2.44,2.44,0,0,0,.56.75,9,9,0,0,0,.77.74,10.53,10.53,0,0,0,1.83,1.25,2.08,2.08,0,0,0,1,.29.78.78,0,0,0,.68-.44c.3-.6.56-1.32.83-1.92a7.16,7.16,0,0,0,.33-.88c.06-.27,0-.43-.2-.48-.44-.11-.77.41-1,.84A8.87,8.87,0,0,0,293.21,459.2Z" style="fill:#263238"></path><path d="M320.4,246.59s24.18,14.47,24,15l-6.66,19.81-23.05-27.89Z" style="fill:#eb996e"></path><polygon points="316.64 423.53 331.36 447.1 348.91 436.13 333.05 406.66 316.64 423.53" style="fill:#ffbe9d"></polygon><path d="M348.18,432.54,329,445.7l8.38,12s-15,20-12.89,23.84L362.61,457Z" style="fill:#455a64"></path><path d="M348.08,448.46a1.84,1.84,0,0,1,2.22,1.08,1.78,1.78,0,0,1-1.05,2.21,2,2,0,0,1-2.35-1.16,1.84,1.84,0,0,1,1.35-2.18" style="fill:#e0e0e0"></path><g style="opacity:0.6000000000000001"><path d="M362.61,457l-2.1-3-35.79,24.73s-1.22,1.83-.26,2.91Z" style="fill:#fff"></path></g><path d="M336.6,457.92c.13.19,1.12-.33,2.42-.32s2.29.47,2.42.29-.85-1.08-2.43-1.06S336.45,457.78,336.6,457.92Z" style="fill:#263238"></path><path d="M333.67,462.16c.07.21,1.08,0,2.23.38s1.86,1.1,2,1-.38-1.26-1.81-1.7S333.56,462,333.67,462.16Z" style="fill:#263238"></path><path d="M334.49,468.42c.19-.07-.15-1.17-1.29-1.88s-2.27-.56-2.24-.35.91.4,1.83,1S334.29,468.52,334.49,468.42Z" style="fill:#263238"></path><path d="M334,453.21c.19.12.88-.69,2-1.29s2.14-.81,2.13-1-1.22-.38-2.51.35S333.85,453.12,334,453.21Z" style="fill:#263238"></path><path d="M332.52,450.79s-.23-.24-.47-.77a5.87,5.87,0,0,1-.51-2.42,3.36,3.36,0,0,1,.09-.86,1,1,0,0,1,.73-.75.7.7,0,0,1,.63.13,1,1,0,0,1,.32.52,6.46,6.46,0,0,1,.11,1c0,.7.11,1.36.11,2.17a1.32,1.32,0,0,1-.72,1.12,2.46,2.46,0,0,1-1.26.21,10.22,10.22,0,0,1-2.32-.37c-.36-.11-.71-.23-1.05-.37a3,3,0,0,1-1-.56,1,1,0,0,1-.17-1.21,1.13,1.13,0,0,1,1-.4,6.2,6.2,0,0,1,1.68.46,8.76,8.76,0,0,1,2.15,1.2c.46.36.67.6.65.63a17.35,17.35,0,0,0-2.93-1.48,6.93,6.93,0,0,0-1.57-.36c-.26,0-.54.05-.63.21a.48.48,0,0,0,.14.59,2.43,2.43,0,0,0,.82.44,10,10,0,0,0,1,.34,9.73,9.73,0,0,0,2.19.34,2,2,0,0,0,1-.15.77.77,0,0,0,.43-.69c0-.66-.06-1.43-.08-2.09a6.34,6.34,0,0,0-.07-.94c-.07-.26-.2-.38-.39-.34-.44.09-.52.7-.54,1.19A8.81,8.81,0,0,0,332.52,450.79Z" style="fill:#263238"></path><path d="M268.44,353.37s20.11,97.74,20.11,97.74l28.47-1-10.16-75.78Z" style="fill:#FEF853"></path><path d="M268.44,353.37s20.11,97.74,20.11,97.74l28.47-1-10.16-75.78Z" style="opacity:0.30000000000000004"></path><path d="M336.7,316.42c-2.79.35-59.4,6.44-69.69,16.53-4.77,4.68-4.79,14.66-.45,24.89,13.72,32.38,58.06,83.71,58.06,83.71l22.09-13.18s-9.23-26.26-20.53-47.48c-2.4-4.51-9.19-18.55-10-21.17.15,1.53,39.42,1.82,58.63-.58,18.16-2.28,28.2-5.77,30.31-23.39,1.27-10.69-5.87-30-5.87-30Z" style="fill:#FEF853"></path><path d="M365.36,205.57S353.5,211.73,350,235.78,346.71,258,346.71,258l28.21,6.48s9.56-24.66,10-25.28S393.26,204.49,365.36,205.57Z" style="fill:#FEF853"></path><path d="M361.13,203.86c-1.85.44-27.92,38.21-29.9,47.8-1.61,7.82,2.67,28.74,2.67,28.74s-3.65,16.18-4.36,19-2,16.78-1.65,17.46c.05.1,1.74.28,4,1.08a69.41,69.41,0,0,1,10.8,4.73c5.74,3.48,31,10.05,40,7.68s20.35-15.87,20.35-15.87-10.17-47.38-9-57.57.95-22-1.42-30.32S380.68,199.21,361.13,203.86Z" style="fill:#FEF853"></path><g style="opacity:0.30000000000000004"><path d="M376.3,264a99.4,99.4,0,0,1-15.72,26.36,18.87,18.87,0,0,1-5.75,5.23c-2.34,1.18-11.05-.18-13.1-1.79a22,22,0,0,0,10.82,8.18,15.68,15.68,0,0,0,13.26-1.54c5-3.31,7.19-9.43,9.07-15.12q3.27-9.94,6.55-19.87C379.92,264.73,377.81,264.62,376.3,264Z"></path></g><path d="M403.05,314.51a4.86,4.86,0,0,1-.42.74c-.28.48-.74,1.16-1.35,2a36.38,36.38,0,0,1-6,6.63,29.09,29.09,0,0,1-11.79,6,42.34,42.34,0,0,1-16.24.74,72.66,72.66,0,0,1-15.74-4.16c-4.69-1.76-8.8-3.6-12.25-5.14s-6.22-2.83-8.23-3.49c-1-.35-1.78-.58-2.31-.75a5.86,5.86,0,0,1-.8-.27,4.69,4.69,0,0,1,.83.17c.54.13,1.34.34,2.35.66a84.88,84.88,0,0,1,8.31,3.35c3.47,1.49,7.59,3.29,12.27,5a74.74,74.74,0,0,0,15.64,4.1,42.78,42.78,0,0,0,16-.69A29.11,29.11,0,0,0,395,323.62a38,38,0,0,0,6.11-6.46c.63-.85,1.11-1.51,1.42-2A5.35,5.35,0,0,1,403.05,314.51Z" style="fill:#263238"></path><path d="M324.62,441.55a.72.72,0,0,1-.17-.17l-.47-.53-1.75-2.07-6.36-7.68c-5.35-6.51-12.75-15.5-20.48-25.78-3.85-5.14-7.39-10.15-10.51-14.77s-5.76-8.88-7.9-12.52c-1.09-1.8-2-3.48-2.83-4.93s-1.5-2.73-2-3.78l-1.24-2.41-.32-.63a1.21,1.21,0,0,1-.09-.22s.06.06.14.2l.36.6,1.33,2.37c.57,1,1.26,2.29,2.12,3.72s1.77,3.11,2.89,4.89c2.17,3.61,4.87,7.83,8,12.44S292,399.87,295.81,405c7.72,10.26,15.07,19.29,20.34,25.85l6.24,7.79,1.67,2.13.43.57C324.58,441.47,324.63,441.54,324.62,441.55Z" style="fill:#263238"></path><path d="M316.59,360a26.74,26.74,0,0,0-14.82-10.71" style="fill:#FEF853"></path><path d="M301.77,349.31a9.57,9.57,0,0,1,2.65.71,25,25,0,0,1,5.86,3.13,24.55,24.55,0,0,1,4.8,4.58,9.61,9.61,0,0,1,1.51,2.29A26.42,26.42,0,0,1,314.8,358a30.12,30.12,0,0,0-4.83-4.39,30.5,30.5,0,0,0-5.68-3.21C302.75,349.7,301.75,349.39,301.77,349.31Z" style="fill:#263238"></path><path d="M313.82,346.38a6,6,0,0,1,1.11,1.77,21.06,21.06,0,0,1,1.7,4.77A17,17,0,0,1,317,358a5.59,5.59,0,0,1-.42,2,27.14,27.14,0,0,0-.47-7A48.48,48.48,0,0,0,313.82,346.38Z" style="fill:#263238"></path><g style="opacity:0.30000000000000004"><path d="M401.48,316.43c-4.25,5.87-10.34,10.93-17.3,13-9.19,2.66-19.55,1.3-28.67-1.56s-17.28-7.48-26.26-10.53c5.84,3.31,9.84,6.36,15.14,9.16s10.71,5.41,16.6,6.89c4.95,1.25,9.18,2.2,14.24,1.54,4-.52,7.61-.68,11.32-2.29s7.22-3.24,10.12-5.87S401.7,320.34,401.48,316.43Z"></path></g><path d="M371.23,207.23a1.76,1.76,0,0,1-.29.05l-.85.14a21.17,21.17,0,0,0-3.22.86,16.8,16.8,0,0,0-4.66,2.46,13.28,13.28,0,0,0-2.38,2.27,8.25,8.25,0,0,0-1,1.48l-.45.82c-.14.28-.26.59-.39.89a73.45,73.45,0,0,0-2.84,8.13c-.91,3-1.78,6.2-2.68,9.61-1.78,6.83-3.61,14.43-5.39,22.53l-.19-.31,8.51,2.17,25.5,6.54-.27.13a76.29,76.29,0,0,0,6.86-37c-.05-1-.14-1.74-.17-2.25l0-.58V225a.69.69,0,0,1,0,.2l.08.57c.06.51.17,1.26.25,2.24a70.68,70.68,0,0,1,.22,8.49A74.47,74.47,0,0,1,381,265.2l-.08.18-.2,0-25.51-6.5-8.51-2.17-.24-.07.06-.24c1.79-8.1,3.64-15.7,5.44-22.53.93-3.41,1.81-6.64,2.74-9.62a74.91,74.91,0,0,1,2.91-8.15c.14-.31.26-.61.4-.9l.48-.84a9.25,9.25,0,0,1,1.06-1.51,13.77,13.77,0,0,1,2.46-2.29,16.92,16.92,0,0,1,4.75-2.42,19,19,0,0,1,3.27-.77c.38-.06.67-.08.87-.1Z" style="fill:#263238"></path><path d="M379.64,306.66a7.82,7.82,0,0,1-1.26.61c-.82.36-2,.87-3.5,1.46a58.22,58.22,0,0,1-12,3.51,28.59,28.59,0,0,1-12.49-.62,19.28,19.28,0,0,1-3.54-1.43,5.44,5.44,0,0,1-1.18-.74,35.14,35.14,0,0,0,4.82,1.81,29.87,29.87,0,0,0,12.31.46,65.79,65.79,0,0,0,12-3.34l3.56-1.3A6.52,6.52,0,0,1,379.64,306.66Z" style="fill:#263238"></path><path d="M319.17,249.08c.16.79,28.89,19.39,28.89,19.39l3.1-11,26.43,7.1s-6.42,24.7-15.83,32.36c-9.81,8-21-4.09-21-4.09l-30.5-34.17Z" style="fill:#ffbe9d"></path><path d="M286.81,229a4.12,4.12,0,0,1,2.66-3.08,1.46,1.46,0,0,1,1.5.17,1.66,1.66,0,0,1,.34,1.14,22.82,22.82,0,0,1-.2,3.79" style="fill:#455a64"></path><path d="M292.36,232.27a32.42,32.42,0,0,1,3.91.61,2.83,2.83,0,0,1,2,1.16,1.43,1.43,0,0,1-2,1.91" style="fill:#455a64"></path><path d="M295.4,223.7s-1.3-1-.65-2.1a10.13,10.13,0,0,1,4.42-3.19c1.74-.65,4.2-1.52,5.21-.65s7.25,5.72,7.53,7.68,1.24,12.74,1.24,12.74l9.26,8.47-7.73,6.9s-12.9-12.47-13.62-14.28a21.38,21.38,0,0,1-.95-5.07l-1.68-1.09s-1.87-3.47-1.79-4.13,1.79-1.88,1.79-1.88Z" style="fill:#455a64"></path><path d="M301.74,219.73l-7.17,4.6s2.62,3.81,2.78,3.66,5-3.27,6.91-4.51a.92.92,0,0,0,.25-1.27L303,220A.91.91,0,0,0,301.74,219.73Z" style="fill:#263238"></path><path d="M300,228.7c.07,0,.32.59,1,1.38a6.36,6.36,0,0,0,1.38,1.17c.28.18.61.32,1,.53a1.9,1.9,0,0,1,.92,1,1.74,1.74,0,0,1-1.14,2.15,2.81,2.81,0,0,1-2-.11,3.55,3.55,0,0,1-1.46-1c0-.08.62.3,1.59.63a2.57,2.57,0,0,0,1.69,0,1.28,1.28,0,0,0,.82-1.52c-.23-.62-1.05-.86-1.65-1.28a5.48,5.48,0,0,1-1.4-1.34A2.9,2.9,0,0,1,300,228.7Z" style="fill:#263238"></path><path d="M304.93,227.24A7,7,0,0,1,305,223c.15,0,.17,1,.14,2.13A5,5,0,0,1,304.93,227.24Z" style="fill:#263238"></path><path d="M303.83,238.3a25.67,25.67,0,0,1,.18-5.54l-4-4.83a5,5,0,0,1-1.2-2,1.77,1.77,0,0,1,.84-2c.83-.36,1.75.23,2.46.8a52.27,52.27,0,0,1,5.31,5" style="fill:#455a64"></path><path d="M307.45,229.67c-.06.05-1.09-1-2.87-2.62a38.07,38.07,0,0,0-3.23-2.65,2.37,2.37,0,0,0-1-.39,1.07,1.07,0,0,0-.92.37,1.69,1.69,0,0,0-.35,1.06,2.39,2.39,0,0,0,.34,1.16,14.13,14.13,0,0,0,1.25,1.66l1.28,1.57,2.25,2.8.06.07v.09c-.5,3.32-.27,5.51-.39,5.51a5.72,5.72,0,0,1-.19-1.51,23.39,23.39,0,0,1,.16-4.06l.05.16-2.32-2.75-1.28-1.55a13.28,13.28,0,0,1-1.31-1.73,2.44,2.44,0,0,1,.07-2.81,1.58,1.58,0,0,1,1.35-.53,2.73,2.73,0,0,1,1.24.47,32.11,32.11,0,0,1,3.23,2.79c.87.84,1.53,1.55,2,2.06A3.87,3.87,0,0,1,307.45,229.67Z" style="fill:#263238"></path><polygon points="295.36 225.47 292.36 227.52 292.95 228.4 296.11 226.5 295.36 225.47" style="fill:#e0e0e0"></polygon><path d="M292.36,227.52a3.73,3.73,0,0,1-2.19.53l-.06,1.11a5.75,5.75,0,0,0,2.84-.76Z" style="fill:#FEF853"></path><path d="M292.9,228.34a2.59,2.59,0,0,1-1.18.91,2.66,2.66,0,0,1-1.46.32c0-.06.64-.16,1.37-.5S292.86,228.3,292.9,228.34Z" style="fill:#FEF853"></path><path d="M285.71,230.47c-.08-.25.25-2,1.1-2a12.79,12.79,0,0,1,5.82,3.46,30.26,30.26,0,0,0,4.72,4s8.69,2.9,10.85,4.3,11.2,8.84,11.2,9.09-9.57,10.14-9.57,10.14l-4.8-8a1.89,1.89,0,0,1-2.75-.57c-1.3-1.71-.88-.86-.88-.86s-8.52-1.6-10.12-2-3.88-3.12-3.88-3.12-2.62-9.1-2.7-9.53S285.71,230.47,285.71,230.47Z" style="fill:#455a64"></path><path d="M293.7,240.61a26.77,26.77,0,0,1-4.44-4.59,27.77,27.77,0,0,1-3.67-5.22c.13-.09,1.84,2.19,4.07,4.89S293.81,240.51,293.7,240.61Z" style="fill:#263238"></path><path d="M299.52,244.81a13.94,13.94,0,0,1,3.07,6.14,16.93,16.93,0,0,1-1.62-3A17.3,17.3,0,0,1,299.52,244.81Z" style="fill:#263238"></path><path d="M302.42,244a13.36,13.36,0,0,1,2,3.65,13.18,13.18,0,0,1,1.24,4,22.25,22.25,0,0,1-1.72-3.77A22.22,22.22,0,0,1,302.42,244Z" style="fill:#263238"></path><path d="M319.4,249.34a3.64,3.64,0,0,1-.87-.54c-.54-.37-1.3-.93-2.23-1.65s-2-1.59-3.2-2.6c-.59-.51-1.2-1.05-1.81-1.64a14.62,14.62,0,0,0-2-1.64,20.32,20.32,0,0,0-2.19-1.33c-.73-.37-1.5-.68-2.2-1-1.42-.61-2.72-1.11-3.82-1.51-2.19-.79-3.58-1.2-3.56-1.27a3.28,3.28,0,0,1,1,.17c.63.15,1.55.4,2.67.76s2.44.82,3.88,1.41c.72.3,1.47.59,2.25,1a19.17,19.17,0,0,1,2.26,1.37,14.11,14.11,0,0,1,2,1.69c.6.59,1.2,1.13,1.77,1.65,1.16,1,2.22,1.92,3.12,2.67l2.12,1.78A4.36,4.36,0,0,1,319.4,249.34Z" style="fill:#263238"></path><path d="M297.93,236.27a6.4,6.4,0,0,1-2.31-1.22,10.83,10.83,0,0,1-2.1-1.94,31.44,31.44,0,0,0-2.22-2.6,6.79,6.79,0,0,0-2.73-1.82,2.28,2.28,0,0,0-2.36.51,3.35,3.35,0,0,0-.35,1.74c0,.43.1.66.06.68s-.19-.2-.27-.66a3.18,3.18,0,0,1,.25-2,2.6,2.6,0,0,1,2.79-.78,7,7,0,0,1,3,1.92,29.19,29.19,0,0,1,2.23,2.67,12.76,12.76,0,0,0,1.94,1.95C297.08,235.76,298,236.2,297.93,236.27Z" style="fill:#263238"></path></g><g id="freepik--character-1--inject-85"><rect x="92.29" y="359.11" width="92.28" height="11.99" transform="translate(276.87 730.2) rotate(180)" style="fill:#455a64"></rect><path d="M156.39,359.45a27.92,27.92,0,0,0,3.37,2.83,34.62,34.62,0,0,0,4,2.54,35.8,35.8,0,0,0,11,3.8,35,35,0,0,0,4.75.49A27.67,27.67,0,0,0,184,369h-.31l-.87,0c-.76,0-1.85,0-3.21,0a37.35,37.35,0,0,1-4.72-.54,39.08,39.08,0,0,1-5.63-1.46,40.06,40.06,0,0,1-5.33-2.32,34.35,34.35,0,0,1-4-2.49,31.41,31.41,0,0,1-2.54-1.95l-.67-.56Z" style="fill:#263238"></path><path d="M143.19,367.33l.22-.09.66-.29a12.55,12.55,0,0,1,2.66-.69,12.27,12.27,0,0,1,4.29.17,11.48,11.48,0,0,1,5,2.45l0-.15a39.15,39.15,0,0,1-16,.52,8.82,8.82,0,0,1-2.91-.86,2.07,2.07,0,0,1-.94-1.12,2.25,2.25,0,0,1,.05-1.49A3.7,3.7,0,0,1,139,363.6a21.41,21.41,0,0,1,3.53-.49,37.08,37.08,0,0,1,6.78.14,38.58,38.58,0,0,1,11.07,2.9,37.63,37.63,0,0,1,6.77,3.75c.77.5,1.32,1,1.7,1.24l.6.44s-.19-.17-.57-.47-.92-.76-1.68-1.28A36.68,36.68,0,0,0,160.4,366a38.3,38.3,0,0,0-11.11-3,37.39,37.39,0,0,0-6.81-.15,21.09,21.09,0,0,0-3.58.49,5.17,5.17,0,0,0-1.7.79,3.33,3.33,0,0,0-1.13,1.53,2.46,2.46,0,0,0-.06,1.63,2.4,2.4,0,0,0,1,1.24,9,9,0,0,0,3,.88,38.65,38.65,0,0,0,16.12-.57l.16,0-.13-.1a11.76,11.76,0,0,0-5.13-2.46,12.41,12.41,0,0,0-4.34-.12,11.29,11.29,0,0,0-2.65.74C143.48,367.17,143.19,367.33,143.19,367.33Z" style="fill:#263238"></path><path d="M131.24,359.41a2.37,2.37,0,0,0-.63.18,4.24,4.24,0,0,0-1.45,1,5,5,0,0,0-1.24,2.31,5.55,5.55,0,0,0,.27,3.19,7.59,7.59,0,0,0,4,4.1,9.92,9.92,0,0,0,1.65.6l.47.12.16,0a4.14,4.14,0,0,0-.6-.22,11.48,11.48,0,0,1-1.61-.66,7.66,7.66,0,0,1-3.85-4,5.48,5.48,0,0,1-.27-3.07,4.77,4.77,0,0,1,3.12-3.53Z" style="fill:#263238"></path><path d="M116.79,359.36a16.91,16.91,0,0,1,2,1,13.73,13.73,0,0,1,3.87,3.8,30.62,30.62,0,0,1,2.62,4.8c.24.54.47,1,.68,1.52a3.33,3.33,0,0,0,.28.55,4,4,0,0,0-.2-.58c-.14-.37-.35-.9-.62-1.55a26.67,26.67,0,0,0-2.58-4.86,13.2,13.2,0,0,0-4-3.81,8.78,8.78,0,0,0-1.51-.72l-.44-.14Z" style="fill:#263238"></path><path d="M100.85,366.46l.53-.24a8.91,8.91,0,0,1,1.59-.52,9.17,9.17,0,0,1,6,.67,1.73,1.73,0,0,1,.75.58.7.7,0,0,1-.1.86,5.24,5.24,0,0,1-1.94.94,19.85,19.85,0,0,1-10.1.73A5.39,5.39,0,0,1,95,368.42a2.23,2.23,0,0,1-.58-2.57,3.72,3.72,0,0,1,2-2,12.48,12.48,0,0,1,2.69-.89,18.85,18.85,0,0,1,5.34-.44,18.52,18.52,0,0,1,8.59,2.73,19.38,19.38,0,0,1,4.62,4c.46.56.79,1,1,1.33l.34.48a14.17,14.17,0,0,0-1.29-1.86,18.64,18.64,0,0,0-4.6-4.09,18.33,18.33,0,0,0-8.66-2.79,18.9,18.9,0,0,0-5.4.42,13.23,13.23,0,0,0-2.73.9,4.06,4.06,0,0,0-2.08,2.1,2.72,2.72,0,0,0-.13,1.52,2.47,2.47,0,0,0,.78,1.29,5.55,5.55,0,0,0,2.65,1.11,19.93,19.93,0,0,0,5.41.26,19.64,19.64,0,0,0,4.79-1c.37-.12.72-.26,1.06-.4a2.44,2.44,0,0,0,.94-.6.85.85,0,0,0,.11-1.06,1.89,1.89,0,0,0-.81-.63,9.17,9.17,0,0,0-6.06-.61A7.17,7.17,0,0,0,100.85,366.46Z" style="fill:#263238"></path><polygon points="113.47 370.93 105.33 478.62 97.76 478.62 106.2 370.93 113.47 370.93" style="fill:#455a64"></polygon><polygon points="161.12 370.93 168.39 478.62 175.95 478.62 168.39 370.93 161.12 370.93" style="fill:#455a64"></polygon><path d="M92.29,359.11,73,243a8.63,8.63,0,0,1,8.51-10h59a11.58,11.58,0,0,1,11.44,9.85l17.62,116.56Z" style="fill:#455a64"></path><rect x="109.29" y="407.84" width="58.46" height="6.45" transform="translate(277.03 822.13) rotate(180)" style="fill:#455a64"></rect><path d="M93,359.11c0-.15,14.64-.26,32.7-.26s32.71.11,32.71.26-14.64.26-32.71.26S93,359.25,93,359.11Z" style="fill:#263238"></path><path d="M195.21,184.38a6.56,6.56,0,0,1-2-1.15c-1.3-1.37-.52-3.61-.83-5.47-.65-3.95-6-5.43-7.42-9.16-.89-2.27-.14-4.81.29-7.21s.37-5.29-1.56-6.78c-1-.8-2.45-1-3.45-1.88-2.08-1.74-1.54-5-2-7.65a9.26,9.26,0,0,0-9.18-7.32s2.15-3.42-2-5.88c-5-3-5.85.8-8-1.91a8.06,8.06,0,0,0-9.86-2,22.15,22.15,0,0,1-2.95,1.68,15.75,15.75,0,0,1-4.12.47,12.06,12.06,0,0,0-10.63,10.12L157,203.12c.4,5.72,6.45,11.47,10.77,15.23a8.79,8.79,0,0,0,3.05,1.88,7.69,7.69,0,0,0,4.43-.12,12.67,12.67,0,0,0,7.46-5.92,8.11,8.11,0,0,0,11.54-10.52c-.43-.86-1-1.8-.7-2.7s1.18-1.19,1.93-1.6a8.44,8.44,0,0,0-.31-15Z" style="fill:#263238"></path><path d="M164.87,209.11l37.26,33.78,41-12.95,6.29,9.09s-42.16,25-48.71,25c-5.36,0-45.14-29.23-45.14-29.23Z" style="fill:#825549"></path><path d="M269.79,229.92l5.46-.78s5.15,1.53,6.31,1.66a4.17,4.17,0,0,0,3.39-1.51l-10.22-3.66H264.46l-11.7,1.69-11.83,3.16-1.55,3.37,6.58,4.88,2.77.23c1.43.65,13.71-3.19,13.71-3.19s5.79,3,7.09,3.38a3.06,3.06,0,0,0,2.34-.26s2.47,1.82,4,2.86,3.25-.78,3.25-.78a3,3,0,0,0,2.6-.65l-7.8-8.84Z" style="fill:#825549"></path><path d="M281.43,228a1.3,1.3,0,0,0,.72,1.16c.72.28,2.21.7,2.21.7s.54-.39.59-.57Z" style="fill:#FEF853"></path><path d="M249.1,239.2a4.68,4.68,0,0,1,1-.23c.65-.12,1.59-.3,2.75-.56a47.45,47.45,0,0,0,9.16-2.92l.05,0h.05l4.91-.05a2.94,2.94,0,0,0,1.66-.34.73.73,0,0,0,0-1.19,4.73,4.73,0,0,0-1.44-.83,16.47,16.47,0,0,0-1.55-.6,17.74,17.74,0,0,0-5.7-.82c-1.65,0-3,.13-3.92.19a7.56,7.56,0,0,1-1.45.06,7.73,7.73,0,0,1,1.43-.26c.92-.12,2.26-.29,3.94-.35a17.4,17.4,0,0,1,5.85.72c.53.17,1.07.37,1.6.6a5.16,5.16,0,0,1,1.6.93,1.47,1.47,0,0,1,.47,1,1.2,1.2,0,0,1-.52,1,3.4,3.4,0,0,1-2,.44l-4.9,0,.1,0a43.45,43.45,0,0,1-9.3,2.78c-1.19.21-2.14.34-2.79.41A4.36,4.36,0,0,1,249.1,239.2Z" style="fill:#5e3d37"></path><path d="M275.25,229.14a25.41,25.41,0,0,1-5.65,1,22.59,22.59,0,0,1-5.74.1,56.32,56.32,0,0,1,5.68-.62A40.69,40.69,0,0,1,275.25,229.14Z" style="fill:#5e3d37"></path><path d="M269.55,233.17s.15.09.42.24.66.37,1.16.62,1.09.55,1.74.92a2.77,2.77,0,0,1,.95.8c.27.33.49.68.74,1a20.9,20.9,0,0,0,4.5,4.08,4.3,4.3,0,0,1-1.66-.77,12,12,0,0,1-3.25-3,5.26,5.26,0,0,0-1.52-1.71l-1.68-1C270,233.78,269.45,233.25,269.55,233.17Z" style="fill:#5e3d37"></path><path d="M269.49,236.78a15.88,15.88,0,0,1,3.65,2.42,23.54,23.54,0,0,1,3.35,2.82c-.09.14-1.75-.93-3.66-2.41A22.75,22.75,0,0,1,269.49,236.78Z" style="fill:#5e3d37"></path><path d="M171.28,161.06a4.8,4.8,0,0,0,2,0,11.78,11.78,0,0,0,7.95-5.13,4.61,4.61,0,0,0,.84-1.81,16,16,0,0,0-1.16,1.59,13.38,13.38,0,0,1-7.7,5A16.9,16.9,0,0,0,171.28,161.06Z" style="fill:#455a64"></path><path d="M168.39,147.94a4.28,4.28,0,0,0,1.3,1.29,11.51,11.51,0,0,0,8.42,2.15,4.24,4.24,0,0,0,1.76-.52,18.2,18.2,0,0,1-6.05-.25A18.49,18.49,0,0,1,168.39,147.94Z" style="fill:#455a64"></path><path d="M189.61,212.92s.06,0,.18,0a3.45,3.45,0,0,0,.51-.15,6.29,6.29,0,0,0,1.79-1,7,7,0,0,0,2-2.52,6.78,6.78,0,0,0,.5-4.26,7.08,7.08,0,0,0-.93-2.35,9,9,0,0,0-1.82-2,9.43,9.43,0,0,1-1.89-2,2.82,2.82,0,0,1-.08-2.69,13.53,13.53,0,0,1,1.85-2.52,9.3,9.3,0,0,0,1-1.39,5.2,5.2,0,0,0,.56-1.68,5.89,5.89,0,0,0-3.22-6.09,19.25,19.25,0,0,0-3.51-.82,4.07,4.07,0,0,1-1.49-.63,2.43,2.43,0,0,1-.86-1.25,5,5,0,0,1,.34-3.09c.4-1,1-1.91,1.33-2.91a4.69,4.69,0,0,0,.21-3.13,5,5,0,0,0-1.77-2.38,13.88,13.88,0,0,0-4.79-2,10.5,10.5,0,0,1-3.78-1.72,4.65,4.65,0,0,1-1.58-2.62,3,3,0,0,1,.19-1.94c.19-.41.38-.57.35-.6a1.74,1.74,0,0,0-.45.55,3.06,3.06,0,0,0-.3,2,4.89,4.89,0,0,0,1.59,2.82,10.65,10.65,0,0,0,3.87,1.86,13.58,13.58,0,0,1,4.62,2,4.5,4.5,0,0,1,1.6,2.16,4.23,4.23,0,0,1-.22,2.81c-.36,1-.91,1.86-1.35,2.9a5.39,5.39,0,0,0-.37,3.43,2.89,2.89,0,0,0,1.05,1.52,4.51,4.51,0,0,0,1.68.74,19.19,19.19,0,0,1,3.42.78,5.39,5.39,0,0,1,2.91,5.52,5,5,0,0,1-.49,1.51,8.78,8.78,0,0,1-.91,1.31,13.83,13.83,0,0,0-1.9,2.64,3.3,3.3,0,0,0,.12,3.14,9.57,9.57,0,0,0,2,2.14,9.08,9.08,0,0,1,1.77,1.92,6.65,6.65,0,0,1,.9,2.21,6.46,6.46,0,0,1-.39,4.05,6.82,6.82,0,0,1-1.9,2.48A9.17,9.17,0,0,1,189.61,212.92Z" style="fill:#455a64"></path><path d="M160.67,206.68a15.67,15.67,0,0,1,8,7c3,5.35,2.22,8,1.43,11.15s-2.18,9.43-2.26,9S160.67,206.68,160.67,206.68Z" style="fill:#825549"></path><polygon points="160.33 206.68 153.99 202.91 124.46 191.86 130.25 241.49 152.05 255.22 164.96 248.75 166.26 234.39 160.33 206.68" style="fill:#825549"></polygon><polygon points="196.12 425.88 184.48 451.11 165.69 442.43 177.74 411.2 196.12 425.88" style="fill:#825549"></polygon><path d="M186.68,449.43l-6.8,13s17.41,18,15.78,22L154.72,464.8l11.25-26Z" style="fill:#FEF853"></path><path d="M168.07,454.56a1.85,1.85,0,0,0-2.07,1.35,1.78,1.78,0,0,0,1.32,2.06,2,2,0,0,0,2.19-1.44,1.85,1.85,0,0,0-1.61-2" style="fill:#e0e0e0"></path><g style="opacity:0.6000000000000001"><path d="M154.72,464.8l1.71-3.26,38.61,20s1.44,1.66.62,2.85Z" style="fill:#fff"></path></g><path d="M180.64,462.51c-.1.2-1.14-.19-2.43,0s-2.22.76-2.37.59.71-1.18,2.27-1.36S180.77,462.35,180.64,462.51Z" style="fill:#263238"></path><path d="M184.08,466.34c0,.22-1.07.14-2.16.66s-1.7,1.32-1.9,1.22.22-1.3,1.58-1.92S184.17,466.15,184.08,466.34Z" style="fill:#263238"></path><path d="M184.06,472.65c-.2,0,0-1.18,1-2s2.18-.84,2.18-.63-.85.51-1.69,1.22S184.27,472.73,184.06,472.65Z" style="fill:#263238"></path><path d="M182.59,457.51c-.17.14-1-.57-2.12-1s-2.22-.53-2.24-.75,1.17-.53,2.54,0S182.77,457.4,182.59,457.51Z" style="fill:#263238"></path><path d="M183.8,454.92a2.07,2.07,0,0,0,.37-.82,6,6,0,0,0,.2-2.47,3.18,3.18,0,0,0-.2-.84,1,1,0,0,0-.82-.66.72.72,0,0,0-.6.21,1,1,0,0,0-.25.56,5.94,5.94,0,0,0,0,1c0,.69,0,1.35.16,2.16a1.28,1.28,0,0,0,.85,1,2.55,2.55,0,0,0,1.28.06,10.13,10.13,0,0,0,2.25-.67,10.3,10.3,0,0,0,1-.49,2.78,2.78,0,0,0,.91-.69,1,1,0,0,0,0-1.22,1.16,1.16,0,0,0-1.09-.26,7.09,7.09,0,0,0-1.61.66,8.62,8.62,0,0,0-2,1.47c-.41.41-.59.68-.56.7a16.74,16.74,0,0,1,2.72-1.83,6.45,6.45,0,0,1,1.51-.56.74.74,0,0,1,.65.13.49.49,0,0,1-.06.61,2.56,2.56,0,0,1-.76.54,8.49,8.49,0,0,1-1,.45,9.73,9.73,0,0,1-2.13.62,2.13,2.13,0,0,1-1,0,.75.75,0,0,1-.51-.63c-.1-.66-.12-1.43-.19-2.09a6.27,6.27,0,0,1,0-.94c0-.27.15-.4.34-.38.45,0,.6.62.68,1.1A8.66,8.66,0,0,1,183.8,454.92Z" style="fill:#263238"></path><path d="M196.39,434.54l29.66-73.8s-.69-13.1-3.11-17.24-75.52-28.28-75.52-28.28-18.62-4.48-31,0-21.73,20-20,28.62,9,15,9,15l53.76,1.6,29.31,10.69-19.74,56.55S178.8,438.68,196.39,434.54Z" style="fill:#263238"></path><polygon points="222.65 385.06 223.34 412.85 202.66 413.35 199.67 380.01 222.65 385.06" style="fill:#825549"></polygon><path d="M224.58,410.36,224.2,425s23.57,8.46,23.88,12.8l-45.39.46L201.29,410Z" style="fill:#FEF853"></path><path d="M210.14,423.18a1.86,1.86,0,0,0-1.26,2.13,1.8,1.8,0,0,0,2.1,1.27,2,2,0,0,0,1.32-2.26,1.85,1.85,0,0,0-2.33-1.08" style="fill:#e0e0e0"></path><g style="opacity:0.6000000000000001"><path d="M202.69,438.27l.08-3.68,43.5.93s2,.86,1.81,2.29Z" style="fill:#fff"></path></g><path d="M224.93,424.77c0,.22-1.11.33-2.19,1.05s-1.66,1.67-1.86,1.58.11-1.37,1.44-2.22S225,424.56,224.93,424.77Z" style="fill:#263238"></path><path d="M229.71,426.69c.06.21-.9.6-1.64,1.54s-.95,1.94-1.17,1.94-.38-1.26.57-2.42S229.71,426.48,229.71,426.69Z" style="fill:#263238"></path><path d="M232.48,432.36c-.21.05-.52-1.06,0-2.28s1.59-1.71,1.69-1.53-.54.84-1,1.85S232.7,432.33,232.48,432.36Z" style="fill:#263238"></path><path d="M224.48,419.42c-.09.2-1.11-.09-2.36,0s-2.23.5-2.35.31.82-1,2.29-1.08S224.59,419.25,224.48,419.42Z" style="fill:#263238"></path><path d="M224.41,416.56a2,2,0,0,0,0-.9,6.19,6.19,0,0,0-.92-2.3,3.53,3.53,0,0,0-.54-.67,1.06,1.06,0,0,0-1-.23.76.76,0,0,0-.45.46,1,1,0,0,0,0,.61,6.22,6.22,0,0,0,.48.93c.35.59.65,1.19,1.1,1.86a1.31,1.31,0,0,0,1.21.55,2.7,2.7,0,0,0,1.18-.52,10.5,10.5,0,0,0,1.72-1.59,11.05,11.05,0,0,0,.68-.89,3,3,0,0,0,.51-1,1,1,0,0,0-.52-1.11,1.12,1.12,0,0,0-1.09.25,6.71,6.71,0,0,0-1.15,1.3,8.63,8.63,0,0,0-1.13,2.19,2.49,2.49,0,0,0-.2.88,18.55,18.55,0,0,1,1.64-2.84,6.71,6.71,0,0,1,1.1-1.17.75.75,0,0,1,.65-.17.48.48,0,0,1,.21.57,2.45,2.45,0,0,1-.44.82,10,10,0,0,1-.66.83,9.85,9.85,0,0,1-1.64,1.5,2.11,2.11,0,0,1-.92.42.74.74,0,0,1-.73-.34c-.38-.54-.74-1.22-1.09-1.79a5.86,5.86,0,0,1-.46-.82c-.09-.26,0-.42.14-.5.41-.17.82.3,1.1.7A8.6,8.6,0,0,1,224.41,416.56Z" style="fill:#263238"></path><path d="M210.57,307.93s12.4-1,13.78,12.46,2.73,76.22,2.73,76.22l-29,2.41-4.48-64.14-46.21-19.66S202.29,306.21,210.57,307.93Z" style="fill:#263238"></path><path d="M159.48,289.78s7.52,21.1,6.09,23.45-20.78,12-20.78,12L96.38,343.84s-5-7.91-5-20.06,16.83-34,16.83-34Z" style="fill:#263238"></path><path d="M145.13,314.14s.07.05.22.12l.69.32,2.68,1.2,10.07,4.38,34.74,14.95-.16-.22c.44,6.34.91,13.18,1.41,20.26C196,371.7,197,387,197.9,399v.21h.22l21.1-1.86,5.82-.54,1.51-.16.52-.07a2.92,2.92,0,0,0-.52,0l-1.53.09-5.82.43-21.12,1.67.24.2c-.83-12.08-1.88-27.34-3-43.89-.49-7.08-1-13.93-1.42-20.26v-.16l-.15-.06-34.82-14.78-10.12-4.25-2.71-1.11-.71-.28Z" style="fill:#455a64"></path><path d="M106.63,316.25a6.93,6.93,0,0,0,1.36-.37l3.64-1.17a79.33,79.33,0,0,1,12.2-3.09,36,36,0,0,1,12.49.16c3.15.66,5,1.56,5,1.45a6.27,6.27,0,0,0-1.26-.63,21.81,21.81,0,0,0-3.66-1.19,33.65,33.65,0,0,0-12.65-.32,68,68,0,0,0-12.24,3.25c-1.53.55-2.75,1-3.59,1.34A7.94,7.94,0,0,0,106.63,316.25Z" style="fill:#455a64"></path><path d="M113.47,305.13a38.45,38.45,0,0,1,4.23,0c1.31.09,2.86.29,4.58.49s3.62.44,5.58.81a25.87,25.87,0,0,1,9.49,3.52,28.86,28.86,0,0,1,3.29,2.65,3.52,3.52,0,0,0-.71-.91,14.15,14.15,0,0,0-2.37-2.06,24.26,24.26,0,0,0-9.6-3.73c-2-.38-3.89-.6-5.62-.77s-3.29-.34-4.62-.38a17.27,17.27,0,0,0-3.13.14A3.81,3.81,0,0,0,113.47,305.13Z" style="fill:#455a64"></path><path d="M160.67,206.68s8.23,26.39,8,33.95-3.32,29-3,33.26-1.11,15.89-6.27,15.89H108.24s-11.57-3.2-12.07-10.15,15.52-74.37,15.52-74.37,3-12.39,7.26-13.3,9,0,11.79,8.76,3.79,21.09,9.83,27.14,14.65,12.84,14.65,12.84,7-5.81,7.26-13.67-2.63-20.61-2.63-20.61Z" style="fill:#FEF853"></path><path d="M106.74,211.28a11,11,0,0,1,5.63-4.33,27,27,0,0,1,7.09-1.36,19,19,0,0,1,6.43.23c2.09.54,3,3.13,3.83,5.1a64.57,64.57,0,0,1-1.38,26.61,11,11,0,0,1-1.54,3.68,10.81,10.81,0,0,1-3,2.51,13.19,13.19,0,0,1-5.94,2.41c-3.83.3-7.38-2.49-9.17-5.89s-2.19-7.35-2.57-11.19l-.69-7.18C105.13,218.26,104.84,214.36,106.74,211.28Z" style="fill:#825549"></path><path d="M153.08,290.35a4.72,4.72,0,0,0,2-1.07,12.2,12.2,0,0,0,3.42-4.34,23.45,23.45,0,0,0,1.75-5.23,8.68,8.68,0,0,0,.35-2.25,9.85,9.85,0,0,0-.72,2.15,32.43,32.43,0,0,1-1.86,5.09,13.86,13.86,0,0,1-3.19,4.29C153.83,289.9,153,290.27,153.08,290.35Z" style="fill:#263238"></path><path d="M126,257.64a4.56,4.56,0,0,0,.86.72,15.48,15.48,0,0,0,2.65,1.55,16.14,16.14,0,0,0,4.37,1.31,15.09,15.09,0,0,0,5.6-.24,18.34,18.34,0,0,0,8.69-5.05,20.58,20.58,0,0,0,2-2.32,4.27,4.27,0,0,0,.6-1c-.08-.06-1,1.25-2.86,3a19.22,19.22,0,0,1-8.56,4.79,15.63,15.63,0,0,1-9.68-.89C127.29,258.56,126,257.55,126,257.64Z" style="fill:#263238"></path><path d="M153.71,289.4c.12.09.82-.71,1.06-2s-.09-2.27-.23-2.23a17.39,17.39,0,0,0-.3,2.12C154,288.46,153.58,289.32,153.71,289.4Z" style="fill:#263238"></path><path d="M132.49,211.16a2.59,2.59,0,0,1,1.25.63,2.89,2.89,0,0,1,.81,1.44,2.27,2.27,0,0,1-.47,2.05l-.19.19.26.08a4.83,4.83,0,0,1,2.9,2.6,5,5,0,0,1-.1,4.68l-.32.51.58-.15a3.42,3.42,0,0,1,3.72,5.19l.47.23a1.92,1.92,0,0,1,2.37-.92,3,3,0,0,1,2,2.1,11.46,11.46,0,0,1,.44,3.08l.07,1.49.44-1.43a1.75,1.75,0,0,1,1.93-1,2.45,2.45,0,0,1,1.73,1.46c.68,1.46.27,3.07,0,4.45l.42,0a2.33,2.33,0,0,1,.88-1.79,2.71,2.71,0,0,1,1.73-.64,2.25,2.25,0,0,1,2.09,1.88,2.76,2.76,0,0,1-.25,1.93c-.23.4-.44.55-.41.58a1.64,1.64,0,0,0,.52-.52,2.75,2.75,0,0,0,.37-2,2.78,2.78,0,0,0-.66-1.39,2.3,2.3,0,0,0-1.65-.78,3.1,3.1,0,0,0-2,.68,2.79,2.79,0,0,0-1.06,2.1v1.71l.41-1.66a16.3,16.3,0,0,0,.44-2.25,4.93,4.93,0,0,0-.37-2.51,2.9,2.9,0,0,0-2.09-1.75,2.25,2.25,0,0,0-2.51,1.37l.51.06a11.44,11.44,0,0,0-.46-3.22,4.46,4.46,0,0,0-.84-1.52,3,3,0,0,0-1.55-.93,3.1,3.1,0,0,0-1.76.05,2,2,0,0,0-1.25,1.21l-.75,2.13,1.22-1.89a3.92,3.92,0,0,0-4.28-5.95l.27.36a5.38,5.38,0,0,0,.06-5.11,5.17,5.17,0,0,0-3.18-2.74l.08.27a2.48,2.48,0,0,0,.47-2.33,3,3,0,0,0-.93-1.51,2.23,2.23,0,0,0-1-.49C132.62,211.14,132.49,211.14,132.49,211.16Z" style="fill:#FEF853"></path><path d="M160.42,206.83a.59.59,0,0,0-.15.2,1.89,1.89,0,0,0-.18.7,2.25,2.25,0,0,0,.24,1.14,2.06,2.06,0,0,0,1.19,1l-.05-.24a4,4,0,0,0-1.45,3.13,4.28,4.28,0,0,0,2.06,3.86l0-.39a4.23,4.23,0,0,0-1.42,4.35,11.26,11.26,0,0,0,2.53,4.49l.42-.32a2,2,0,0,0-3.11.23,3.09,3.09,0,0,0-.11,3,7.53,7.53,0,0,0,1.79,2.21l.27-.44a2.94,2.94,0,1,0-1.83,5.59l.6.17-.36-.51a2.19,2.19,0,0,0-2.12-.81,3.32,3.32,0,0,0-1.83.88,4.21,4.21,0,0,0-1.11,3,9.84,9.84,0,0,0,.17,2,2.46,2.46,0,0,0,.16.69c.07,0-.15-1-.08-2.69a4,4,0,0,1,1.1-2.73,3,3,0,0,1,1.63-.74,1.78,1.78,0,0,1,1.72.66l.24-.33A2.6,2.6,0,0,1,159,232a2.55,2.55,0,0,1,3.22-1.74l1.2.43-.93-.87a6.82,6.82,0,0,1-1.66-2,2.53,2.53,0,0,1,.06-2.46,1.45,1.45,0,0,1,2.24-.22l.43-.33a11.22,11.22,0,0,1-2.46-4.27,3.79,3.79,0,0,1,1.2-3.87l.3-.21-.33-.18a3.91,3.91,0,0,1-1.89-3.45,3.75,3.75,0,0,1,1.25-2.91l.21-.18-.26-.07a1.86,1.86,0,0,1-1.08-.88,2.17,2.17,0,0,1-.28-1A2.62,2.62,0,0,1,160.42,206.83Z" style="fill:#FEF853"></path><g style="opacity:0.30000000000000004"><path d="M149.89,253.84a14.91,14.91,0,0,1-5.27,10.07,12.38,12.38,0,0,1-11,2.39,10.62,10.62,0,0,1-7.49-8.14,31.31,31.31,0,0,0,8.18,2.85,16,16,0,0,0,15.78-7.45c-.14.14-.28.29-.41.44"></path></g><g style="opacity:0.30000000000000004"><path d="M160.65,278.26A11.52,11.52,0,0,1,157,289a2.51,2.51,0,0,1-2.3.78A27.47,27.47,0,0,0,160.59,278"></path></g><path d="M120.49,202.58s11.6,1.81,8.79,18.29-22.89,44.39-22.89,44.39L150.24,292l-5.11,11.87L88.26,280.42s-5.61-5.77-3.63-12.2,16.64-46.88,16.64-46.88S106.65,199.77,120.49,202.58Z" style="fill:#825549"></path><path d="M106.5,265.59a10.51,10.51,0,0,0,1-1.35c.62-.88,1.51-2.17,2.57-3.79,2.13-3.23,5-7.77,7.87-12.91s5.36-9.9,7-13.39c.84-1.74,1.5-3.16,1.94-4.15a9.63,9.63,0,0,0,.62-1.56,9.59,9.59,0,0,0-.81,1.47c-.54,1-1.24,2.42-2.09,4.07-1.76,3.44-4.25,8.17-7.16,13.3s-5.68,9.69-7.72,13c-1,1.57-1.81,2.88-2.43,3.88A9.61,9.61,0,0,0,106.5,265.59Z" style="fill:#5e3d37"></path><path d="M95.72,269.34a38.06,38.06,0,0,1,5.25-2.73,38.44,38.44,0,0,1,5.76-1.35,14.2,14.2,0,0,0-11,4.08Z" style="fill:#5e3d37"></path><path d="M150.24,292s14.23,4.56,15.51,7,6.78,12.4,6.78,12.4L156,313.86l-10.85-10Z" style="fill:#825549"></path><path d="M130.84,149l.09-4.06,24.57-3.65c7.55-.49,15.37,7.38,15.54,14.94.19,8.41.09,18.68-1.16,24.89-2.5,12.5-12.21,13.71-12.21,13.71l-.56,12.48-27.83-.78Z" style="fill:#825549"></path><path d="M167.45,165.44a1.61,1.61,0,0,1-1.62,1.57,1.55,1.55,0,0,1-1.61-1.52,1.62,1.62,0,0,1,1.62-1.57A1.55,1.55,0,0,1,167.45,165.44Z" style="fill:#263238"></path><path d="M168.17,161.45c-.21.2-1.4-.75-3.13-.82s-3,.75-3.23.53.14-.47.71-.85a4.49,4.49,0,0,1,2.59-.69,4.26,4.26,0,0,1,2.48.92C168.1,161,168.27,161.36,168.17,161.45Z" style="fill:#263238"></path><path d="M151.22,165.44A1.61,1.61,0,0,1,149.6,167a1.54,1.54,0,0,1-1.6-1.52,1.61,1.61,0,0,1,1.62-1.57A1.54,1.54,0,0,1,151.22,165.44Z" style="fill:#263238"></path><path d="M151.09,161.08c-.21.2-1.39-.75-3.13-.82s-3,.75-3.22.53.13-.47.7-.85a4.41,4.41,0,0,1,2.59-.68,4.23,4.23,0,0,1,2.48.91C151,160.6,151.19,161,151.09,161.08Z" style="fill:#263238"></path><path d="M156.87,174.21a11.7,11.7,0,0,1,2.84-.4c.44,0,.87-.1.95-.4a2.17,2.17,0,0,0-.24-1.32l-1.17-3.43c-1.63-4.88-2.78-8.88-2.59-8.95s1.68,3.84,3.3,8.72c.39,1.2.77,2.35,1.12,3.45a2.57,2.57,0,0,1,.16,1.75,1.1,1.1,0,0,1-.76.61,3,3,0,0,1-.75.08A11.48,11.48,0,0,1,156.87,174.21Z" style="fill:#263238"></path><path d="M157.66,194.84a33.32,33.32,0,0,1-17.09-5.22s3.89,9,17,8.36Z" style="fill:#5e3d37"></path><path d="M156,178.36a3.13,3.13,0,0,0-2.76-1.27,2.89,2.89,0,0,0-2,1,1.83,1.83,0,0,0-.22,2.07,2.1,2.1,0,0,0,2.25.66,6.49,6.49,0,0,0,2.28-1.23,1.83,1.83,0,0,0,.51-.49.59.59,0,0,0,0-.65" style="fill:#5e3d37"></path><path d="M151.71,175.2c.29,0,.21,1.88,1.77,3.28s3.57,1.28,3.58,1.54-.46.35-1.31.34a4.69,4.69,0,0,1-3-1.18,4.13,4.13,0,0,1-1.37-2.75C151.35,175.64,151.58,175.18,151.71,175.2Z" style="fill:#263238"></path><path d="M151.82,154.29c-.19.47-1.92.17-4,.34s-3.72.65-4,.21c-.12-.2.19-.63.87-1.06a6.56,6.56,0,0,1,3-.91,6.43,6.43,0,0,1,3.07.49C151.54,153.69,151.9,154.07,151.82,154.29Z" style="fill:#263238"></path><path d="M167.73,156.4c-.32.38-1.5-.08-2.93-.16s-2.67.16-2.93-.26c-.12-.21.09-.6.64-.95a4.05,4.05,0,0,1,2.41-.55,4.13,4.13,0,0,1,2.31.89C167.73,155.8,167.88,156.21,167.73,156.4Z" style="fill:#263238"></path><path d="M174.28,141c-2,4.4-6.57,10.95-11.39,11.42a14.2,14.2,0,0,1-12.66-5.7c-.81,3.57-4.83,5.39-8.45,5.89a14.22,14.22,0,0,1-7.63-.69,7.6,7.6,0,0,1-4.72-5.72c-.33-2.56,3.45-8.76,6-9.18" style="fill:#263238"></path><path d="M135,205.26a9.92,9.92,0,0,1-7.26,8.8,7,7,0,0,1-13.6,2.73,8.51,8.51,0,0,0-1-2.38c-1.24-1.56-3.64-1.25-5.53-1.86-3.4-1.11-4.88-5.28-4.5-8.84a7.87,7.87,0,0,0,.1-2.11c-.21-1.43-1.32-2.52-2.16-3.7-3.42-4.86-2-11.91,1.8-16.48,1.27-1.52,2.87-3.11,2.75-5.09a10.65,10.65,0,0,0-1.07-3.13,9,9,0,0,1,2.42-9.8,2.86,2.86,0,0,0,1-1.25,2.8,2.8,0,0,0,0-1,10.49,10.49,0,0,1,8.88-11.21,2.73,2.73,0,0,0,.93-.21c.8-.42.83-1.54.94-2.44.28-2.39,2.13-6.86,4-8.43,5.07-4.33,10-.8,11.75.85,0,0,3.47,17.23,2.8,20.44s-3,11.21-2.09,14.84,2.46,11.08,1,14.35S135,205.26,135,205.26Z" style="fill:#263238"></path><path d="M116,149.83s.22.22.68.54a15.58,15.58,0,0,0,2,1.21,24.44,24.44,0,0,0,7.35,2.44,24.72,24.72,0,0,0,7.74,0,19,19,0,0,0,2.3-.5,2.94,2.94,0,0,0,.81-.3c0-.1-1.21.2-3.16.42a27.73,27.73,0,0,1-14.87-2.44C117.11,150.41,116.09,149.75,116,149.83Z" style="fill:#455a64"></path><path d="M114.38,151.05a4.51,4.51,0,0,0,.37,1,8.9,8.9,0,0,0,.55,1.16,14.71,14.71,0,0,0,.84,1.46,22.69,22.69,0,0,0,2.72,3.48,23.78,23.78,0,0,0,9,5.91,21.9,21.9,0,0,0,4.26,1.13,14.74,14.74,0,0,0,1.69.2,8.31,8.31,0,0,0,1.27.05,5.25,5.25,0,0,0,1.09-.06c0-.11-1.55-.09-4-.57a24,24,0,0,1-4.15-1.21,27.12,27.12,0,0,1-4.7-2.44,26.59,26.59,0,0,1-4.09-3.36,25,25,0,0,1-2.76-3.34C115.07,152.44,114.48,151,114.38,151.05Z" style="fill:#455a64"></path><path d="M123.39,215.06s-.22,0-.6-.07a2.73,2.73,0,0,1-1.45-.86,3.67,3.67,0,0,1-.94-2.47,12,12,0,0,1,.65-3.58,7.78,7.78,0,0,0,.27-4.53c-.53-1.63-1.85-2.89-3-4.23a8.56,8.56,0,0,1-1.5-2.23,3.11,3.11,0,0,1,.08-2.6,5.82,5.82,0,0,1,2-2.07c.81-.59,1.71-1.11,2.56-1.74a5.59,5.59,0,0,0,2.07-2.46,3.81,3.81,0,0,0-.33-3.12c-1-1.79-2.49-3.09-2.85-4.8a5.8,5.8,0,0,1,1.28-4.62,19.76,19.76,0,0,1,3-3.24,21.55,21.55,0,0,0,2.54-2.73,8.4,8.4,0,0,0,1.31-2.5,5.22,5.22,0,0,0,.2-1.77,2.25,2.25,0,0,0-.11-.61,6.55,6.55,0,0,1-.29,2.32,12.72,12.72,0,0,1-3.91,5,20.79,20.79,0,0,0-3.14,3.25,8.72,8.72,0,0,0-1.21,2.26,4.94,4.94,0,0,0-.19,2.73c.41,1.93,2,3.28,2.87,4.95A3.27,3.27,0,0,1,123,188a5.07,5.07,0,0,1-1.88,2.2c-.82.61-1.72,1.14-2.55,1.74a6.44,6.44,0,0,0-2.12,2.28,3.66,3.66,0,0,0-.08,3,8.76,8.76,0,0,0,1.61,2.37c1.2,1.35,2.47,2.56,3,4a7.5,7.5,0,0,1-.21,4.29,12.19,12.19,0,0,0-.59,3.69,3.92,3.92,0,0,0,1.1,2.6,2.7,2.7,0,0,0,1.58.83A1.49,1.49,0,0,0,123.39,215.06Z" style="fill:#455a64"></path></g><g id="freepik--Table--inject-85"><polygon points="272 241.47 261.67 238.3 250.25 241.47 235.74 254.59 225.46 264.27 234.25 264.27 255.85 242.65 263.32 242.07 287.82 264.01 294.57 264.01 272 241.47" style="fill:#263238"></polygon><path d="M285.82,248.21a8.7,8.7,0,0,0-1.38-2.9A30.67,30.67,0,0,0,257.27,232c-10.55.75-19.6,6.35-24.15,15.9h0c-1.17,2.28-.05,5.28,2.06,6.73a9,9,0,0,0,7.39.87,26.2,26.2,0,0,0,6.87-3.4,26.58,26.58,0,0,1,6.86-3.39c4.09-1.11,8.43-.22,12.49,1s8.09,2.73,12.31,2.9c1.5.06,3.18-.13,4.13-1.29A3.64,3.64,0,0,0,285.82,248.21Z" style="fill:#FEF853"></path><g style="opacity:0.30000000000000004"><path d="M280.48,240.89A29.79,29.79,0,0,0,264.23,231a27.63,27.63,0,0,0-18.81,2.55A25.71,25.71,0,0,0,233.24,248l-.26.23A14.8,14.8,0,0,0,243.37,246c2.19-1.43,4.11-3.51,6.69-4,2-.36,4,.29,6-.11s3.55-1.74,5.49-1.87c2.7-.19,5,2,7.65,2.49,1.18.21,2.41.08,3.57.35a15,15,0,0,1,3.21,1.41,5.54,5.54,0,0,0,3.38.72,2.41,2.41,0,0,0,2.08-2.41A3.41,3.41,0,0,0,280.48,240.89Z"></path></g><path d="M243.61,264.27H279s-5.76-9.4-20.92-8.72C249,256,243.61,264.27,243.61,264.27Z" style="fill:#263238"></path><path d="M257.2,257a5.46,5.46,0,0,1-.22-.82c-.13-.59-.31-1.38-.53-2.38-.45-2.12-1.09-5.1-1.87-8.76-1.54-7.46-3.65-17.69-6-29l0-.07,0-.07.21-.54c4.22-10.91,8.05-20.78,10.84-28l3.35-8.46.93-2.29a5.76,5.76,0,0,1,.36-.79,8.43,8.43,0,0,1-.26.83c-.21.57-.49,1.35-.85,2.32L260,187.51c-2.76,7.22-6.53,17.11-10.71,28-.07.18-.14.36-.2.53v-.14c2.28,11.34,4.33,21.58,5.83,29.05.71,3.67,1.29,6.67,1.71,8.79.18,1,.32,1.8.43,2.4A4.23,4.23,0,0,1,257.2,257Z" style="fill:#263238"></path><path d="M255,257a5,5,0,0,1-.22-.82l-.53-2.37c-.46-2.12-1.09-5.1-1.87-8.77-1.54-7.46-3.65-17.69-6-29l0-.08,0-.07c0-.14.11-.29.17-.44l10.6-28,3.27-8.47c.38-1,.69-1.72.92-2.29a5.2,5.2,0,0,1,.35-.79,5.94,5.94,0,0,1-.26.83c-.2.57-.47,1.35-.82,2.32l-3.11,8.53c-2.7,7.22-6.39,17.12-10.47,28.06l-.16.45v-.15c2.27,11.34,4.33,21.58,5.83,29.05l1.7,8.8c.19,1,.33,1.8.44,2.39A4.42,4.42,0,0,1,255,257Z" style="fill:#263238"></path><path d="M291.53,191.47v0Z" style="fill:#455a64"></path><path d="M291.57,191.56Z" style="fill:#455a64"></path><path d="M291.54,191.5l0,.06Z" style="fill:#455a64"></path><path d="M289.68,189.43c-2.47-1.82-5.63-2.36-8.67-2.74-4.12-.52-8.35-.84-12.39.09s-9.24,5-11.13,8.71c5.14,2.52,11.76,2.51,17.46,2s12.06-2,16.58-6A5.44,5.44,0,0,0,289.68,189.43Z" style="fill:#455a64"></path><path d="M257.49,195.49s-1-14.32,9.55-18,20.47-.75,24.49,13.94C291.53,191.47,277,188.08,257.49,195.49Z" style="fill:#263238"></path><path d="M270.11,162.7h1.33a6.63,6.63,0,0,1,6.63,6.63v9.08a0,0,0,0,1,0,0H263.48a0,0,0,0,1,0,0v-9.08A6.63,6.63,0,0,1,270.11,162.7Z" transform="matrix(0.99, -0.13, 0.13, 0.99, -19.88, 36.66)" style="fill:#263238"></path><path d="M279.86,176.77c0,.08-.93-.21-2.44-.45a18.24,18.24,0,0,0-5.91,0c-4.62.77-7.82,3-7.91,2.86a8.45,8.45,0,0,1,2.09-1.4,18.56,18.56,0,0,1,5.73-2,16.22,16.22,0,0,1,6.07.12A7.24,7.24,0,0,1,279.86,176.77Z" style="fill:#455a64"></path><path d="M269.06,172.31c-.15,0-.36-.83-.49-1.89s-.11-1.93,0-1.95.36.83.48,1.89S269.2,172.3,269.06,172.31Z" style="fill:#455a64"></path><path d="M270.62,172.23c-.14,0-.48-.83-.66-1.95a3.73,3.73,0,0,1,0-2.06c.15,0,.34.88.52,2A4.93,4.93,0,0,1,270.62,172.23Z" style="fill:#455a64"></path><path d="M271.86,172.23c-.14,0-.39-.86-.55-2s-.18-2,0-2,.38.86.55,2A4.17,4.17,0,0,1,271.86,172.23Z" style="fill:#455a64"></path><path d="M262.47,212.86a35.2,35.2,0,0,1,1.58-5.85,37,37,0,0,1,2.07-5.7,35.71,35.71,0,0,1-1.57,5.85A34.77,34.77,0,0,1,262.47,212.86Z" style="fill:#263238"></path><path d="M275.5,217.86a62.35,62.35,0,0,1-.57-8,61.75,61.75,0,0,1-.06-8,61.19,61.19,0,0,1,.58,8A60.59,60.59,0,0,1,275.5,217.86Z" style="fill:#263238"></path><path d="M287,207.23a22,22,0,0,1-2.92-3.8,21.7,21.7,0,0,1-2.48-4.09,22.22,22.22,0,0,1,2.91,3.8A23.19,23.19,0,0,1,287,207.23Z" style="fill:#263238"></path><rect x="260.95" y="175.29" width="3.85" height="2.23" style="fill:#263238"></rect><rect x="245.96" y="214.74" width="4.07" height="2.85" style="fill:#263238"></rect><rect x="219.14" y="250.5" width="10.41" height="13.51" style="fill:#FEF853"></rect><rect x="220.82" y="255.04" width="6.96" height="3.77" style="fill:#fff"></rect><path d="M222,244.74h4.76a1.59,1.59,0,0,1,1.59,1.59v4.17a0,0,0,0,1,0,0h-7.94a0,0,0,0,1,0,0v-4.17A1.59,1.59,0,0,1,222,244.74Z" style="fill:#263238"></path><path d="M221.57,250.46a38.41,38.41,0,0,1,0-5.54,38.41,38.41,0,0,1,0,5.54Z" style="fill:#455a64"></path><path d="M222.83,250.46a38.41,38.41,0,0,1,0-5.54,34.93,34.93,0,0,1,0,5.54Z" style="fill:#455a64"></path><path d="M224.09,250.46a38.41,38.41,0,0,1,0-5.54,34.93,34.93,0,0,1,0,5.54Z" style="fill:#455a64"></path><path d="M225.35,250.46a38.41,38.41,0,0,1,0-5.54,34.93,34.93,0,0,1,0,5.54Z" style="fill:#455a64"></path><path d="M226.61,250.46a38.41,38.41,0,0,1,0-5.54,34.93,34.93,0,0,1,0,5.54Z" style="fill:#455a64"></path><rect x="237" y="255.03" width="5.81" height="9.43" style="fill:#e0e0e0"></rect><path d="M242.81,264.46s0-.26,0-.72,0-1.19,0-1.95c0-1.78,0-4.09,0-6.76l.1.1H237l.1-.1h0v2.6c0,.85,0,1.68,0,2.48,0,1.57,0,3,0,4.33l-.08-.08,4.21,0,1.18,0,.42,0a2.69,2.69,0,0,1-.39,0l-1.16,0-4.26,0h-.09v-.08c0-1.3,0-2.76,0-4.33,0-.8,0-1.63,0-2.48v-2.6h0c-.09.09.13-.13.11-.1h5.91v.1c0,2.7,0,5,0,6.82,0,.76,0,1.4,0,1.94S242.81,264.46,242.81,264.46Z" style="fill:#263238"></path><path d="M238.35,245.61h3.11a1.35,1.35,0,0,1,1.35,1.35V255a0,0,0,0,1,0,0H237a0,0,0,0,1,0,0V247A1.35,1.35,0,0,1,238.35,245.61Z" style="fill:#263238"></path><path d="M240.87,260.88c-.15-2.18-.29-4.36-.44-6.54l-.89.35q-.28,2.87-.59,5.75a1.06,1.06,0,0,0,0,.56c.16.39.66.48,1.09.51.27,0,.61,0,.74-.23A.78.78,0,0,0,240.87,260.88Z" style="fill:#263238"></path><rect x="240.87" y="275.95" width="9.16" height="202.67" style="fill:#455a64"></rect><rect x="170.86" y="264.01" width="151.48" height="11.94" style="fill:#455a64"></rect><path d="M321.21,276.26c0,.14-33.62.19-75.09.1S171,276.09,171,276s33.62-.19,75.11-.11S321.22,276.11,321.21,276.26Z" style="fill:#263238"></path><path d="M171.61,275.36a3.76,3.76,0,0,1,.26-.82,5.78,5.78,0,0,1,1.41-2,16.26,16.26,0,0,1,3.19-2.22,47.32,47.32,0,0,1,4.54-2.44,38.53,38.53,0,0,1,13.15-2.4c1.26,0,2.55,0,3.88,0,.66,0,1.32.08,2,.14a3.47,3.47,0,0,1,2,.56,2.43,2.43,0,0,1,.52,2.08,4.39,4.39,0,0,1-.83,2,7,7,0,0,1-3.58,2.44,38.63,38.63,0,0,1-4.21,1l-4.11.81c-1.34.25-2.65.57-4,.71a7.37,7.37,0,0,1-2,0,4.65,4.65,0,0,1-1-.27,1.76,1.76,0,0,1-.84-.57.81.81,0,0,1,.1-1,5.76,5.76,0,0,1,.73-.61,16.83,16.83,0,0,1,1.49-1.06,20.26,20.26,0,0,1,3.09-1.61,19.64,19.64,0,0,1,6.07-1.49,2.89,2.89,0,0,1,1.43.14,1,1,0,0,1,.57,1.2,3.05,3.05,0,0,1-2,1.42,23.89,23.89,0,0,1-3.76,1,17.68,17.68,0,0,1-3.29.33l.22,0,.63-.06a22.26,22.26,0,0,0,2.42-.36,24.19,24.19,0,0,0,3.72-1.07,6.19,6.19,0,0,0,1-.48,1.81,1.81,0,0,0,.8-.84.76.76,0,0,0-.47-1,2.76,2.76,0,0,0-1.32-.11,19.89,19.89,0,0,0-6,1.5,20.8,20.8,0,0,0-3,1.61c-.5.33-1,.67-1.47,1.05a6.6,6.6,0,0,0-.69.58.51.51,0,0,0-.07.68,1.39,1.39,0,0,0,.71.47,3.93,3.93,0,0,0,.89.25,7.24,7.24,0,0,0,1.92,0c1.29-.13,2.61-.46,3.95-.71l4.11-.82a35.9,35.9,0,0,0,4.17-1,6.62,6.62,0,0,0,3.43-2.32,4.14,4.14,0,0,0,.77-1.85,2.14,2.14,0,0,0-.42-1.81A3.19,3.19,0,0,0,200,266c-.67-.06-1.33-.11-2-.14-1.31-.07-2.6-.09-3.86-.06a39,39,0,0,0-13.07,2.32,47.74,47.74,0,0,0-4.53,2.4,16.08,16.08,0,0,0-3.2,2.15A6.2,6.2,0,0,0,171.61,275.36Z" style="fill:#263238"></path><path d="M216.47,263.86a17.94,17.94,0,0,0-2.17,1.89,69.11,69.11,0,0,0-4.25,5.51,15.1,15.1,0,0,1-2.74,2.74,8.63,8.63,0,0,1-2.86,1.37,6,6,0,0,1-2.13.17,3.57,3.57,0,0,1-.57-.1l-.19-.07a7.33,7.33,0,0,0,2.83-.21,8.69,8.69,0,0,0,2.74-1.4,14.48,14.48,0,0,0,2.67-2.69,58,58,0,0,1,4.34-5.48,10.7,10.7,0,0,1,1.64-1.35A3.1,3.1,0,0,1,216.47,263.86Z" style="fill:#263238"></path><path d="M227,270a1.84,1.84,0,0,1-.44.24,6.37,6.37,0,0,1-1.36.48,2.49,2.49,0,0,1-2.2-.52,1.54,1.54,0,0,1-.54-1.34,2.08,2.08,0,0,1,.87-1.38,8.31,8.31,0,0,1,3.43-1.31,10.91,10.91,0,0,1,4.21.09,6.94,6.94,0,0,1,2.16.81A2.83,2.83,0,0,1,234.6,269a1.92,1.92,0,0,1-.29,1.26,3,3,0,0,1-.92.91,13,13,0,0,1-2.3,1.08c-3.13,1.3-6.3,2.36-9.31,2.29a7.8,7.8,0,0,1-4.08-1,3.85,3.85,0,0,1-1.36-1.39,3.63,3.63,0,0,1-.45-1.73,5.25,5.25,0,0,1,.83-2.9,9.78,9.78,0,0,1,1.44-1.78c.44-.44.81-.76,1.06-1a2,2,0,0,1,.39-.31s-.12.13-.35.36-.59.56-1,1a9.67,9.67,0,0,0-1.37,1.78,5.16,5.16,0,0,0-.76,2.81,3.45,3.45,0,0,0,1.72,2.9,7.74,7.74,0,0,0,4,.94c2.93,0,6.05-1,9.18-2.3a12.91,12.91,0,0,0,2.25-1.05,2,2,0,0,0,1.07-1.87,2.53,2.53,0,0,0-1.32-1.7,6.69,6.69,0,0,0-2.06-.78,10,10,0,0,0-7.45,1.12,1.94,1.94,0,0,0-.81,1.22,1.4,1.4,0,0,0,.47,1.19,2.36,2.36,0,0,0,2,.53A12,12,0,0,0,227,270Z" style="fill:#263238"></path><path d="M268.58,264.21a1.25,1.25,0,0,1-.31.22c-.21.14-.54.31-1,.53a18.1,18.1,0,0,1-3.79,1.37,37.5,37.5,0,0,1-5.9.89c-2.24.18-4.7.26-7.27.56a25.62,25.62,0,0,0-7,1.71,24.37,24.37,0,0,0-5.18,2.85,25.15,25.15,0,0,0-3.05,2.58c-.68.66-1,1.05-1,1a1.85,1.85,0,0,1,.23-.3c.16-.19.4-.48.73-.82a23,23,0,0,1,3-2.67,24.07,24.07,0,0,1,5.2-2.94,25.48,25.48,0,0,1,7.1-1.75c2.58-.3,5.05-.37,7.28-.54a37.72,37.72,0,0,0,5.87-.82,20.2,20.2,0,0,0,3.79-1.26C268.12,264.46,268.57,264.19,268.58,264.21Z" style="fill:#263238"></path><path d="M288.33,264a8.52,8.52,0,0,1-1.07,1.12,16,16,0,0,1-3.53,2.36,24.5,24.5,0,0,1-6,2,63,63,0,0,1-7.65.9c-2.72.2-5.31.38-7.63.79a27,27,0,0,0-6,1.71,17.79,17.79,0,0,0-3.65,2.1c-.79.6-1.18,1-1.2,1a8.65,8.65,0,0,1,1.13-1.07,16.18,16.18,0,0,1,3.63-2.2,25.65,25.65,0,0,1,6-1.79,70.58,70.58,0,0,1,7.66-.82,64.28,64.28,0,0,0,7.61-.88,24.43,24.43,0,0,0,5.94-1.89,17.06,17.06,0,0,0,3.55-2.25C287.94,264.42,288.31,264,288.33,264Z" style="fill:#263238"></path><path d="M316.48,276a3.44,3.44,0,0,1-.24-.38,11.69,11.69,0,0,0-.7-1.05,14,14,0,0,0-3.29-3.24,17,17,0,0,0-6.26-2.72,26.77,26.77,0,0,0-8.38-.39A39.72,39.72,0,0,0,283,272.62a41.25,41.25,0,0,0-4,2.41c-.46.3-.79.56-1,.72a1.6,1.6,0,0,1-.37.24,30.77,30.77,0,0,1,5.29-3.56,38.65,38.65,0,0,1,14.67-4.54,26.24,26.24,0,0,1,8.48.42,17.19,17.19,0,0,1,6.32,2.82,13.44,13.44,0,0,1,3.26,3.35A8.3,8.3,0,0,1,316.48,276Z" style="fill:#263238"></path><path d="M322.06,268.47a3.27,3.27,0,0,1-1.18-.14,9.77,9.77,0,0,1-4.88-2.84,3.11,3.11,0,0,1-.7-.95,18.19,18.19,0,0,0,3.09,2.46A18.4,18.4,0,0,0,322.06,268.47Z" style="fill:#263238"></path><polygon points="206.34 478.78 281.44 478.78 250.03 468.25 240.87 468.25 206.34 478.78" style="fill:#455a64"></polygon><rect x="295.88" y="254.58" width="5.82" height="9.43" style="fill:#FEF853"></rect><path d="M301.69,264s0-.26,0-.71,0-1.2,0-2c0-1.78,0-4.09,0-6.76l.09.1h-5.81s.2-.2.1-.11h0v5.08c0,1.57,0,3,0,4.33l-.08-.08,4.22,0,1.17,0,.42,0a2.69,2.69,0,0,1-.39,0l-1.15,0-4.27,0h-.08V264c0-1.3,0-2.76,0-4.33V254.6h0c-.09.1.13-.13.11-.1h5.91v.1c0,2.7,0,5-.05,6.83,0,.75,0,1.39,0,1.93S301.69,264,301.69,264Z" style="fill:#263238"></path><path d="M297.23,245.16h3.11a1.35,1.35,0,0,1,1.35,1.35v8.08a0,0,0,0,1,0,0h-5.82a0,0,0,0,1,0,0v-8.08A1.35,1.35,0,0,1,297.23,245.16Z" style="fill:#263238"></path><path d="M299.75,260.43c-.14-2.18-.29-4.36-.43-6.54l-.89.35-.6,5.75a1.17,1.17,0,0,0,0,.56c.16.4.67.48,1.09.51s.61,0,.74-.23A.68.68,0,0,0,299.75,260.43Z" style="fill:#263238"></path></g></svg>