<svg xmlns="http://www.w3.org/2000/svg" xmlns:xlink="http://www.w3.org/1999/xlink" viewBox="0 0 500 500"><defs><clipPath id="freepik--clip-path--inject-19"><path d="M153.5,279.14s8.27.18,23.49,2.73c14.85,2.49,44.67-23.49,44.67-23.49a56.23,56.23,0,0,0,8,9.88s-19.7,30.1-41.18,33.39a65.67,65.67,0,0,1-37.73-5.36S146.8,290.5,153.5,279.14Z" style="fill:#FEF853;stroke:#263238;stroke-linecap:round;stroke-linejoin:round"></path></clipPath><clipPath id="freepik--clip-path-2--inject-19"><path d="M214.3,219.4s-12.51-7-9.8-.64c0,0-4,.8-1.79,5.07,0,0-4.44,1.84-.7,4a13.13,13.13,0,0,0,6.72,2.05Z" style="fill:#FEF853;stroke:#263238;stroke-linecap:round;stroke-linejoin:round"></path></clipPath><clipPath id="freepik--clip-path-3--inject-19"><path d="M230.27,219.4s12.51-7,9.8-.64c0,0,4,.8,1.79,5.07,0,0,4.44,1.84.69,4a13.09,13.09,0,0,1-6.71,2.05Z" style="fill:#FEF853;stroke:#263238;stroke-linecap:round;stroke-linejoin:round"></path></clipPath><clipPath id="freepik--clip-path-4--inject-19"><path d="M208.76,253.71a62.18,62.18,0,0,0-9.32,20c-2.64,11,11.6-.84,11.6-.84s-.2,15.12,10.35.6c0,0,7.32,13.92,10-.6,0,0,15.06,9.74,12.56-1.87-1.82-8.51-8.12-17.32-8.12-17.32Z" style="fill:#FEF853;stroke:#263238;stroke-linecap:round;stroke-linejoin:round"></path></clipPath><clipPath id="freepik--clip-path-5--inject-19"><path d="M222.39,218.22c-5.5,0-14.65-1.41-16.14,13.15-1.23,12.12-.95,19.17-.63,22.45a3,3,0,0,0,2.5,2.71c4.2.75,14.18,2,28,0a3.06,3.06,0,0,0,2.63-3.19c-.26-5.25-.91-16.78-1.84-23.68C235.67,220.47,232.16,218.16,222.39,218.22Z" style="fill:#FEF853;stroke:#263238;stroke-linecap:round;stroke-linejoin:round"></path></clipPath><clipPath id="freepik--clip-path-7--inject-19"><ellipse cx="214.86" cy="304.03" rx="4.98" ry="2.37" style="fill:#FEF853;stroke:#263238;stroke-linecap:round;stroke-linejoin:round"></ellipse></clipPath><clipPath id="freepik--clip-path-8--inject-19"><path d="M226,304c0,1.31,2.23,2.37,5,2.37s5-1.06,5-2.37-2.23-2.37-5-2.37S226,302.72,226,304Z" style="fill:#FEF853;stroke:#263238;stroke-linecap:round;stroke-linejoin:round"></path></clipPath><clipPath id="freepik--clip-path-9--inject-19"><path d="M121.49,245.25l4.28-13.73,11.12-2.18h11.38A21.82,21.82,0,0,1,161.33,249a3.23,3.23,0,0,0,.63,1.83c1.63,2.08,5.52,9-1.73,21,0,0-6.13,4.91-19.62,4.91s-14-6.23-14-6.23Z" style="fill:#fff;stroke:#263238;stroke-linecap:round;stroke-linejoin:round"></path></clipPath><clipPath id="freepik--clip-path-10--inject-19"><path d="M127.58,365.38,98,407.73a191.52,191.52,0,0,1,30.45-6.59c16.67-2.16,58.8-2,85.26-3.38s24.39-4.24,24.39-4.24L185.57,363l-21.82,2.92H140.8Z" style="fill:#FEF853;stroke:#263238;stroke-linecap:round;stroke-linejoin:round"></path></clipPath><clipPath id="freepik--clip-path-11--inject-19"><path d="M125.08,367.06s-40.21,41.46-27.6,42.32c13.14.9,31-42,31-42v-1.87Z" style="fill:#FEF853;stroke:#263238;stroke-linecap:round;stroke-linejoin:round"></path></clipPath><clipPath id="freepik--clip-path-12--inject-19"><path d="M133.34,365.67s-13.11,39.47-4.85,38.7,8.65-38.7,8.65-38.7Z" style="fill:#FEF853;stroke:#263238;stroke-linecap:round;stroke-linejoin:round"></path></clipPath><clipPath id="freepik--clip-path-13--inject-19"><path d="M143.55,365.94s.61,35.87,8.29,35.87-4.15-36.14-4.15-36.14Z" style="fill:#FEF853;stroke:#263238;stroke-linecap:round;stroke-linejoin:round"></path></clipPath><clipPath id="freepik--clip-path-14--inject-19"><path d="M156.53,366s14.76,35.6,23.28,35.19-19.9-35.27-19.9-35.27Z" style="fill:#FEF853;stroke:#263238;stroke-linecap:round;stroke-linejoin:round"></path></clipPath><clipPath id="freepik--clip-path-15--inject-19"><path d="M170,365.38s31.54,35.74,44.53,34.37-41.1-34.66-41.1-34.66Z" style="fill:#FEF853;stroke:#263238;stroke-linecap:round;stroke-linejoin:round"></path></clipPath><clipPath id="freepik--clip-path-16--inject-19"><path d="M184.22,363.4s44.26,35,56,33-53.42-33.85-53.42-33.85Z" style="fill:#FEF853;stroke:#263238;stroke-linecap:round;stroke-linejoin:round"></path></clipPath><clipPath id="freepik--clip-path-17--inject-19"><path d="M196.22,264.32c-1.61-7.11-8.8-9.15-8.8-9.15s-22.26,17.32-38.41,22.1c-7.78,0-15.85.72-21.89-.55-13.75-2.89-18.67,5.62-10.79,30.49s10.72,56.93,10.72,56.93c50.05,2.31,59.2-2.78,59.2-2.78-1.62-20.84-6.05-61.58-13.48-75.27A167.59,167.59,0,0,0,196.22,264.32Z" style="fill:#FEF853;stroke:#263238;stroke-linecap:round;stroke-linejoin:round"></path></clipPath><clipPath id="freepik--clip-path-18--inject-19"><path d="M126.1,362.57s46.41,2.72,60.48-2.51a3.3,3.3,0,0,1,2.37,3.86s-23.91,6.81-63.87,3.14A13.05,13.05,0,0,1,126.1,362.57Z" style="fill:#FEF853;stroke:#263238;stroke-linecap:round;stroke-linejoin:round"></path></clipPath></defs><g id="freepik--Shadow--inject-19"><path d="M341.46,404.66H158.54c-39.15,3.76-64.62,9.88-64.62,16.79,0,11.45,69.88,12.9,156.08,12.9s156.08-1.45,156.08-12.9C406.08,414.54,380.61,408.42,341.46,404.66Z" style="fill:#FEF853"></path></g><g id="freepik--Floor--inject-19"><line x1="24.3" y1="404.95" x2="475.7" y2="404.95" style="fill:none;stroke:#263238;stroke-linecap:round;stroke-linejoin:round"></line></g><g id="freepik--background-simple--inject-19"><path d="M418.79,147.58c-46.17-23.46-82,4.78-98.21,19.06-26.5,23.37-41.4,33.88-65.34,22.15-25-12.25-22-36.38-35.53-70.51C204,78.52,155.18,52.73,93.82,88.79,25,129.21,25.68,210.15,61.21,289.8c20.31,45.54,53.12,70.82,112,90.42,102.59,34.17,201.65.13,262.88-69.48C470.8,271.25,494.84,186.22,418.79,147.58Z" style="fill:#FEF853"></path><path d="M418.79,147.58c-46.17-23.46-82,4.78-98.21,19.06-26.5,23.37-41.4,33.88-65.34,22.15-25-12.25-22-36.38-35.53-70.51C204,78.52,155.18,52.73,93.82,88.79,25,129.21,25.68,210.15,61.21,289.8c20.31,45.54,53.12,70.82,112,90.42,102.59,34.17,201.65.13,262.88-69.48C470.8,271.25,494.84,186.22,418.79,147.58Z" style="fill:#fff;opacity:0.7000000000000001"></path></g><g id="freepik--Plant--inject-19"><path d="M252.54,385.52a2.81,2.81,0,0,0,5.28-.84c2-12.31,9.33-36.55,35.2-61.54,24.4-23.56-11.71-48.27-30.44-29.25C242.38,314.38,235.76,353.55,252.54,385.52Z" style="fill:#FEF853"></path><path d="M271.05,314.91S246,347.25,257.63,403.2" style="fill:none;stroke:#263238;stroke-linecap:round;stroke-linejoin:round;stroke-width:0.75px"></path><path d="M265.64,324s8.61-6.33,25.33-4.31" style="fill:none;stroke:#263238;stroke-linecap:round;stroke-linejoin:round;stroke-width:0.75px"></path><path d="M261.67,300.75s-5.53,15.78.22,31.8" style="fill:none;stroke:#263238;stroke-linecap:round;stroke-linejoin:round;stroke-width:0.75px"></path><path d="M257,349.51s4.83-8.69,15.26-8.77" style="fill:none;stroke:#263238;stroke-linecap:round;stroke-linejoin:round;stroke-width:0.75px"></path><path d="M255.24,360.76s-6.52-6.87-8.55-19.06" style="fill:none;stroke:#263238;stroke-linecap:round;stroke-linejoin:round;stroke-width:0.75px"></path><path d="M262.07,384a2,2,0,0,0,3.67,1.07c5.09-7.34,17.2-20.81,41.58-29.08,23-7.8,7.16-34.82-10.77-28.23C277.22,334.86,261,358.18,262.07,384Z" style="fill:#FEF853"></path><path d="M262.07,384a2,2,0,0,0,3.67,1.07c5.09-7.34,17.2-20.81,41.58-29.08,23-7.8,7.16-34.82-10.77-28.23C277.22,334.86,261,358.18,262.07,384Z" style="opacity:0.2"></path><path d="M295.61,344S269.49,357.22,260,397" style="fill:none;stroke:#263238;stroke-linecap:round;stroke-linejoin:round;stroke-width:0.75px"></path><path d="M289.33,348.19s7.51-1.47,17.71,4.94" style="fill:none;stroke:#263238;stroke-linecap:round;stroke-linejoin:round;stroke-width:0.75px"></path><path d="M293.87,331.92s-8.4,8.52-9.57,20.66" style="fill:none;stroke:#263238;stroke-linecap:round;stroke-linejoin:round;stroke-width:0.75px"></path><path d="M275.94,362.05a13.18,13.18,0,0,1,12.56-1" style="fill:none;stroke:#263238;stroke-linecap:round;stroke-linejoin:round;stroke-width:0.75px"></path><path d="M271.38,368.8a27.72,27.72,0,0,1,.28-14.94" style="fill:none;stroke:#263238;stroke-linecap:round;stroke-linejoin:round;stroke-width:0.75px"></path><path d="M247.76,384.68a2.28,2.28,0,0,1-4.26.78c-4.85-8.85-16.91-25.41-43.35-37.55-24.94-11.45-4-40,15.4-30.49C236.46,327.66,252,355.78,247.76,384.68Z" style="fill:#FEF853"></path><path d="M247.76,384.68a2.28,2.28,0,0,1-4.26.78c-4.85-8.85-16.91-25.41-43.35-37.55-24.94-11.45-4-40,15.4-30.49C236.46,327.66,252,355.78,247.76,384.68Z" style="fill:#fff;opacity:0.2"></path><path d="M214.71,335.74s27.83,18,33.9,63.8" style="fill:none;stroke:#263238;stroke-linecap:round;stroke-linejoin:round;stroke-width:0.75px"></path><path d="M221.28,341.24s-8.26-2.53-20.49,3.49" style="fill:none;stroke:#263238;stroke-linecap:round;stroke-linejoin:round;stroke-width:0.75px"></path><path d="M218.08,322.42s8.45,10.56,8.35,24.34" style="fill:none;stroke:#263238;stroke-linecap:round;stroke-linejoin:round;stroke-width:0.75px"></path><path d="M234.73,358.39a14.91,14.91,0,0,0-14-2.61" style="fill:none;stroke:#263238;stroke-linecap:round;stroke-linejoin:round;stroke-width:0.75px"></path><path d="M239.07,366.5a31.34,31.34,0,0,0,1.42-16.83" style="fill:none;stroke:#263238;stroke-linecap:round;stroke-linejoin:round;stroke-width:0.75px"></path><polygon points="232.47 405.24 273.76 405.24 276.27 394.18 229.96 394.18 232.47 405.24" style="fill:#263238"></polygon><polygon points="232.47 405.24 273.76 405.24 276.27 394.18 229.96 394.18 232.47 405.24" style="fill:#fff;opacity:0.30000000000000004"></polygon></g><g id="freepik--Scooter--inject-19"><path d="M92.53,255.23a3.87,3.87,0,0,0-3-6.28H58.67a3.88,3.88,0,0,0,0,7.76H89.49a3.84,3.84,0,0,0,3-1.46h0Z" style="fill:#fff;stroke:#263238;stroke-linecap:round;stroke-linejoin:round"></path><path d="M93.37,252.83A3.88,3.88,0,1,1,89.49,249,3.87,3.87,0,0,1,93.37,252.83Z" style="fill:#fff;stroke:#263238;stroke-linecap:round;stroke-linejoin:round"></path><path d="M80.43,252.83A3.88,3.88,0,0,1,84.31,249H64a3.88,3.88,0,1,0,0,7.76H84.31A3.88,3.88,0,0,1,80.43,252.83Z" style="fill:#FEF853;stroke:#263238;stroke-linecap:round;stroke-linejoin:round"></path><circle cx="70.83" cy="394.39" r="10.86" transform="translate(-329.81 401.12) rotate(-80.78)" style="fill:#263238;stroke:#263238;stroke-linecap:round;stroke-linejoin:round"></circle><circle cx="72.83" cy="394.39" r="10.86" transform="translate(-327.74 374.65) rotate(-76.72)" style="fill:#999;stroke:#263238;stroke-linecap:round;stroke-linejoin:round"></circle><path d="M78.12,394.39a5.3,5.3,0,1,1-5.29-5.3A5.29,5.29,0,0,1,78.12,394.39Z" style="fill:#FEF853;stroke:#263238;stroke-linecap:round;stroke-linejoin:round"></path><circle cx="181.16" cy="388.47" r="16.77" transform="translate(-231.22 505.39) rotate(-80.83)" style="fill:#263238;stroke:#263238;stroke-linecap:round;stroke-linejoin:round"></circle><circle cx="183.26" cy="388.47" r="16.77" transform="translate(-236.79 478.23) rotate(-76.81)" style="fill:#999;stroke:#263238;stroke-linecap:round;stroke-linejoin:round"></circle><circle cx="183.26" cy="388.47" r="8.18" style="fill:#FEF853;stroke:#263238;stroke-linecap:round;stroke-linejoin:round"></circle><path d="M73.06,396.82a2.43,2.43,0,0,1-2.43-2.43V256.77a2.43,2.43,0,1,1,4.86,0V394.39A2.43,2.43,0,0,1,73.06,396.82Z" style="fill:#999;stroke:#263238;stroke-linecap:round;stroke-linejoin:round"></path><path d="M182.81,391.87H94.91a3.64,3.64,0,0,1-2.55-1.05L69.54,368a3,3,0,0,1-.9-2.16h0a3.06,3.06,0,0,1,5.18-2.2l20.82,20a3.61,3.61,0,0,0,2.5,1h85.67a3.61,3.61,0,0,1,3.61,3.61h0A3.61,3.61,0,0,1,182.81,391.87Z" style="fill:#858585;stroke:#263238;stroke-linecap:round;stroke-linejoin:round"></path><path d="M158.38,384.66h-60a1.77,1.77,0,0,1-1.77-1.77h0a1.78,1.78,0,0,1,1.77-1.78h60a1.78,1.78,0,0,1,1.77,1.78h0A1.77,1.77,0,0,1,158.38,384.66Z" style="fill:#FEF853;stroke:#263238;stroke-linecap:round;stroke-linejoin:round"></path></g><g id="freepik--character-2--inject-19"><path d="M298.42,334.1l1.32-12.67-21,1.56v8.75a144.67,144.67,0,0,0-1.65,17.53c-.13,7.43,3.07,39.59,3.73,46-3.41,2.79-13.23,11.25-12.91,15.84.39,5.54,27.46,1.8,28.36-1.29.78-2.68-2.39-12.29-3.26-14.84C294.18,387.15,299.77,348.9,298.42,334.1Z" style="fill:#fff;stroke:#263238;stroke-linecap:round;stroke-linejoin:round;stroke-width:1.0325px"></path><path d="M289.69,398.38c-.65-4-8.88-3.08-8.88-3.08-3.41,2.79-13.23,11.25-12.91,15.84.39,5.54,27.46,1.8,28.36-1.29.78-2.68-2.39-12.29-3.26-14.84C291.86,395.54,290.33,402.37,289.69,398.38Z" style="fill:#FEF853;stroke:#263238;stroke-linecap:round;stroke-linejoin:round;stroke-width:1.0325px"></path><path d="M296.26,409.85a11,11,0,0,0-.26-4.25c.62,2.8-15.47,6-22.68,5.41-2.8-.25-4.24-1.13-5-2.1a5.21,5.21,0,0,0-.46,2.23C268.29,416.68,295.36,412.94,296.26,409.85Z" style="fill:#263238;stroke:#263238;stroke-linecap:round;stroke-linejoin:round;stroke-width:1.0325px"></path><path d="M293.8,402.26c.17,1.14-.12,2.13-.64,2.21s-1.1-.78-1.27-1.92.11-2.14.64-2.22S293.63,401.11,293.8,402.26Z" style="fill:#fff;stroke:#263238;stroke-linecap:round;stroke-linejoin:round;stroke-width:0.774372px"></path><path d="M273.32,411a51.17,51.17,0,0,0,12.44-1c-.78-2.79-2.81-7.42-7.67-7.58a17.31,17.31,0,0,0-5.65.71,22.26,22.26,0,0,0-4.07,5.81C269.09,409.89,270.53,410.76,273.32,411Z" style="fill:#fff;stroke:#263238;stroke-linecap:round;stroke-linejoin:round;stroke-width:1.0325px"></path><path d="M281.56,331s.87,3.2,7.83,5" style="fill:none;stroke:#263238;stroke-linecap:round;stroke-linejoin:round;stroke-width:0.774372px"></path><path d="M315.67,334.1l-1.32-12.67,21,1.56v8.75A144.67,144.67,0,0,1,337,349.27c.14,7.43-3.07,39.59-3.72,46,3.4,2.79,13.22,11.25,12.9,15.84-.39,5.54-27.46,1.8-28.36-1.29-.78-2.68,2.39-12.29,3.26-14.84C319.91,387.15,314.32,348.9,315.67,334.1Z" style="fill:#fff;stroke:#263238;stroke-linecap:round;stroke-linejoin:round;stroke-width:1.0325px"></path><path d="M324.4,398.38c.65-4,8.89-3.08,8.89-3.08,3.4,2.79,13.22,11.25,12.9,15.84-.39,5.54-27.46,1.8-28.36-1.29-.78-2.68,2.39-12.29,3.26-14.84C322.23,395.54,323.76,402.37,324.4,398.38Z" style="fill:#FEF853;stroke:#263238;stroke-linecap:round;stroke-linejoin:round;stroke-width:1.0325px"></path><path d="M317.83,409.85a10.8,10.8,0,0,1,.27-4.25c-.63,2.8,15.46,6,22.67,5.41,2.8-.25,4.24-1.13,5-2.1a5.21,5.21,0,0,1,.46,2.23C345.8,416.68,318.73,412.94,317.83,409.85Z" style="fill:#263238;stroke:#263238;stroke-linecap:round;stroke-linejoin:round;stroke-width:1.0325px"></path><path d="M320.29,402.26c-.17,1.14.12,2.13.64,2.21s1.1-.78,1.27-1.92-.11-2.14-.64-2.22S320.46,401.11,320.29,402.26Z" style="fill:#fff;stroke:#263238;stroke-linecap:round;stroke-linejoin:round;stroke-width:0.774372px"></path><path d="M340.77,411a51.17,51.17,0,0,1-12.44-1c.79-2.79,2.81-7.42,7.67-7.58a17.31,17.31,0,0,1,5.65.71,22.26,22.26,0,0,1,4.07,5.81C345,409.89,343.56,410.76,340.77,411Z" style="fill:#fff;stroke:#263238;stroke-linecap:round;stroke-linejoin:round;stroke-width:1.0325px"></path><path d="M333.06,331s-.87,3.2-7.83,5" style="fill:none;stroke:#263238;stroke-linecap:round;stroke-linejoin:round;stroke-width:0.774372px"></path><polygon points="389.11 140.01 353.95 167 348.05 159.31 358.55 139.88 383.2 132.31 389.11 140.01" style="fill:#FEF853;stroke:#263238;stroke-linecap:round;stroke-linejoin:round;stroke-width:1.0325px"></polygon><path d="M355.36,169.8l-1.75,1.34a1.64,1.64,0,0,1-2.28-.3l-6.95-9.06a1.13,1.13,0,0,1-.24-.6l-.33-2.92a1.2,1.2,0,0,1,1.63-1.26l2.74,1.07a1.26,1.26,0,0,1,.52.39l7,9.06A1.64,1.64,0,0,1,355.36,169.8Z" style="fill:#263238;stroke:#263238;stroke-linecap:round;stroke-linejoin:round;stroke-width:1.0325px"></path><path d="M393,140.91l-1.74,1.35A1.64,1.64,0,0,1,389,142L382,132.89a1.19,1.19,0,0,1-.25-.6l-.32-2.92a1.2,1.2,0,0,1,1.63-1.25l2.74,1.07a1.24,1.24,0,0,1,.52.39l6.95,9.06A1.61,1.61,0,0,1,393,140.91Z" style="fill:#263238;stroke:#263238;stroke-linecap:round;stroke-linejoin:round;stroke-width:1.0325px"></path><path d="M358,124.4a9,9,0,1,1-12.57-1.65A9,9,0,0,1,358,124.4Z" style="fill:#FEF853;stroke:#263238;stroke-linecap:round;stroke-linejoin:round;stroke-width:1.0325px"></path><rect x="343.09" y="126.61" width="13.38" height="8.17" rx="3.23" transform="translate(-7.25 240.04) rotate(-37.52)" style="fill:#263238;stroke:#263238;stroke-linecap:round;stroke-linejoin:round;stroke-width:1.0325px"></rect><path d="M365.87,117.09c-3.31,1.94,1.54,5.14,1.54,5.14,1.15,5.23-2,8.86-3.9,10.51a6.06,6.06,0,0,0-3.29,1.23l-6.92,5.32a6,6,0,0,0-2,2.68,10.49,10.49,0,0,1-10.33.54s-1.83-5.52-4.57-2.81c0,0-6.34-.95-2.63,6.23,0,0,3.41,4.19,5.39,2.07,0,0,7.8,3.13,13.69.7l8.05,10.48a8.28,8.28,0,0,0,4.71,3c.66,3.59,2.69,9,8.73,14.17.85.73,3.35,3,3.35,3s-4.44,3.94-1.2,6.44c0,0,6.29-5,8.89-10,0,0-10.94-6.42-13.27-14.78a5.25,5.25,0,0,0,.49-.33l2.73-2.1a25.41,25.41,0,0,0,12,8.36c1.07.38,4.21,1.61,4.21,1.61s-2.73,5.27,1.2,6.44c0,0,4.09-6.89,4.7-12.53,0,0-13.74-2.27-18.37-10.07a8.36,8.36,0,0,0-1.67-6l-7.9-10.29c4.76-4.9,3.61-14.29,3.61-14.29,2.56-1.36-.6-5.75-.6-5.75C366.6,110.72,365.87,117.09,365.87,117.09Z" style="fill:#FEF853;stroke:#263238;stroke-linecap:round;stroke-linejoin:round;stroke-width:1.0325px"></path><path d="M347.87,131.91c.4.51.43,1.15.08,1.42s-1,.08-1.36-.44-.43-1.15-.07-1.42S347.48,131.4,347.87,131.91Z" style="fill:#FEF853"></path><path d="M351.38,129.22c.4.51.43,1.15.08,1.42s-1,.07-1.36-.44-.43-1.15-.07-1.42S351,128.7,351.38,129.22Z" style="fill:#FEF853"></path><rect x="356.21" y="141.09" width="13.81" height="8.92" rx="2.25" transform="translate(-13.54 251.23) rotate(-37.52)" style="fill:#fff;stroke:#263238;stroke-linecap:round;stroke-linejoin:round;stroke-width:0.774372px"></rect><path d="M378.07,170.12a16.56,16.56,0,0,1-5.66,4.44c.6.61,1.25,1.22,2,1.83s3.35,3,3.35,3-4.44,3.94-1.2,6.44c0,0,6.29-5,8.89-10A43,43,0,0,1,378.07,170.12Z" style="fill:#fff;stroke:#263238;stroke-linecap:round;stroke-linejoin:round;stroke-width:1.0325px"></path><path d="M387.46,159.27a23.68,23.68,0,0,1-4.17,5.91,30.2,30.2,0,0,0,4.11,1.8c1.07.38,4.21,1.61,4.21,1.61s-2.73,5.27,1.2,6.44c0,0,4.09-6.89,4.7-12.53A42.58,42.58,0,0,1,387.46,159.27Z" style="fill:#fff;stroke:#263238;stroke-linecap:round;stroke-linejoin:round;stroke-width:1.0325px"></path><path d="M344.37,143.56a9.83,9.83,0,0,1-3.37-1.05s-1.83-5.52-4.57-2.81c0,0-6.34-.95-2.63,6.23,0,0,3.41,4.19,5.39,2.07a26.52,26.52,0,0,0,4.95,1.31A12.46,12.46,0,0,1,344.37,143.56Z" style="fill:#fff;stroke:#263238;stroke-linecap:round;stroke-linejoin:round;stroke-width:1.0325px"></path><path d="M372.58,116.15c-6-5.43-6.71.94-6.71.94-3.31,1.94,1.54,5.14,1.54,5.14a9.74,9.74,0,0,1,0,4.37,18.65,18.65,0,0,0,5.7,1,26.2,26.2,0,0,0,.07-5.68C375.74,120.54,372.58,116.15,372.58,116.15Z" style="fill:#fff;stroke:#263238;stroke-linecap:round;stroke-linejoin:round;stroke-width:1.0325px"></path><path d="M272.77,192.85a98.88,98.88,0,0,0-16.06-17.19s-5.07-8.45-20.85-22.82c0,0-.18-18.32-3.38-18.59-2.82-.24.14,6.9-2,8.45-1.83,1.34-9.58-10.28-11.27-8.52s3.94,7.39,3.38,8.52-7.61-5.07-8.73-4.23,0,3.66,0,3.66-2.82-1.31-2.07.94,5.82,3.76,5.82,5.26-5.51-1.69-5.95,0,6.33,3.76,6.33,3.76,5.07,4.88,8.45,6c0,0,13.9,21.79,19,27.23S270.61,209,270.61,209l3.76-13.34S273.24,193.51,272.77,192.85Z" style="fill:#fff;stroke:#263238;stroke-linecap:round;stroke-linejoin:round;stroke-width:1.0325px"></path><path d="M229.66,144.81s-1.69.71-2.11,4.51" style="fill:none;stroke:#263238;stroke-linecap:round;stroke-linejoin:round;stroke-width:1.0325px"></path><path d="M215.44,142.28s2.67,3.09,5.35,3.94" style="fill:none;stroke:#263238;stroke-linecap:round;stroke-linejoin:round;stroke-width:1.0325px"></path><path d="M331.65,195.17A51.92,51.92,0,0,1,348,187.78a28.31,28.31,0,0,1,2.58-7.06c2.05-4.08,5.65-9.3,7.28-13.79,0,0-9.86-5.07-9.29-8.74s6,2.61,7.6,1.87c4.71-2.18,6.52-.45,7.61,1.13.77,1.11,1.92,3.6,2.83,4.61.61.67,2.22,1.68,2.65,2.48a4.92,4.92,0,0,1,.32,1.4,4.38,4.38,0,0,1-.22,2.09c-1.45,4-7.32,19.51-13.19,26.26-6.76,7.78-19.72,11-19.72,11Z" style="fill:#fff;stroke:#263238;stroke-linecap:round;stroke-linejoin:round;stroke-width:1.0325px"></path><path d="M277.28,280.75a313.84,313.84,0,0,1-1.41-58.32l-6.82-7a6.21,6.21,0,0,1-1.27-6.71,53.67,53.67,0,0,0,3.59-14.77,3.09,3.09,0,0,1,3.77-2.7c2.92.69,6.87,2,8.68,4.14,0,0,5.29-1.41,7.83,2.54,0,0,9.29,3.94,21.41,0,0,0,3.1-4.51,7.32-2a104.17,104.17,0,0,1,10.89-3.1,3.74,3.74,0,0,1,4.51,2.72,45.66,45.66,0,0,0,4.91,12.23,3.82,3.82,0,0,1-1.36,5.29,40.63,40.63,0,0,0-9.06,6.8s3.64,38.6,3.64,58.89Z" style="fill:#FEF853;stroke:#263238;stroke-linecap:round;stroke-linejoin:round;stroke-width:1.0325px"></path><path d="M283.82,278.14l7.56-.21s-5.65-47.89.27-80c-2.54-3.95-7.83-2.54-7.83-2.54A377.88,377.88,0,0,0,283.82,278.14Z" style="fill:#263238;stroke:#263238;stroke-linecap:round;stroke-linejoin:round;stroke-width:1.0325px"></path><path d="M313.06,197.92a404.16,404.16,0,0,1,7.32,78.8h7.89s.57-35.41-7.89-80.77C316.16,193.41,313.06,197.92,313.06,197.92Z" style="fill:#263238;stroke:#263238;stroke-linecap:round;stroke-linejoin:round;stroke-width:1.0325px"></path><path d="M335.16,276.72A241.81,241.81,0,0,1,338,325.81s-8.33,5-26.2,0c0,0-3.32-20.32-5.61-20.56s-3.33,20.56-3.33,20.56-9.28,3.27-26.81,0c0,0-1.78-14.35-.37-47.44Z" style="fill:#263238;stroke:#263238;stroke-linecap:round;stroke-linejoin:round;stroke-width:1.0325px"></path><path d="M291.65,285.84A3.65,3.65,0,1,1,288,282.2,3.64,3.64,0,0,1,291.65,285.84Z" style="fill:#FEF853"></path><path d="M328,285.84a3.64,3.64,0,1,1-3.64-3.64A3.64,3.64,0,0,1,328,285.84Z" style="fill:#FEF853"></path><path d="M293.22,198.53l-.61-6a27.84,27.84,0,0,1-10.85-14.94c-2.69-9.8-2.54-20,8.65-24.54s23.38-7.47,29.4,6.24,4.64,36.64-9.32,38.42h0a3,3,0,0,1-2.54,3.69,38.62,38.62,0,0,1-12.26-.15A3.06,3.06,0,0,1,293.22,198.53Z" style="fill:#fff;stroke:#263238;stroke-linecap:round;stroke-linejoin:round;stroke-width:1.0325px"></path><path d="M295.17,194.4s4.47,2.81,12.21,2.95" style="fill:none;stroke:#263238;stroke-linecap:round;stroke-linejoin:round;stroke-width:1.0325px"></path><path d="M314,172c0,1.89,2.81,3.63,2.52,5.49-.17,1.1-1.9,2.74-2.52,3.67-.27.41,0,2,0,2" style="fill:none;stroke:#263238;stroke-linecap:round;stroke-linejoin:round;stroke-width:1.0325px"></path><path d="M308.83,170.62c.3,1.11.13,2.13-.38,2.26s-1.14-.67-1.43-1.79-.12-2.13.38-2.26S308.54,169.5,308.83,170.62Z" style="fill:#263238"></path><path d="M319.48,168.67c.29,1.12.12,2.13-.38,2.27s-1.15-.67-1.44-1.79-.12-2.13.38-2.26S319.18,167.56,319.48,168.67Z" style="fill:#263238"></path><path d="M303.44,184.4a9.94,9.94,0,0,0,9.67,1.74" style="fill:none;stroke:#263238;stroke-linecap:round;stroke-linejoin:round;stroke-width:1.0325px"></path><path d="M302.55,169.1s1.44-3.14,4.54-3" style="fill:none;stroke:#263238;stroke-linecap:round;stroke-linejoin:round;stroke-width:1.0325px"></path><path d="M319.17,165.64s-1-1.89-4-1" style="fill:none;stroke:#263238;stroke-linecap:round;stroke-linejoin:round;stroke-width:1.0325px"></path><path d="M290.67,151.43s-3.95-11.83,2.44-12.77S291.79,142.7,290.67,151.43Z" style="fill:#263238;stroke:#263238;stroke-linecap:round;stroke-linejoin:round;stroke-width:1.0325px"></path><path d="M283.53,176.6s10-7.25,8.42-15.41c0,0,1.79,5.93,17.25,1.51s16.29,1,16.29,1-3.08-34.8-34.6-13.92c0,0-18.13,4.39-16.83,15.28S283.53,176.6,283.53,176.6Z" style="fill:#263238;stroke:#263238;stroke-linecap:round;stroke-linejoin:round;stroke-width:1.0325px"></path><path d="M288.13,175s-9-4.18-8.09,4.14c.95,8.5,9.15,5.72,9.15,5.72" style="fill:#fff;stroke:#263238;stroke-linecap:round;stroke-linejoin:round;stroke-width:1.0325px"></path><path d="M279.46,168.81a22.84,22.84,0,0,0,.86,3.19" style="fill:none;stroke:#7f7f7f;stroke-linecap:round;stroke-linejoin:round;stroke-width:0.774372px"></path><path d="M288.16,154.16s-8.85,2.09-9,11.22" style="fill:none;stroke:#7f7f7f;stroke-linecap:round;stroke-linejoin:round;stroke-width:0.774372px"></path><path d="M320,154.65a25.17,25.17,0,0,1,1.41,2.55" style="fill:none;stroke:#7f7f7f;stroke-linecap:round;stroke-linejoin:round;stroke-width:0.774372px"></path><path d="M292.54,153s16.21-11.65,25.92-.43" style="fill:none;stroke:#7f7f7f;stroke-linecap:round;stroke-linejoin:round;stroke-width:0.774372px"></path><path d="M286,161.86a15.92,15.92,0,0,0-1.43,9" style="fill:none;stroke:#7f7f7f;stroke-linecap:round;stroke-linejoin:round;stroke-width:0.774372px"></path><path d="M289.46,157.2a12.27,12.27,0,0,0-1.69,1.81" style="fill:none;stroke:#7f7f7f;stroke-linecap:round;stroke-linejoin:round;stroke-width:0.774372px"></path><path d="M311.72,158.57c7.4-1,1.94-5.61-3.44-6" style="fill:none;stroke:#7f7f7f;stroke-linecap:round;stroke-linejoin:round;stroke-width:0.774372px"></path><path d="M294.38,155.94s5.53,3,14.37,2.84" style="fill:none;stroke:#7f7f7f;stroke-linecap:round;stroke-linejoin:round;stroke-width:0.774372px"></path></g><g id="freepik--character-1--inject-19"><path d="M220.3,261.35l5-5.4s.54-9.47,1.1-12.57c.42-2.31,2.51-9,2.51-9a.75.75,0,0,1,1.2-.37l.4.33a2.26,2.26,0,0,1,.81,2.08l-.63,4.39,0,3.14a.35.35,0,0,0,.61.24,32.79,32.79,0,0,0,3.57-4.5,43.1,43.1,0,0,0,2.11-7.13,1.09,1.09,0,0,1,1.59-.71l.26.15a3.13,3.13,0,0,1,1.6,3l-.07.78,1.11,1.47a3.14,3.14,0,0,1,.48,2.84l-.57,1.79L242,243a3.11,3.11,0,0,1,.3,2.67l-.52,1.51a3.21,3.21,0,0,0-.16,1.23l.07,1.1a2.52,2.52,0,0,1-.32,1.45c-1,1.81-4,6.77-7.49,9.68l-7.28,9.9Z" style="fill:#fff;stroke:#263238;stroke-linecap:round;stroke-linejoin:round"></path><path d="M153.5,279.14s8.27.18,23.49,2.73c14.85,2.49,44.67-23.49,44.67-23.49a56.23,56.23,0,0,0,8,9.88s-19.7,30.1-41.18,33.39a65.67,65.67,0,0,1-37.73-5.36S146.8,290.5,153.5,279.14Z" style="fill:#FEF853"></path><g style="clip-path:url(#freepik--clip-path--inject-19)"><path d="M175.3,292.33a47.64,47.64,0,0,1,1.74,7.21c.28,1.12.54,2.24.79,3.37l2,0c2.06-.07,4.14-.23,6.21-.49,2.83-.8,5.66-1.62,8.52-2.31,5-2.73,10.12-5.33,14.93-8.37,1.66-1.22,3.3-2.47,4.93-3.72.94-.77,1.87-1.54,2.8-2.33a2.4,2.4,0,0,1,.73-1.38,12,12,0,0,1,1.08-.93,2.81,2.81,0,0,1,.62-2.48l.2-.22v-.15a15.85,15.85,0,0,1-.44-4.64c-9.71,10.63-20.26,18.06-29.8,19.92-12.27,2.4-15.12-6-15.12-6l-.47.86A2.61,2.61,0,0,1,175.3,292.33Z" style="opacity:0.2"></path><path d="M189.62,285a1.11,1.11,0,0,0-1.93.85c.38,3.8,1.45,9.58,4.37,7.73S191.92,287.56,189.62,285Z" style="opacity:0.2"></path></g><path d="M153.5,279.14s8.27.18,23.49,2.73c14.85,2.49,44.67-23.49,44.67-23.49a56.23,56.23,0,0,0,8,9.88s-19.7,30.1-41.18,33.39a65.67,65.67,0,0,1-37.73-5.36S146.8,290.5,153.5,279.14Z" style="fill:none;stroke:#263238;stroke-linecap:round;stroke-linejoin:round"></path><path d="M237.42,233.08s-.17,2.95,1.53,3.33a5.2,5.2,0,0,0,.77,4.65,2.9,2.9,0,0,0,0,3.76s-1.79.82-.64,3.89c1,2.79-3.2,1.16-7,3.46" style="fill:#fff;stroke:#263238;stroke-linecap:round;stroke-linejoin:round"></path><path d="M232.49,193.69a10.05,10.05,0,0,0,1.19-1.25c1.88-2.37,9-10.54,14-5.58,5.87,5.76,0,14.92,0,14.92l-1.07-8.25-1.53,7.18s1.94-13.71-10.7-5.64l-1.81.83-.9-1.53Z" style="fill:#FEF853;stroke:#263238;stroke-linecap:round;stroke-linejoin:round"></path><path d="M220.86,186.86c-8.25,0-13.11,6.35-13.11,14.18l-.3,2.79s-2.58,2,1,2.29h0a12.42,12.42,0,0,0,12.36,9.1c8.26,0,14.95-6.35,14.95-14.18S229.12,186.86,220.86,186.86Z" style="fill:#fff;stroke:#263238;stroke-linecap:round;stroke-linejoin:round"></path><path d="M235.81,201c0-7.83-6.69-14.18-14.95-14.18a12.38,12.38,0,0,0-12.21,8.62c1.16,2.3,3.15,5.25,6.16,6.37,0,0-.51,7,3.39,11.22a9,9,0,0,1,9.08.77A14.14,14.14,0,0,0,235.81,201Z" style="fill:#FEF853;stroke:#263238;stroke-linecap:round;stroke-linejoin:round"></path><path d="M226.22,214l.91,7.11h-9.62l.91-7.11S221.42,212.07,226.22,214Z" style="fill:#fff;stroke:#263238;stroke-linecap:round;stroke-linejoin:round"></path><path d="M214.64,194.13a9.35,9.35,0,0,1-1.1-1.17c-1.86-2.35-9-10.56-14-5.59-5.88,5.76,0,14.92,0,14.92l1.06-8.25,1.53,7.18s-1.94-13.71,10.71-5.63l1,.44a1,1,0,0,0,1.32-.41h0a1,1,0,0,0-.21-1.3Z" style="fill:#FEF853;stroke:#263238;stroke-linecap:round;stroke-linejoin:round"></path><path d="M211.77,219.94l-20.86-6.84s-.26-6.53-3.57-7.62-8.91,3.79-5.32,8,4.66,4.24,4.66,4.24l20.24,10.25Z" style="fill:#fff;stroke:#263238;stroke-linecap:round;stroke-linejoin:round"></path><path d="M198.74,217c-1,.51-2.07,1.63-2.74,4.1" style="fill:none;stroke:#263238;stroke-linecap:round;stroke-linejoin:round"></path><path d="M189.88,213.38a5.25,5.25,0,0,0-2.86,3.16" style="fill:none;stroke:#263238;stroke-linecap:round;stroke-linejoin:round"></path><path d="M214.3,219.4s-12.51-7-9.8-.64c0,0-4,.8-1.79,5.07,0,0-4.44,1.84-.7,4a13.13,13.13,0,0,0,6.72,2.05Z" style="fill:#FEF853"></path><g style="clip-path:url(#freepik--clip-path-2--inject-19)"><path d="M214.3,219.4s-12.51-7-9.8-.64c0,0-4,.8-1.79,5.07,0,0-4.44,1.84-.7,4a13.13,13.13,0,0,0,6.72,2.05Z" style="fill:#fff;opacity:0.5"></path></g><path d="M214.3,219.4s-12.51-7-9.8-.64c0,0-4,.8-1.79,5.07,0,0-4.44,1.84-.7,4a13.13,13.13,0,0,0,6.72,2.05Z" style="fill:none;stroke:#263238;stroke-linecap:round;stroke-linejoin:round"></path><path d="M231.73,220.53l21-6.56s.35-6.52,3.66-7.57,8.87,3.92,5.22,8-4.72,4.17-4.72,4.17l-20.38,10Z" style="fill:#fff;stroke:#263238;stroke-linecap:round;stroke-linejoin:round"></path><path d="M244.58,217.51c1,.56,2.09,1.77,2.71,4.39" style="fill:none;stroke:#263238;stroke-linecap:round;stroke-linejoin:round"></path><path d="M253.76,214.29a5.3,5.3,0,0,1,2.76,3.18" style="fill:none;stroke:#263238;stroke-linecap:round;stroke-linejoin:round"></path><path d="M230.27,219.4s12.51-7,9.8-.64c0,0,4,.8,1.79,5.07,0,0,4.44,1.84.69,4a13.09,13.09,0,0,1-6.71,2.05Z" style="fill:#FEF853"></path><g style="clip-path:url(#freepik--clip-path-3--inject-19)"><path d="M230.27,219.4s12.51-7,9.8-.64c0,0,4,.8,1.79,5.07,0,0,4.44,1.84.69,4a13.09,13.09,0,0,1-6.71,2.05Z" style="fill:#fff;opacity:0.5"></path></g><path d="M230.27,219.4s12.51-7,9.8-.64c0,0,4,.8,1.79,5.07,0,0,4.44,1.84.69,4a13.09,13.09,0,0,1-6.71,2.05Z" style="fill:none;stroke:#263238;stroke-linecap:round;stroke-linejoin:round"></path><path d="M207,272.14s-3.51,7.32-.38,8.54,8.09-6,8.09-6,2.13,5.92,6.79,6.17,5.38-6.62,5.38-6.62,3.62,5.56,9.27,4.88,4.33-6.94,4.33-6.94l-8.74-3.82-13.91-.92-7.32,1.45Z" style="fill:#FEF853"></path><path d="M207,272.14s-3.51,7.32-.38,8.54,8.09-6,8.09-6,2.13,5.92,6.79,6.17,5.38-6.62,5.38-6.62,3.62,5.56,9.27,4.88,4.33-6.94,4.33-6.94l-8.74-3.82-13.91-.92-7.32,1.45Z" style="opacity:0.2"></path><path d="M209.73,265.84a103.74,103.74,0,0,0,2.73,32.92H219s1-20.51.79-32.92C219.82,265.84,216.26,263.29,209.73,265.84Z" style="fill:#fff;stroke:#263238;stroke-linecap:round;stroke-linejoin:round"></path><path d="M236.17,265.84a104,104,0,0,1-2.74,32.92h-6.57s-1-20.51-.79-32.92C226.07,265.84,229.63,263.29,236.17,265.84Z" style="fill:#fff;stroke:#263238;stroke-linecap:round;stroke-linejoin:round"></path><path d="M209.88,304l2.32-6.39s2.28-2.2,6.88,0l.76,6.39Z" style="fill:#FEF853;stroke:#263238;stroke-linecap:round;stroke-linejoin:round"></path><path d="M236,304l-2.32-6.39s-2.28-2.2-6.88,0L226,304Z" style="fill:#FEF853;stroke:#263238;stroke-linecap:round;stroke-linejoin:round"></path><path d="M211.07,282.34a7.71,7.71,0,0,1,7,0" style="fill:#fff;stroke:#263238;stroke-linecap:round;stroke-linejoin:round"></path><path d="M227.64,282.19a7.85,7.85,0,0,1,6.68.14" style="fill:#fff;stroke:#263238;stroke-linecap:round;stroke-linejoin:round"></path><path d="M208.76,253.71a62.18,62.18,0,0,0-9.32,20c-2.64,11,11.6-.84,11.6-.84s-.2,15.12,10.35.6c0,0,7.32,13.92,10-.6,0,0,15.06,9.74,12.56-1.87-1.82-8.51-8.12-17.32-8.12-17.32Z" style="fill:#FEF853"></path><g style="clip-path:url(#freepik--clip-path-4--inject-19)"><path d="M208.76,253.71a62.18,62.18,0,0,0-9.32,20c-2.64,11,11.6-.84,11.6-.84s-.2,15.12,10.35.6c0,0,7.32,13.92,10-.6,0,0,15.06,9.74,12.56-1.87-1.82-8.51-8.12-17.32-8.12-17.32Z" style="fill:#fff;opacity:0.5"></path></g><path d="M208.76,253.71a62.18,62.18,0,0,0-9.32,20c-2.64,11,11.6-.84,11.6-.84s-.2,15.12,10.35.6c0,0,7.32,13.92,10-.6,0,0,15.06,9.74,12.56-1.87-1.82-8.51-8.12-17.32-8.12-17.32Z" style="fill:none;stroke:#263238;stroke-linecap:round;stroke-linejoin:round"></path><path d="M222.39,218.22c-5.5,0-14.65-1.41-16.14,13.15-1.23,12.12-.95,19.17-.63,22.45a3,3,0,0,0,2.5,2.71c4.2.75,14.18,2,28,0a3.06,3.06,0,0,0,2.63-3.19c-.26-5.25-.91-16.78-1.84-23.68C235.67,220.47,232.16,218.16,222.39,218.22Z" style="fill:#FEF853"></path><g style="clip-path:url(#freepik--clip-path-5--inject-19)"><path d="M222.39,218.22c-5.5,0-14.65-1.41-16.14,13.15-1.23,12.12-.95,19.17-.63,22.45a3,3,0,0,0,2.5,2.71c4.2.75,14.18,2,28,0a3.06,3.06,0,0,0,2.63-3.19c-.26-5.25-.91-16.78-1.84-23.68C235.67,220.47,232.16,218.16,222.39,218.22Z" style="fill:#FEF853"></path><g style="clip-path:url(#freepik--clip-path-5--inject-19)"><path d="M223,252.17c-15.8-1.14-16-24.24-16-24.24l-.08-.13a29.2,29.2,0,0,0-.59,3.57c-1.23,12.12-.95,19.17-.63,22.45a3,3,0,0,0,2.5,2.71c4.2.75,14.18,2,28,0a3.06,3.06,0,0,0,2.63-3.19c-.12-2.51-.34-6.47-.63-10.67C238.12,242.8,238.62,253.3,223,252.17Z" style="opacity:0.2"></path></g><path d="M222.39,218.22c-5.5,0-14.65-1.41-16.14,13.15-1.23,12.12-.95,19.17-.63,22.45a3,3,0,0,0,2.5,2.71c4.2.75,14.18,2,28,0a3.06,3.06,0,0,0,2.63-3.19c-.26-5.25-.91-16.78-1.84-23.68C235.67,220.47,232.16,218.16,222.39,218.22Z" style="fill:none;stroke:#263238;stroke-linecap:round;stroke-linejoin:round"></path></g><path d="M222.39,218.22c-5.5,0-14.65-1.41-16.14,13.15-1.23,12.12-.95,19.17-.63,22.45a3,3,0,0,0,2.5,2.71c4.2.75,14.18,2,28,0a3.06,3.06,0,0,0,2.63-3.19c-.26-5.25-.91-16.78-1.84-23.68C235.67,220.47,232.16,218.16,222.39,218.22Z" style="fill:none;stroke:#263238;stroke-linecap:round;stroke-linejoin:round"></path><path d="M203.6,273.81c-.37,1-1.07,1.62-1.56,1.43s-.59-1.13-.22-2.11,1.07-1.61,1.56-1.42S204,272.84,203.6,273.81Z" style="fill:#FEF853"></path><path d="M206.47,267.76c-.29,1-.94,1.69-1.45,1.54s-.67-1.08-.38-2.08,3.51-8.38,4-8.23S206.77,266.76,206.47,267.76Z" style="fill:#FEF853"></path><path d="M237.48,267.21c.34,1,1,1.65,1.51,1.48s.63-1.11.29-2.1-3.86-8.22-4.36-8S237.14,266.22,237.48,267.21Z" style="fill:#FEF853"></path><path d="M215.63,274.8c-.16,1-.72,1.8-1.24,1.72s-.8-1-.64-2,.72-1.8,1.24-1.71S215.8,273.77,215.63,274.8Z" style="fill:#FEF853"></path><path d="M216.21,269.33c-.11,1-.63,1.83-1.15,1.78s-.86-.95-.74-2,2.08-9.17,2.61-9.11S216.33,268.29,216.21,269.33Z" style="fill:#FEF853"></path><path d="M224.94,268.72c.11,1,.63,1.84,1.15,1.78s.86-.95.74-2-2.08-9.17-2.6-9.11S224.82,267.68,224.94,268.72Z" style="fill:#FEF853"></path><path d="M227.8,274.05c.16,1-.14,1.94-.66,2s-1.07-.7-1.23-1.73.14-1.94.66-2S227.64,273,227.8,274.05Z" style="fill:#FEF853"></path><path d="M241.35,271.79c.38,1,.29,1.92-.2,2.11s-1.2-.44-1.58-1.42-.29-1.91.21-2.1S241,270.82,241.35,271.79Z" style="fill:#FEF853"></path><ellipse cx="214.86" cy="304.03" rx="4.98" ry="2.37" style="fill:#FEF853"></ellipse><g style="clip-path:url(#freepik--clip-path-7--inject-19)"><ellipse cx="214.86" cy="304.03" rx="4.98" ry="2.37" style="opacity:0.30000000000000004"></ellipse></g><ellipse cx="214.86" cy="304.03" rx="4.98" ry="2.37" style="fill:none;stroke:#263238;stroke-linecap:round;stroke-linejoin:round"></ellipse><path d="M226,304c0,1.31,2.23,2.37,5,2.37s5-1.06,5-2.37-2.23-2.37-5-2.37S226,302.72,226,304Z" style="fill:#FEF853"></path><g style="clip-path:url(#freepik--clip-path-8--inject-19)"><path d="M226,304c0,1.31,2.23,2.37,5,2.37s5-1.06,5-2.37-2.23-2.37-5-2.37S226,302.72,226,304Z" style="opacity:0.30000000000000004"></path></g><path d="M226,304c0,1.31,2.23,2.37,5,2.37s5-1.06,5-2.37-2.23-2.37-5-2.37S226,302.72,226,304Z" style="fill:none;stroke:#263238;stroke-linecap:round;stroke-linejoin:round"></path><path d="M213.21,201.39a1.87,1.87,0,0,1,1.77-1c1.07.19,1.68,1.81,1.34,3.61s-1.46,3.09-2.54,2.89" style="fill:#fff;stroke:#263238;stroke-linecap:round;stroke-linejoin:round"></path><path d="M127.41,223.3c-23.43,8.4-15.48,23.76-16.33,39.35-1.22,22.36-25.64,42.47.47,60.23a17.3,17.3,0,0,1-1.6-11.17,25.61,25.61,0,0,0,3.46,10.78,6,6,0,0,0,3.82,2.58,26.15,26.15,0,0,0,5.07.5c22.93.18,12.55-32.53,7.31-51.49-1.87-6.78.56-11.43.56-11.43l-2.76-8.11s13-6.64,9.61-17a13.67,13.67,0,0,1,2.82,6.52s5.11-7.83,19.49-6.52C159.33,237.53,155.71,213.17,127.41,223.3Z" style="fill:#263238;stroke:#263238;stroke-linecap:round;stroke-linejoin:round"></path><path d="M186.38,257.39l6.5-5.73V241.3a4.87,4.87,0,0,1,0-.66l1.1-8.42a1,1,0,0,1,1.57-.6l.53.46a3,3,0,0,1,1,2l.69,6.79,12-10.35a1.68,1.68,0,0,1,2.08-.09h0a1.68,1.68,0,0,1,.29,2.46l-6.07,7,11-6a1.53,1.53,0,0,1,1.84.28h0a1.54,1.54,0,0,1-.08,2.24L210.42,244l9.21-5.8a1.37,1.37,0,0,1,1.78.26h0a1.39,1.39,0,0,1-.13,1.94L213,247.64l6.75-4.07a1.09,1.09,0,0,1,1.48.34h0a1.08,1.08,0,0,1-.18,1.4s-6.56,6.56-9.13,8.26S200.15,259,200.15,259l-6,6.24Z" style="fill:#fff;stroke:#263238;stroke-linecap:round;stroke-linejoin:round"></path><polygon points="127.9 405.4 137.55 406.17 134.93 418.49 124.11 417.44 127.9 405.4" style="fill:#fff;stroke:#263238;stroke-linecap:round;stroke-linejoin:round"></polygon><path d="M164.57,378.47l-38.95-9.15S115,398,151.84,404.41V405l-18.25-.87L131,419.23s63.34,11,65.35-3.36C198.72,399.11,164.57,378.47,164.57,378.47Z" style="fill:#263238;stroke:#263238;stroke-linecap:round;stroke-linejoin:round"></path><path d="M181.36,376.12s59.39,9.4,60.2,30c.61,15.32-13.46,13.65-45.92,15H167.11l10.48-16,24.23-.65a.33.33,0,0,0,0-.66c-7.27-.95-21.47-3.07-27.08-5.75-7.67-3.66-17-15.7-17-15.7Z" style="fill:#263238;stroke:#263238;stroke-linecap:round;stroke-linejoin:round"></path><line x1="156.01" y1="404.49" x2="173.15" y2="404.06" style="fill:none;stroke:#7f7f7f;stroke-linecap:round;stroke-linejoin:round;stroke-width:0.75px"></line><line x1="151.54" y1="404.65" x2="154.21" y2="404.58" style="fill:none;stroke:#7f7f7f;stroke-linecap:round;stroke-linejoin:round;stroke-width:0.75px"></line><line x1="216.61" y1="402.2" x2="218.42" y2="402.02" style="fill:none;stroke:#7f7f7f;stroke-linecap:round;stroke-linejoin:round;stroke-width:0.75px"></line><line x1="205.42" y1="403.29" x2="213.55" y2="402.5" style="fill:none;stroke:#7f7f7f;stroke-linecap:round;stroke-linejoin:round;stroke-width:0.75px"></line><path d="M196.36,415.87c.7-5-1.8-10.27-5.67-15.27" style="fill:none;stroke:#7f7f7f;stroke-linecap:round;stroke-linejoin:round;stroke-width:0.75px"></path><path d="M192.75,420.26a8.24,8.24,0,0,0,2.48-1.91" style="fill:none;stroke:#7f7f7f;stroke-linecap:round;stroke-linejoin:round;stroke-width:0.75px"></path><path d="M121.2,402a5.26,5.26,0,0,0-5.26,2.33A56.73,56.73,0,0,1,110,411.9c-6.18,6.64-13.59,15-10.81,19.2,4.82,7.19,10.87-8.62,24.82-11a2.63,2.63,0,0,0,2.07-1.82l3.59-11.89a2.64,2.64,0,0,0-2.1-3.37Z" style="fill:#FEF853;stroke:#263238;stroke-linecap:round;stroke-linejoin:round"></path><path d="M121.2,402a5.26,5.26,0,0,0-5.26,2.33A56.73,56.73,0,0,1,110,411.9c-6.18,6.64-13.59,15-10.81,19.2a3.85,3.85,0,0,0,2.21,1.78,13.57,13.57,0,0,1,1.7-7.85c2.81-5,10.91-12,12.87-14.4s4.37-8.43,7.07-8.17a1.36,1.36,0,0,0,.62-.08Z" style="fill:#fff;stroke:#263238;stroke-linecap:round;stroke-linejoin:round;stroke-width:0.75px"></path><path d="M125.86,278.35s-1.1-6.67,4.32-6.41,17.71,5.84,28.86,0,6.59,2.83,6.59,2.83l-25.27,7.06-10.18-.39Z" style="fill:#FEF853;stroke:#263238;stroke-linecap:round;stroke-linejoin:round"></path><path d="M121.49,245.25l4.28-13.73,11.12-2.18h11.38A21.82,21.82,0,0,1,161.33,249a3.23,3.23,0,0,0,.63,1.83c1.63,2.08,5.52,9-1.73,21,0,0-6.13,4.91-19.62,4.91s-14-6.23-14-6.23Z" style="fill:#fff"></path><g style="clip-path:url(#freepik--clip-path-9--inject-19)"><path d="M130.17,262.65s0,16.69,24.23,12-11.42,15-11.42,15l-17.21-2.34-11.5-9,1.2-8.44,7.7-7.25Z" style="opacity:0.2"></path></g><path d="M121.49,245.25l4.28-13.73,11.12-2.18h11.38A21.82,21.82,0,0,1,161.33,249a3.23,3.23,0,0,0,.63,1.83c1.63,2.08,5.52,9-1.73,21,0,0-6.13,4.91-19.62,4.91s-14-6.23-14-6.23Z" style="fill:none;stroke:#263238;stroke-linecap:round;stroke-linejoin:round"></path><path d="M156.65,247.06c0,1.09,2.55,2.05,3.49,2.59a2.4,2.4,0,0,1,.45,3.56l-1.07,1.33" style="fill:#fff;stroke:#263238;stroke-linecap:round;stroke-linejoin:round"></path><path d="M150.07,259.39s7,1.68,11.29-1.36l-.79,6.29S155,266.36,150.07,259.39Z" style="fill:#fff;stroke:#263238;stroke-linecap:round;stroke-linejoin:round"></path><path d="M150.69,246.23c.32,1,.08,2-.54,2.2s-1.37-.49-1.69-1.51-.08-2,.54-2.21S150.37,245.2,150.69,246.23Z"></path><path d="M160.06,246.32c.24.78.11,1.52-.29,1.64s-.92-.4-1.17-1.18-.11-1.52.29-1.64S159.82,245.54,160.06,246.32Z"></path><path d="M150.45,240.37a4.87,4.87,0,0,0-5.22,3.68" style="fill:#fff;stroke:#263238;stroke-linecap:round;stroke-linejoin:round"></path><path d="M155.71,240.35s1.13-1.78,3.76.53" style="fill:#fff;stroke:#263238;stroke-linecap:round;stroke-linejoin:round"></path><path d="M152.26,261.89c4.27,3.89,8.31,2.43,8.31,2.43l.28-2.2A22.46,22.46,0,0,1,152.26,261.89Z" style="fill:#263238;stroke:#263238;stroke-linecap:round;stroke-linejoin:round"></path><path d="M127.58,365.38,98,407.73a191.52,191.52,0,0,1,30.45-6.59c16.67-2.16,58.8-2,85.26-3.38s24.39-4.24,24.39-4.24L185.57,363l-21.82,2.92H140.8Z" style="fill:#FEF853"></path><g style="clip-path:url(#freepik--clip-path-10--inject-19)"><path d="M127.58,365.38,98,407.73a191.52,191.52,0,0,1,30.45-6.59c16.67-2.16,58.8-2,85.26-3.38s24.39-4.24,24.39-4.24L185.57,363l-21.82,2.92H140.8Z" style="fill:#fff;opacity:0.7000000000000001"></path></g><path d="M127.58,365.38,98,407.73a191.52,191.52,0,0,1,30.45-6.59c16.67-2.16,58.8-2,85.26-3.38s24.39-4.24,24.39-4.24L185.57,363l-21.82,2.92H140.8Z" style="fill:none;stroke:#263238;stroke-linecap:round;stroke-linejoin:round"></path><path d="M125.08,367.06s-40.21,41.46-27.6,42.32c13.14.9,31-42,31-42v-1.87Z" style="fill:#FEF853"></path><g style="clip-path:url(#freepik--clip-path-11--inject-19)"><path d="M125.08,367.06s-40.21,41.46-27.6,42.32c13.14.9,31-42,31-42Z" style="fill:#fff;stroke:#263238;stroke-linecap:round;stroke-linejoin:round;opacity:0.5"></path></g><path d="M125.08,367.06s-40.21,41.46-27.6,42.32c13.14.9,31-42,31-42v-1.87Z" style="fill:none;stroke:#263238;stroke-linecap:round;stroke-linejoin:round"></path><path d="M133.34,365.67s-13.11,39.47-4.85,38.7,8.65-38.7,8.65-38.7Z" style="fill:#FEF853"></path><g style="clip-path:url(#freepik--clip-path-12--inject-19)"><path d="M133.34,365.67s-13.11,39.47-4.85,38.7,8.65-38.7,8.65-38.7Z" style="fill:#fff;opacity:0.5"></path></g><path d="M133.34,365.67s-13.11,39.47-4.85,38.7,8.65-38.7,8.65-38.7Z" style="fill:none;stroke:#263238;stroke-linecap:round;stroke-linejoin:round"></path><path d="M143.55,365.94s.61,35.87,8.29,35.87-4.15-36.14-4.15-36.14Z" style="fill:#FEF853"></path><g style="clip-path:url(#freepik--clip-path-13--inject-19)"><path d="M143.55,365.94s.61,35.87,8.29,35.87-4.15-36.14-4.15-36.14Z" style="fill:#fff;opacity:0.5"></path></g><path d="M143.55,365.94s.61,35.87,8.29,35.87-4.15-36.14-4.15-36.14Z" style="fill:none;stroke:#263238;stroke-linecap:round;stroke-linejoin:round"></path><path d="M156.53,366s14.76,35.6,23.28,35.19-19.9-35.27-19.9-35.27Z" style="fill:#FEF853"></path><g style="clip-path:url(#freepik--clip-path-14--inject-19)"><path d="M156.53,366s14.76,35.6,23.28,35.19-19.9-35.27-19.9-35.27Z" style="fill:#fff;opacity:0.5"></path></g><path d="M156.53,366s14.76,35.6,23.28,35.19-19.9-35.27-19.9-35.27Z" style="fill:none;stroke:#263238;stroke-linecap:round;stroke-linejoin:round"></path><path d="M170,365.38s31.54,35.74,44.53,34.37-41.1-34.66-41.1-34.66Z" style="fill:#FEF853"></path><g style="clip-path:url(#freepik--clip-path-15--inject-19)"><path d="M170,365.38s31.54,35.74,44.53,34.37-41.1-34.66-41.1-34.66Z" style="fill:#fff;opacity:0.5"></path></g><path d="M170,365.38s31.54,35.74,44.53,34.37-41.1-34.66-41.1-34.66Z" style="fill:none;stroke:#263238;stroke-linecap:round;stroke-linejoin:round"></path><path d="M184.22,363.4s44.26,35,56,33-53.42-33.85-53.42-33.85Z" style="fill:#FEF853"></path><g style="clip-path:url(#freepik--clip-path-16--inject-19)"><path d="M184.22,363.4s44.26,35,56,33-53.42-33.85-53.42-33.85Z" style="fill:#fff;opacity:0.5"></path></g><path d="M184.22,363.4s44.26,35,56,33-53.42-33.85-53.42-33.85Z" style="fill:none;stroke:#263238;stroke-linecap:round;stroke-linejoin:round"></path><path d="M196.22,264.32c-1.61-7.11-8.8-9.15-8.8-9.15s-22.26,17.32-38.41,22.1c-7.78,0-15.85.72-21.89-.55-13.75-2.89-18.67,5.62-10.79,30.49s10.72,56.93,10.72,56.93c50.05,2.31,59.2-2.78,59.2-2.78-1.62-20.84-6.05-61.58-13.48-75.27A167.59,167.59,0,0,0,196.22,264.32Z" style="fill:#FEF853"></path><g style="clip-path:url(#freepik--clip-path-17--inject-19)"><path d="M186.32,359.43a.14.14,0,0,0,0-.07A8.23,8.23,0,0,1,186,357c0-.13,0-.27,0-.4a.06.06,0,0,0,0,0,23.77,23.77,0,0,1-.92-6.1c-.09-2.23-.38-4.41-.62-6.61-2.17,8.72-12.56,12.38-22.41,8.52-11.77-4.62,16.91-19,7.61-18.22s-36.38,6.93-37.7-11.58,40.58-24.35,9.77-23.46-27.51-17.78-27.51-17.78l-.25.16a65.25,65.25,0,0,0,.5,16.47c1.75,6.45,3.38,11.7,3.83,12.91,1.57,4.23,5.26,22.2,5.75,27.17.15,1.49,4,26,4,27,.5.1,0-.08.55,0,2.83.48,5.76.2,8.62.26,2.4.05,42.73-2.51,49.2-3.83A10.22,10.22,0,0,1,186.32,359.43Z" style="opacity:0.2"></path><path d="M195.75,261.83c-.14-.31-.28-.61-.44-.91s-.2-.31-.31-.45-.41-.49-.61-.73c-3.9,5.13-12.94,16.14-24.43,24.34-15.48,11-28.66,3.33-27,9.57s13.55,2.09,13.55,2.09c6.93-2.87,16.94-10.05,16.94-10.05a2.34,2.34,0,0,1,.49-.33c.55-.25,21.88-19.49,22.69-21.55A17.66,17.66,0,0,1,195.75,261.83Z" style="opacity:0.2"></path></g><path d="M196.22,264.32c-1.61-7.11-8.8-9.15-8.8-9.15s-22.26,17.32-38.41,22.1c-7.78,0-15.85.72-21.89-.55-13.75-2.89-18.67,5.62-10.79,30.49s10.72,56.93,10.72,56.93c50.05,2.31,59.2-2.78,59.2-2.78-1.62-20.84-6.05-61.58-13.48-75.27A167.59,167.59,0,0,0,196.22,264.32Z" style="fill:none;stroke:#263238;stroke-linecap:round;stroke-linejoin:round"></path><path d="M127.41,223.3c-21.29,7.63-16.68,21-16.29,35.08h17.6l-1.31-3.84s13-6.64,9.61-17a13.67,13.67,0,0,1,2.82,6.52s5.11-7.83,19.49-6.52C159.33,237.53,155.71,213.17,127.41,223.3Z" style="fill:#263238;stroke:#263238;stroke-linecap:round;stroke-linejoin:round"></path><path d="M130.48,254.19s-7-4.75-8.06,1.56,5,11,10.1,8.84" style="fill:#fff;stroke:#263238;stroke-linecap:round;stroke-linejoin:round"></path><path d="M123.88,299.22c-1.27-.2-2.43-.42-3.46-.64" style="fill:none;stroke:#263238;stroke-linecap:round;stroke-linejoin:round;stroke-width:0.75px"></path><path d="M171.12,287.3c-5.79,4.17-12.05,7.81-18.15,9.76a63.5,63.5,0,0,1-25.53,2.62" style="fill:none;stroke:#263238;stroke-linecap:round;stroke-linejoin:round;stroke-width:0.75px"></path><path d="M126.1,362.57s46.41,2.72,60.48-2.51a3.3,3.3,0,0,1,2.37,3.86s-23.91,6.81-63.87,3.14A13.05,13.05,0,0,1,126.1,362.57Z" style="fill:#FEF853"></path><g style="clip-path:url(#freepik--clip-path-18--inject-19)"><path d="M126.1,362.57s46.41,2.72,60.48-2.51a3.3,3.3,0,0,1,2.37,3.86s-23.91,6.81-63.87,3.14A13.05,13.05,0,0,1,126.1,362.57Z" style="fill:#fff;opacity:0.30000000000000004"></path></g><path d="M126.1,362.57s46.41,2.72,60.48-2.51a3.3,3.3,0,0,1,2.37,3.86s-23.91,6.81-63.87,3.14A13.05,13.05,0,0,1,126.1,362.57Z" style="fill:none;stroke:#263238;stroke-linecap:round;stroke-linejoin:round"></path><path d="M115.38,256.23c-.09-1.47-.23-3-.42-4.58" style="fill:none;stroke:#7f7f7f;stroke-linecap:round;stroke-linejoin:round"></path><path d="M107.93,288.43c4.81-11.17,7.26-18.53,7.53-27.12" style="fill:none;stroke:#7f7f7f;stroke-linecap:round;stroke-linejoin:round"></path><path d="M105.53,311.62c-1.43-3.78-2.66-10.67,1.17-20.29" style="fill:none;stroke:#7f7f7f;stroke-linecap:round;stroke-linejoin:round"></path><path d="M111.28,309.47a36.54,36.54,0,0,1,0-14.27" style="fill:none;stroke:#7f7f7f;stroke-linecap:round;stroke-linejoin:round"></path><path d="M113.76,316a13.73,13.73,0,0,1-1.33-2.67" style="fill:none;stroke:#7f7f7f;stroke-linecap:round;stroke-linejoin:round"></path><path d="M135.18,231.23a12.69,12.69,0,0,1,5.95,7.25" style="fill:none;stroke:#7f7f7f;stroke-linecap:round;stroke-linejoin:round"></path><path d="M130.29,229.54a17.87,17.87,0,0,1,2.42.61" style="fill:none;stroke:#7f7f7f;stroke-linecap:round;stroke-linejoin:round"></path><path d="M146.1,232.84a20.43,20.43,0,0,1,1.74,2.39" style="fill:none;stroke:#7f7f7f;stroke-linecap:round;stroke-linejoin:round"></path><path d="M133.9,226.32a18.93,18.93,0,0,1,10.5,4.75" style="fill:none;stroke:#7f7f7f;stroke-linecap:round;stroke-linejoin:round"></path><path d="M143,224a15.82,15.82,0,0,1,11.91,9.81" style="fill:none;stroke:#7f7f7f;stroke-linecap:round;stroke-linejoin:round"></path><path d="M135.83,223.77a19.14,19.14,0,0,1,3.94-.15" style="fill:none;stroke:#7f7f7f;stroke-linecap:round;stroke-linejoin:round"></path><path d="M129.44,248.3c-.21.79-.47,1.62-.8,2.5" style="fill:none;stroke:#7f7f7f;stroke-linecap:round;stroke-linejoin:round"></path><path d="M119.06,235.23s12.16-.29,10.83,10.71" style="fill:none;stroke:#7f7f7f;stroke-linecap:round;stroke-linejoin:round"></path><path d="M135.88,357.42l-2,.81" style="fill:none;stroke:#263238;stroke-linecap:round;stroke-linejoin:round;stroke-width:0.75px"></path><path d="M163.27,341.81c-5.84,4.81-14,9.86-25.26,14.71" style="fill:none;stroke:#263238;stroke-linecap:round;stroke-linejoin:round;stroke-width:0.75px"></path><path d="M177.47,321.86a29.77,29.77,0,0,1-4.32,9.38" style="fill:none;stroke:#263238;stroke-linecap:round;stroke-linejoin:round;stroke-width:0.75px"></path><path d="M178,316a11.09,11.09,0,0,1,.05,2.38" style="fill:none;stroke:#263238;stroke-linecap:round;stroke-linejoin:round;stroke-width:0.75px"></path></g><g id="freepik--Toys--inject-19"><rect x="361.95" y="400.92" width="12.3" height="21.57" style="fill:#263238;stroke:#263238;stroke-linecap:round;stroke-linejoin:round;stroke-width:0.75px"></rect><rect x="338.35" y="400.92" width="31.61" height="21.57" style="fill:#FEF853;stroke:#263238;stroke-linecap:round;stroke-linejoin:round"></rect><rect x="405.98" y="411.7" width="12.3" height="10.79" style="fill:#263238;stroke:#263238;stroke-linecap:round;stroke-linejoin:round;stroke-width:0.75px"></rect><rect x="382.38" y="411.7" width="31.61" height="10.79" style="fill:#FEF853;stroke:#263238;stroke-linecap:round;stroke-linejoin:round"></rect><rect x="375.61" y="390.29" width="12.3" height="10.79" style="fill:#263238;stroke:#263238;stroke-linecap:round;stroke-linejoin:round;stroke-width:0.75px"></rect><rect x="352.01" y="390.29" width="31.61" height="10.79" style="fill:#999;stroke:#263238;stroke-linecap:round;stroke-linejoin:round"></rect><rect x="379.62" y="359.91" width="8.01" height="30.38" style="fill:#263238;stroke:#263238;stroke-linecap:round;stroke-linejoin:round"></rect><rect x="375.61" y="359.91" width="8.01" height="30.38" style="fill:#FEF853;stroke:#263238;stroke-linecap:round;stroke-linejoin:round"></rect><rect x="405.98" y="370.54" width="8.01" height="30.38" style="fill:#263238;stroke:#263238;stroke-linecap:round;stroke-linejoin:round"></rect><rect x="401.97" y="370.54" width="8.01" height="30.38" style="fill:#FEF853;stroke:#263238;stroke-linecap:round;stroke-linejoin:round"></rect><rect x="407.86" y="360.79" width="11.78" height="9.75" style="fill:#263238;stroke:#263238;stroke-linecap:round;stroke-linejoin:round"></rect><rect x="401.97" y="360.79" width="11.78" height="9.75" style="fill:#858585;stroke:#263238;stroke-linecap:round;stroke-linejoin:round"></rect><rect x="419.64" y="401.07" width="12.3" height="10.79" style="fill:#999;stroke:#263238;stroke-linecap:round;stroke-linejoin:round"></rect><rect x="396.04" y="401.07" width="31.61" height="10.79" style="fill:#858585;stroke:#263238;stroke-linecap:round;stroke-linejoin:round"></rect><polygon points="399.88 336.54 393.33 336.54 369.96 359.91 423.25 359.91 399.88 336.54" style="fill:#858585;stroke:#263238;stroke-linecap:round;stroke-linejoin:round"></polygon><polygon points="369.96 359.91 393.33 336.54 416.71 359.91 369.96 359.91" style="fill:#FEF853;stroke:#263238;stroke-linecap:round;stroke-linejoin:round"></polygon></g></svg>