<svg width="16" height="16" viewBox="0 0 16 16" fill="none" xmlns="http://www.w3.org/2000/svg">
<path fill-rule="evenodd" clip-rule="evenodd" d="M8.00008 0C7.2637 0 6.66675 0.596954 6.66675 1.33333V6.66675H1.33333C0.596954 6.66675 0 7.2637 0 8.00008C0 8.73646 0.596953 9.33341 1.33333 9.33341H6.66675V14.6667C6.66675 15.403 7.2637 16 8.00008 16C8.73646 16 9.33342 15.403 9.33342 14.6667V9.33342H14.6667C15.403 9.33342 16 8.73646 16 8.00008C16 7.2637 15.403 6.66675 14.6667 6.66675H9.33342V1.33333C9.33342 0.596954 8.73646 0 8.00008 0Z" fill="white"/>
</svg>
